<svg version="1.2" xmlns="http://www.w3.org/2000/svg" viewBox="0 0 114 114" width="100" height="100">
	<style>
		.s0 { fill: #ffffff } 
	</style>
	<path id="XMLID_244_" fill-rule="evenodd" class="s0" d="m58.67 24.84c5.86 6.81 9.09 15.42 9.09 24.39v27.14c0 1.08 1.08 1.91 2.15 1.67 1.92-0.47 3.71-1.19 5.5-2.15 11.84-6.34 16.26-21.04 10.05-32.88-2.16-3.94-2.51-8.37-1.2-12.67 1.32-4.31 4.19-7.77 8.13-9.81 1.44-0.71 2.87-1.31 4.43-1.67-9.93-10.4-24.04-16.86-39.58-16.86-11.96 0-23.08 3.83-32.16 10.4 1.79-0.24 3.7-0.36 5.5-0.36 10.64-0.12 20.92 4.67 28.09 12.8zm43.89 1.79c-2.64-0.84-5.39-0.36-7.66 1.2-1.31 0.95-2.27 2.15-2.99 3.58-1.07 2.51-1.07 5.38 0.24 7.78 4.07 7.53 4.91 16.26 2.39 24.39-2.51 8.37-8.01 15.18-15.66 19.13-4.66 2.51-9.8 3.82-15.06 3.82-2.16 0-3.95-1.79-3.95-3.94v-33.36c0-7.06-2.51-13.99-7.17-19.25-5.62-6.46-13.75-10.16-22.36-10.16q-0.36 0-0.72 0c-10.4 0.23-19.61 6.81-23.55 16.38-2.64 6.33-4.07 13.39-4.07 20.68 0 18.17 8.85 34.32 22.48 44.36v-33.84c0-2.27 2.03-4.06 4.3-3.82 0.48 0 0.96 0.12 1.44 0.12 2.03 0 4.06-0.48 5.98-1.32 0.83-0.36 1.67-0.96 2.51-1.43 0.36-0.24 0.71-0.6 1.07-0.84 0.24-0.12 0.36-0.36 0.48-0.48 0.12-0.12 0.36-0.36 0.48-0.48l0.12-0.12c0.12-0.12 0.12-0.12 0.24-0.24 0.12-0.12 0.12-0.12 0.24-0.24 2.03-2.51 3.23-5.73 3.23-9.08 0-4.07-1.68-7.89-4.67-10.64-0.24-0.24-0.48-0.36-0.71-0.6l-0.24-0.24c-0.24-0.24-0.48-0.36-0.72-0.48q-1.62-1.07-3.59-1.79c-0.84-0.24-1.67-0.48-2.51-0.6-0.96-0.12-1.79-0.84-1.91-1.67q0-0.18 0-0.36v-3.35c0-1.32 1.19-2.39 2.51-2.27 4.54 0.48 8.85 2.51 12.31 5.62 2.16 1.91 3.83 4.3 5.15 6.81 1.19 2.51 1.91 5.38 2.15 8.25 0 0.48 0 0.84 0 1.32 0 8.61-5.02 16.5-12.92 20.08-1.43 0.6-2.87 1.2-4.42 1.44-1.67 0.36-2.75 1.79-2.75 3.47v28.21c0 2.04 1.2 3.95 3.23 4.79 6.57 2.75 13.75 4.3 21.28 4.3 30.37 0 55.12-24.87 54.88-55.24-0.12-10.76-3.23-20.92-8.73-29.29 0-0.36-0.12-0.48-0.35-0.6z"/>
</svg>