<svg width="30" height="30" viewBox="0 0 30 30" fill="none" xmlns="http://www.w3.org/2000/svg">
<path d="M5.43762 18.0703C5.18682 18.0708 4.9465 18.172 4.76954 18.3515C4.59259 18.5309 4.49346 18.774 4.49396 19.0273C4.49446 19.2806 4.59453 19.5233 4.77219 19.702L14.27 29.2533C14.4472 29.4316 14.6872 29.5317 14.9374 29.5317C15.1876 29.5317 15.4276 29.4316 15.6048 29.2533L25.1024 19.702C25.2801 19.5233 25.3803 19.2806 25.3808 19.0274C25.3814 18.7741 25.2823 18.531 25.1054 18.3515C25.0178 18.2626 24.9137 18.192 24.799 18.1437C24.6844 18.0954 24.5614 18.0705 24.4372 18.0702C24.313 18.0699 24.1899 18.0944 24.0751 18.1421C23.9602 18.1899 23.8558 18.2601 23.7678 18.3486L14.9375 27.2286L6.10702 18.3486C6.01898 18.2601 5.91453 18.1899 5.79964 18.1422C5.68475 18.0944 5.56186 18.07 5.43762 18.0703Z" fill="white"/>
<path d="M5.43762 0.531494C5.31342 0.531797 5.1905 0.556801 5.07587 0.60508C4.96124 0.653359 4.85715 0.723968 4.76954 0.812874C4.59259 0.992341 4.49346 1.23544 4.49396 1.4887C4.49446 1.74197 4.59453 1.98466 4.77219 2.16342L14.27 11.7147C14.4472 11.893 14.6872 11.9931 14.9374 11.9931C15.1876 11.9931 15.4276 11.893 15.6048 11.7147L25.1024 2.16342C25.2801 1.98471 25.3803 1.74204 25.3808 1.48878C25.3814 1.23551 25.2823 0.992391 25.1054 0.812874C25.0178 0.723967 24.9137 0.653366 24.799 0.605105C24.6844 0.556844 24.5614 0.531867 24.4372 0.531601C24.313 0.531334 24.1899 0.555784 24.0751 0.603554C23.9602 0.651324 23.8558 0.721478 23.7678 0.810009L14.9375 9.69L6.10702 0.810009C6.01898 0.721473 5.91453 0.651323 5.79964 0.603567C5.68475 0.555811 5.56167 0.531386 5.43743 0.531685L5.43762 0.531494Z" fill="white" fill-opacity="0.5"/>
<path d="M5.43762 9.30091C5.31342 9.30121 5.1905 9.32621 5.07587 9.37449C4.96124 9.42277 4.85715 9.49338 4.76954 9.58229C4.59259 9.76175 4.49346 10.0049 4.49396 10.2581C4.49446 10.5114 4.59453 10.7541 4.77219 10.9328L14.27 20.4841C14.4472 20.6624 14.6872 20.7625 14.9374 20.7625C15.1876 20.7625 15.4276 20.6624 15.6048 20.4841L25.1024 10.9328C25.2801 10.7541 25.3803 10.5115 25.3808 10.2582C25.3814 10.0049 25.2823 9.7618 25.1054 9.58229C25.0178 9.49337 24.9137 9.42275 24.799 9.37448C24.6844 9.3262 24.5614 9.3012 24.4372 9.30092C24.313 9.30064 24.19 9.32507 24.0751 9.37282C23.9602 9.42057 23.8558 9.49071 23.7678 9.57923L14.9375 18.4594L6.10702 9.57923C6.01898 9.49069 5.91453 9.42054 5.79964 9.37279C5.68475 9.32503 5.56186 9.30061 5.43762 9.30091Z" fill="white" fill-opacity="0.75"/>
</svg>
