<svg version="1.2" xmlns="http://www.w3.org/2000/svg" viewBox="0 0 512 512" width="512" height="512"><path fill-rule="evenodd" class="a" d="m255.5 0c199.7 0 201.1 0 209 2 4.4 1.2 10.7 3.5 14 5.2 3.7 2 9.3 6.5 14.5 11.8 6.4 6.4 9.5 10.4 12.2 16 2.1 4.1 4.4 10.4 5.2 14 1.4 5.7 1.6 30.7 1.6 207 0 176.3-0.2 201.3-1.6 207-0.8 3.6-3.1 9.9-5.2 14-2.7 5.7-5.7 9.6-12.2 16-6.4 6.5-10.3 9.5-16 12.2-4.1 2.1-10.4 4.4-14 5.2-5.7 1.4-30.7 1.6-207 1.6-176.3 0-201.3-0.2-207-1.6-3.6-0.8-9.9-3.1-14-5.2-5.6-2.7-9.6-5.8-16-12.2-5.3-5.2-9.8-10.8-11.8-14.5-1.7-3.3-4-9.6-5.2-14-2-7.9-2-9.4-2-209 0-200.4 0-201 2.1-208.5 1.1-4.1 3.5-10.2 5.2-13.5 1.9-3.7 6.4-9.3 11.7-14.5 5.2-5.2 10.8-9.8 14.5-11.7 3.3-1.8 9.4-4.1 13.5-5.2 7.4-2 11.2-2 208.5-2.1zm-87.8 134.3l-87.8 57.2v113c39.2 25.5 56.2 36.6 63.1 41 6.9 4.5 17 11.1 22.5 14.7 5.5 3.5 13.8 8.9 18.5 12 4.7 3 13.2 8.5 19 12.3 5.8 3.8 16.3 10.6 23.5 15.3 7.2 4.7 16.7 11 21.3 14.1l8.3 5.6c4.2-3.5 6.8-5.2 8.4-6.1 1.6-0.9 6.8-4.2 11.5-7.4 4.7-3.1 12.3-8.1 17-11.1 4.7-3 8.9-5.7 9.5-6.2 0.6-0.4 5.1-3.3 10-6.5 4.9-3.1 9.4-6 10-6.5 0.6-0.4 5.1-3.3 10-6.5 4.9-3.1 9.4-6 10-6.5 0.6-0.4 5.1-3.3 10-6.4 4.9-3.2 9.2-6 9.5-6.4 0.3-0.3 1.6-1.2 3-1.9 1.4-0.8 8.1-5 15-9.5 6.9-4.5 21.4-13.8 32.2-20.8l19.8-12.7 0.1-113.5c-136.5-88.7-176.2-114.5-176.4-114.4-0.1 0-39.7 25.8-88 57.2zm88.4-19c0.4 0.1 29.7 19.1 65.3 42.2 35.5 23.1 64.6 42.2 64.6 42.5 0 0.3-6.2 4.5-13.8 9.4-7.5 4.9-17.3 11.3-29.7 19.5l-19.3-12.5c-10.5-6.8-19.6-12.4-20.2-12.4-0.6 0-1.1-0.4-1.3-0.8-0.1-0.4-8.8-6.3-19.2-13-10.4-6.7-19.4-12.5-20-13-0.6-0.4-2.2-1.5-6.5-4.2l-16.8 10.9c-9.2 6-21 13.7-26.2 17.1-5.2 3.3-17 11-43 28l-2.8-1.7c-1.5-1-7.3-4.8-13-8.5-5.6-3.8-10.6-6.8-11.2-6.8-0.6 0-1.1-0.3-1.3-0.8-0.1-0.4-3.7-3-7.9-5.7-4.3-2.8-7.8-5.2-7.8-5.5 0-0.3 29.2-19.5 64.8-42.7 35.6-23.1 65-42 65.3-42zm-0.3 95.8c0.1-0.1 6.6 4.1 14.5 9.1 7.8 5.1 20.4 13.4 28 18.3 7.5 4.9 13.7 9.2 13.7 9.5 0 0.3-7.3 5.3-16.3 11.1-8.9 5.9-21.5 14.1-39.7 25.9l-6.2-4c-3.5-2.2-6.7-4.3-7.3-4.7-0.6-0.5-4.8-3.3-9.5-6.2-4.7-3-13.2-8.5-19-12.3-5.8-3.8-11.4-7.5-14.5-9.8l2-1.5c1.1-0.8 6.5-4.4 12-8 5.5-3.6 10.1-6.5 10.3-6.5 0.1 0 3.9-2.5 8.5-5.5 4.5-3 8.9-5.9 9.7-6.5 0.8-0.5 4.2-2.7 7.5-4.9 3.3-2.2 6.1-4 6.3-4zm-142.9 19.1c0.4 0.1 6.7 4.1 13.9 8.8 7.2 4.7 13.2 8.7 13.2 9 0 0.3-6 4.3-13.2 9-7.2 4.7-13.5 8.6-14 8.7-0.4 0.2-0.7-7.8-0.7-17.8 0.1-9.9 0.4-17.9 0.8-17.7zm286.3-0.1c0.5-0.1 0.8 8 0.8 17.9 0 9.9-0.4 17.9-0.8 17.7-0.5-0.1-6.8-4-14-8.7-7.2-4.7-13.1-8.7-13.1-9 0-0.3 5.9-4.4 13.2-9.2 7.3-4.7 13.5-8.7 13.9-8.7zm-227.8 38.2c1.2 0.6 7.9 4.9 15.1 9.5 7.1 4.7 16.1 10.5 20 13 3.8 2.5 12.8 8.4 20 13 7.1 4.7 16.7 10.9 21.2 13.8 8.2 5.4 8.3 5.4 11 3.7 1.6-0.9 3.2-2 3.8-2.5 0.5-0.4 5.5-3.7 11-7.3 5.5-3.6 10.1-6.5 10.2-6.5 0.2 0 4.2-2.6 9-5.8 4.9-3.1 9.2-6 9.8-6.4 0.5-0.4 5.7-3.8 11.5-7.6 5.8-3.7 14.4-9.3 28-18.2l9.7 6.3c5.4 3.4 15.3 9.8 22 14.2 6.8 4.4 12.3 8.2 12.3 8.5 0 0.3-4.3 3.3-9.7 6.8-5.4 3.5-14.3 9.3-19.8 12.8-5.5 3.6-17.5 11.4-26.8 17.5-9.2 6-17.2 10.9-17.7 10.9-0.6 0-1.1 0.3-1.3 0.7-0.1 0.5-3.3 2.9-7.2 5.4-3.9 2.5-11.7 7.7-17.5 11.4-5.8 3.8-14.9 9.7-30 19.5l-15.1-9.8c-8.2-5.3-20.1-13-26.2-17-6.2-4-11.7-7.6-12.2-8-0.6-0.4-5.1-3.3-10-6.4-5-3.2-9.5-6.1-10-6.6-0.6-0.4-5.3-3.4-10.5-6.7-5.2-3.3-9.7-6.2-10-6.5-0.3-0.3-4.3-3-9-6-4.7-2.9-12.6-8.1-17.7-11.4-5.1-3.4-9.2-6.3-9.3-6.6 0-0.3 6.6-4.8 14.7-10 8.1-5.2 17.9-11.6 21.7-14.1 5.8-3.9 7.3-4.5 9-3.6z" fill="#000"/></svg>