<svg version="1.2" xmlns="http://www.w3.org/2000/svg" viewBox="0 0 181 61" width="180" height="61"><style></style><path fill-rule="evenodd" d="m50.6 10.8l0.1 0.1c11.4 11 11.9 29.2 1 40.7-11 11.5-29.2 12-40.7 1h-0.1l-10.5-10 14.9-15.7 7.7 7.3 9.9-10.5-7.6-7.3 14.8-15.6zm-6.2 20.1c-0.2 0.2-0.7 0.5-0.9 0.6-0.3 0.2-1.3 1.2-2.2 2.1l-1.8 1.8q0.9 0 1.3 0.1c0.4 0 0.9 0.2 1.3 0.3l0.6 0.2c2-2 2.7-2.6 2.9-2.7 0.2-0.1 0.5-0.2 1-0.2 0.7 0 0.9 0.1 1.1 0.2 0.2 0.1 0.5 0.3 0.7 0.5 0.2 0.2 0.4 0.5 0.5 0.6 0.1 0.3 0.1 0.5 0.1 1.1 0 0.6 0 0.8-0.2 1.1-0.1 0.2-1.4 1.6-2.9 3.1-2.4 2.4-2.8 2.8-3.2 2.9-0.2 0.1-0.6 0.2-0.9 0.2-0.3 0-0.6-0.1-0.8-0.1-0.2-0.1-0.5-0.3-0.7-0.4-0.2-0.2-0.5-0.3-0.6-0.3-0.2 0-0.4 0.2-1 0.7-0.4 0.4-0.8 0.8-0.8 0.9 0 0.1 0.3 0.3 0.5 0.5 0.3 0.2 0.8 0.6 1.1 0.7 0.3 0.2 0.8 0.4 1.1 0.5 0.4 0.1 0.8 0.1 1.5 0.1 0.6 0 1-0.1 1.4-0.3 0.3-0.1 0.8-0.3 1-0.5 0.3-0.1 1.6-1.4 3.2-2.9 1.5-1.5 2.8-2.9 3-3.2 0.2-0.3 0.5-0.7 0.6-1 0.2-0.3 0.3-0.8 0.4-1.1 0-0.4 0-0.9 0-1.3 0-0.3-0.1-0.9-0.2-1.2-0.2-0.3-0.4-0.9-0.7-1.3-0.2-0.3-0.6-0.8-0.9-1-0.3-0.2-0.8-0.5-1.1-0.7-0.3-0.1-0.8-0.3-1.1-0.3-0.3-0.1-0.8-0.2-1.1-0.2-0.3 0-0.8 0.1-1.1 0.2-0.2 0-0.7 0.2-1.1 0.3zm-6.8 6.9c-0.2 0.1-0.6 0.3-0.9 0.5-0.3 0.3-1.7 1.6-3.1 3.1-1.6 1.5-2.8 2.8-3 3.1-0.2 0.3-0.4 0.8-0.5 1.2-0.2 0.5-0.2 0.8-0.2 1.5 0 0.8 0 1.1 0.2 1.6 0.1 0.4 0.4 0.9 0.6 1.3 0.3 0.4 0.7 0.8 1 1.1 0.2 0.2 0.7 0.5 0.9 0.6 0.2 0.1 0.6 0.3 0.9 0.3 0.3 0.1 0.7 0.2 1.4 0.2 0.9 0 1.1 0 1.6-0.2 0.4-0.1 0.9-0.4 1.2-0.7 0.4-0.2 1.3-1 2.5-2.2l1.8-1.8c-0.6 0-1-0.1-1.3-0.1-0.3-0.1-0.8-0.2-1.2-0.3l-0.7-0.2c-2 2-2.6 2.6-2.8 2.7-0.2 0.1-0.6 0.2-1 0.2-0.4 0-0.7 0-1-0.2-0.2 0-0.5-0.3-0.7-0.5-0.2-0.1-0.5-0.4-0.6-0.7-0.1-0.2-0.2-0.4-0.2-1.1 0-0.6 0.1-0.8 0.2-1.1 0.1-0.2 1.4-1.5 3-3.1 2.3-2.3 2.8-2.7 3.1-2.9 0.3-0.1 0.7-0.1 0.9-0.1 0.3 0 0.7 0 0.9 0.1 0.1 0.1 0.5 0.2 0.7 0.4 0.2 0.2 0.4 0.3 0.6 0.3 0.1 0 0.4-0.2 0.9-0.8 0.5-0.4 0.8-0.8 0.8-0.8 0-0.1-0.2-0.3-0.5-0.6-0.3-0.2-0.7-0.5-1-0.7-0.4-0.1-0.8-0.3-1.1-0.4-0.3-0.1-0.8-0.1-1.3-0.1-0.4 0-1 0-1.2 0.1-0.3 0.1-0.7 0.2-0.9 0.3z"/><path  d="m70.2 33v-19.7h12.4v3.8h-7.8v3.7h7.3v3.8h-7.3v4.6h8v3.8zm25.9-12.6v-8h4.3v20.6h-4.3v-2.1q-0.9 1.3-1.9 1.9-1.1 0.6-2.5 0.6-2.4 0-4-2.2-1.6-2.2-1.6-5.6 0-3.4 1.6-5.6 1.6-2.1 4-2.1 1.4 0 2.5 0.6 1 0.6 1.9 1.9zm-2.8 9.5q1.4 0 2.1-1.1 0.7-1.1 0.7-3.2 0-2.1-0.7-3.2-0.7-1.1-2.1-1.1-1.3 0-2.1 1.1-0.7 1.1-0.7 3.2 0 2.1 0.7 3.2 0.8 1.1 2.1 1.1zm10.9-4.8v-11.8h4.6v11.8q0 2.4 0.7 3.5 0.8 1 2.4 1 1.6 0 2.3-1 0.8-1.1 0.8-3.5v-11.8h4.6v11.8q0 4.2-1.9 6.2-1.9 2.1-5.8 2.1-3.9 0-5.8-2.1-1.9-2-1.9-6.2zm24.6-3.1h2q1.4 0 2-0.6 0.6-0.6 0.6-1.9 0-1.4-0.6-2-0.6-0.5-2-0.5h-2zm1.3 3.5h-1.3v7.4h-4.6v-19.7h7q3.5 0 5.2 1.3 1.6 1.3 1.6 4.2 0 1.9-0.8 3.2-0.9 1.2-2.6 1.8 0.9 0.3 1.7 1.1 0.7 0.8 1.5 2.5l2.5 5.6h-4.9l-2.2-4.9q-0.6-1.4-1.3-2-0.7-0.5-1.8-0.5zm12.1 7.4v-19.7h4.6v15.9h8.1v3.8z"/><path  d="m69.9 49v-8.2h5.2v1.6h-3.3v1.5h3.1v1.6h-3.1v1.9h3.4v1.6zm10.3-2.8h-0.9q-0.6 0-0.8 0.2-0.3 0.2-0.3 0.7 0 0.3 0.2 0.5 0.2 0.2 0.6 0.2 0.5 0 0.9-0.3 0.3-0.4 0.3-1zm1.8-0.8v3.5h-1.8v-0.9q-0.3 0.6-0.8 0.8-0.4 0.3-1.1 0.3-0.8 0-1.4-0.6-0.5-0.5-0.5-1.4 0-1.1 0.7-1.6 0.6-0.5 2.1-0.5h1v-0.2q0-0.4-0.3-0.7-0.4-0.2-1-0.2-0.6 0-1.1 0.1-0.5 0.2-0.9 0.4v-1.5q0.5-0.1 1.1-0.2 0.6-0.1 1.2-0.1 1.5 0 2.1 0.7 0.7 0.6 0.7 2.1zm6.1-2.4v1.5q-0.5-0.3-1.1-0.4-0.5-0.2-1-0.2-0.5 0-0.7 0.2-0.3 0.1-0.3 0.4 0 0.2 0.2 0.4 0.2 0.1 0.7 0.1l0.3 0.1q1.4 0.2 1.8 0.6 0.5 0.5 0.5 1.4 0 1-0.6 1.5-0.7 0.5-2 0.5-0.5 0-1.1-0.1-0.6-0.1-1.2-0.3v-1.5q0.5 0.3 1.1 0.4 0.5 0.2 1.1 0.2 0.5 0 0.8-0.2 0.2-0.1 0.2-0.5 0-0.2-0.2-0.3-0.1-0.2-0.7-0.3h-0.3q-1.2-0.2-1.6-0.6-0.5-0.5-0.5-1.4 0-0.9 0.6-1.4 0.6-0.5 1.8-0.5 0.5 0 1.1 0.1 0.5 0.1 1.1 0.3zm3.5 6.2l-2.5-6.4h1.8l1.4 4.1 1.3-4.1h1.8l-2.4 6.7q-0.3 1-0.8 1.5-0.4 0.4-1.2 0.4h-1v-1.3h0.5q0.5 0 0.7-0.2 0.2-0.2 0.3-0.6zm8.3-3.5v-4.9h1.9v4.9q0 1 0.3 1.5 0.3 0.4 1 0.4 0.7 0 1-0.4 0.3-0.5 0.3-1.5v-4.9h1.9v4.9q0 1.7-0.8 2.6-0.8 0.9-2.4 0.9-1.6 0-2.4-0.9-0.8-0.9-0.8-2.6zm9.9-1.3h0.8q0.6 0 0.9-0.2 0.3-0.3 0.3-0.8 0-0.6-0.3-0.8-0.3-0.3-0.9-0.3h-0.8zm0.6 1.5h-0.6v3.1h-1.9v-8.2h2.9q1.5 0 2.2 0.5 0.7 0.6 0.7 1.7 0 0.9-0.4 1.4-0.3 0.5-1 0.7 0.3 0.1 0.6 0.5 0.4 0.3 0.7 1.1l1 2.3h-2l-0.9-2.1q-0.3-0.6-0.6-0.8-0.3-0.2-0.7-0.2zm5.5 3.1v-8.2h1.9v6.6h3.4v1.6zm14.2-6v1.5q-0.5-0.2-1.1-0.4-0.5-0.1-1-0.1-0.5 0-0.7 0.1-0.2 0.2-0.2 0.5 0 0.2 0.1 0.3 0.2 0.1 0.7 0.2l0.3 0.1q1.4 0.2 1.8 0.6 0.5 0.4 0.5 1.4 0 1-0.6 1.5-0.7 0.4-2 0.4-0.5 0-1.1 0-0.6-0.1-1.2-0.3v-1.5q0.5 0.3 1.1 0.4 0.5 0.1 1.1 0.1 0.5 0 0.8-0.1 0.2-0.2 0.2-0.5 0-0.3-0.1-0.4-0.2-0.1-0.8-0.2h-0.3q-1.2-0.2-1.6-0.6-0.5-0.5-0.5-1.4 0-1 0.6-1.5 0.6-0.4 1.8-0.4 0.5 0 1.1 0.1 0.5 0 1.1 0.2zm7.3 2.2v3.8h-1.8v-0.6-2.3q0-0.8 0-1.1-0.1-0.3-0.1-0.4-0.1-0.2-0.3-0.3-0.2-0.1-0.4-0.1-0.6 0-0.9 0.4-0.3 0.5-0.3 1.4v3h-1.8v-8.6h1.8v3.3q0.4-0.5 0.8-0.8 0.5-0.2 1-0.2 1 0 1.5 0.6 0.5 0.7 0.5 1.9zm4.1-1.1q-0.6 0-0.9 0.5-0.4 0.4-0.4 1.3 0 0.9 0.4 1.4 0.3 0.4 0.9 0.4 0.5 0 0.8-0.4 0.3-0.5 0.3-1.4 0-0.9-0.3-1.3-0.3-0.5-0.8-0.5zm0-1.4q1.4 0 2.2 0.8 0.8 0.9 0.8 2.4 0 1.5-0.8 2.4-0.8 0.8-2.2 0.8-1.5 0-2.3-0.8-0.8-0.9-0.8-2.4 0-1.5 0.8-2.4 0.8-0.8 2.3-0.8zm8.4 0v1.8q-0.2-0.1-0.4-0.2-0.3 0-0.5 0-0.7 0-1 0.5-0.4 0.4-0.4 1.3v2.9h-1.8v-6.2h1.8v1q0.3-0.6 0.8-0.8 0.4-0.3 1-0.3 0.1 0 0.2 0 0.1 0 0.3 0zm1.1-1.6h1.8v1.7h1.8v1.4h-1.8v2.6q0 0.5 0.1 0.6 0.2 0.2 0.6 0.2h0.9v1.4h-1.5q-1 0-1.5-0.5-0.4-0.5-0.4-1.7v-2.6h-0.9v-1.4h0.9zm10.4 4.8v0.6h-4.2q0.1 0.7 0.5 1 0.3 0.4 1 0.4 0.6 0 1.2-0.2 0.6-0.2 1.2-0.6v1.6q-0.6 0.2-1.3 0.4-0.6 0.1-1.2 0.1-1.5 0-2.4-0.8-0.8-0.9-0.8-2.4 0-1.5 0.8-2.4 0.8-0.9 2.3-0.9 1.3 0 2.1 0.9 0.8 0.9 0.8 2.3zm-4.2-0.6h2.3q0-0.6-0.3-0.9-0.3-0.4-0.7-0.4-0.6 0-0.9 0.4-0.3 0.3-0.4 0.9zm11.2 0v3.7h-1.8v-0.6-2.2q0-0.8 0-1.1-0.1-0.3-0.1-0.5-0.1-0.2-0.3-0.3-0.2-0.1-0.4-0.1-0.6 0-0.9 0.5-0.3 0.5-0.3 1.3v3h-1.8v-6.1h1.8v0.9q0.4-0.6 0.8-0.8 0.5-0.3 1-0.3 1 0 1.5 0.7 0.5 0.6 0.5 1.9zm7 0.6v0.6h-4.2q0.1 0.7 0.5 1 0.3 0.4 1 0.4 0.6 0 1.2-0.2 0.6-0.2 1.2-0.6v1.6q-0.6 0.2-1.3 0.4-0.6 0.1-1.2 0.1-1.5 0-2.4-0.8-0.8-0.9-0.8-2.4 0-1.5 0.8-2.4 0.8-0.9 2.3-0.9 1.3 0 2.1 0.9 0.8 0.9 0.8 2.3zm-4.2-0.6h2.3q0-0.6-0.3-0.9-0.3-0.4-0.7-0.4-0.6 0-0.9 0.4-0.3 0.3-0.4 0.9zm9.7-2.5v1.8q-0.2-0.2-0.4-0.2-0.3-0.1-0.5-0.1-0.7 0-1 0.5-0.4 0.5-0.4 1.4v2.8h-1.8v-6.1h1.8v1q0.3-0.6 0.8-0.9 0.4-0.3 1-0.3 0.1 0 0.2 0 0.1 0 0.3 0.1z"/></svg>