<svg version="1.2" xmlns="http://www.w3.org/2000/svg" viewBox="0 0 512 636" width="512" height="636">
	<style>
		.s0 { fill: #000000 } 
	</style>
	<path id="hand" class="s0" d="m134.32 224.79c-1.94 0.87-5.86 3.31-8.7 5.41-2.85 2.1-6.85 6.1-8.9 8.91-2.05 2.8-4.49 7.73-5.42 10.97-0.93 3.23-1.91 8.65-2.18 12.05-0.26 3.39-0.29 7.28-0.05 8.63 0.23 1.36 1.48 4.8 2.78 7.64 1.29 2.85 6.77 13.08 12.17 22.75 5.41 9.67 23.62 41.67 40.47 71.11 16.84 29.45 34.24 60 38.66 67.88 4.42 7.88 7.81 14.49 7.54 14.67-0.27 0.19-2.01 0.14-3.87-0.1-1.86-0.24-6.48 0.09-10.27 0.75-5.85 1.02-7.78 1.86-12.68 5.53-3.26 2.43-6.93 6.29-8.41 8.84-1.44 2.48-3.33 6.92-4.19 9.86-1.42 4.85-1.37 6.53 0.63 17.91 2.1 12.01 2.42 12.95 7.45 21.54 2.89 4.94 8.1 13.06 11.57 18.03 3.48 4.98 9.98 13.44 14.44 18.81 4.46 5.36 12.47 14.24 17.79 19.74 5.33 5.49 14.6 13.83 20.6 18.52 6.01 4.7 15.54 11.45 21.18 15 5.64 3.55 14.21 8.16 19.04 10.25 4.83 2.08 14.24 5.62 20.91 7.87 6.67 2.25 13.39 4.15 14.94 4.22 1.71 0.08 3.97-0.71 5.74-2.01 1.61-1.18 3.22-3.11 3.57-4.29 0.35-1.18 0.33-3.92-0.04-6.08-0.53-3.04-1.44-4.45-3.96-6.17-1.8-1.22-9.71-4.52-17.58-7.34-7.88-2.82-17.67-6.81-21.76-8.87-4.09-2.06-13.42-7.98-20.74-13.15-7.96-5.63-17.11-13.24-22.75-18.92-5.18-5.22-11.85-12.28-14.82-15.67-2.96-3.39-9.43-11.63-14.36-18.31-4.94-6.67-10.87-15.23-13.18-19.02-2.31-3.78-5.2-9.45-6.43-12.58-1.23-3.14-2.26-7.41-2.28-9.5-0.03-2.09 0.52-5.1 1.22-6.69 0.7-1.59 2.39-3.71 3.75-4.72 1.36-1 3.36-1.97 4.45-2.16 1.08-0.19 6.09 1.8 11.14 4.41 5.04 2.61 11.82 6.57 15.06 8.79 5.49 3.78 6.64 5.3 17.02 22.42 6.13 10.1 12.55 20.28 14.27 22.64 2.03 2.77 4.35 4.64 6.61 5.31 2.77 0.82 4.14 0.7 6.74-0.61 1.8-0.9 3.9-2.58 4.67-3.72 0.77-1.15 1.4-3.68 1.4-5.63 0-2.85-2.3-7.56-11.64-23.86-6.4-11.17-34.9-60.79-63.34-110.27-28.44-49.48-56.23-98.32-61.77-108.52-8.7-16.03-10.08-19.16-10.19-23.09-0.07-2.5 0.69-6.4 1.67-8.67 0.99-2.26 3.27-5.5 5.07-7.2 1.8-1.7 5.22-3.71 7.6-4.47 2.38-0.77 6.29-1.23 8.7-1.03 2.8 0.23 6.16 1.6 9.32 3.81 4.47 3.12 6.04 5.36 16.34 23.29 6.27 10.91 28.41 49.54 49.21 85.84 20.79 36.29 39.6 68.53 41.8 71.64 3.04 4.31 4.8 5.84 7.43 6.46 2.41 0.56 4.27 0.38 6.24-0.61 1.54-0.77 3.63-2.57 4.64-3.99 1.01-1.42 1.86-3.95 1.89-5.63 0.03-2.2-2.75-8.13-9.9-21.12-8.17-14.84-9.96-18.78-10.03-22.1-0.05-2.23 0.85-6.04 2-8.47 1.14-2.43 3.42-5.8 5.05-7.48 2.56-2.63 4.04-3.24 10.53-4.37 6.82-1.19 8.01-1.1 12.34 0.95 3.18 1.5 6 3.91 8.38 7.17 1.97 2.7 8.3 13.22 14.07 23.38 5.77 10.16 11.91 20.51 13.64 23 2.05 2.96 4.39 4.98 6.74 5.81 3.06 1.09 4.12 1.02 7.09-0.47 1.93-0.97 4.2-3.13 5.04-4.81 0.84-1.69 1.28-4.39 0.97-6.01-0.31-1.62-4.58-10.36-9.5-19.41-4.92-9.05-9.16-17.68-9.43-19.17-0.26-1.48-0.48-4.07-0.47-5.75 0.01-1.68 1.33-5.28 2.93-8.01 1.61-2.73 4.54-6.16 6.52-7.61 2.93-2.16 4.81-2.75 10.1-3.19 5.19-0.43 7.31-0.09 10.45 1.7 2.17 1.24 5.37 4.01 7.1 6.17 1.74 2.16 8.93 13.89 15.99 26.06 7.05 12.17 13.65 23.01 14.66 24.09 1.01 1.08 3.28 2.4 5.04 2.93 2.39 0.72 4 0.58 6.26-0.52 1.67-0.81 4.02-3.05 5.22-4.96 1.2-1.92 2.06-4.27 1.9-5.22-0.16-0.95-2.02-4.85-4.13-8.67-2.11-3.82-4.3-9.15-4.86-11.84-0.74-3.53-0.58-6.37 0.59-10.17 1.03-3.35 2.97-6.57 5.32-8.8 2.04-1.93 5.09-4.05 6.79-4.71 2.35-0.92 4.12-0.8 7.38 0.49 2.35 0.93 5.52 2.85 7.03 4.26 1.52 1.41 4.03 4.85 5.59 7.65 1.57 2.8 5.23 11.98 8.14 20.41 2.91 8.42 6.81 20.99 8.67 27.93 2.14 8.01 4.38 19.83 6.14 32.42 1.52 10.9 3.13 24.33 3.58 29.83 0.44 5.51 1.82 15.77 3.07 22.81 1.24 7.04 3.24 16.62 4.43 21.28 2.01 7.86 2.43 8.66 5.94 11.14 3.04 2.15 4.58 2.54 7.79 1.98 3.27-0.57 4.43-1.38 6.32-4.4l2.32-3.7c-7.01-38.04-8.69-50.13-9.2-58.8-0.43-7.27-2.24-21.35-4.08-31.77-1.81-10.29-4.79-23.93-6.62-30.31-1.82-6.38-5.89-18.92-9.03-27.87-3.15-8.94-7.17-18.74-8.95-21.78-1.78-3.04-4.66-7.11-6.4-9.04-1.73-1.93-6.05-5.49-9.59-7.9-3.53-2.42-8.57-4.91-11.19-5.54-2.62-0.63-7.25-0.94-10.27-0.69q-5.51 0.45-11.6 3.37c-3.35 1.61-8.24 4.96-10.88 7.43-2.64 2.48-5.34 5.38-5.99 6.45-0.65 1.08-1.52 1.99-1.93 2.04-0.41 0.04-0.85-0.47-0.98-1.14-0.14-0.68-2.17-3.81-4.51-6.96-2.49-3.33-6.92-7.51-10.59-9.98-3.48-2.34-8.96-4.95-12.18-5.8-3.22-0.85-8.6-1.61-11.97-1.69-4.58-0.11-7.67 0.41-12.33 2.06-3.41 1.21-8.64 3.99-11.61 6.16-2.97 2.17-7.38 6.37-9.8 9.33l-4.39 5.37c-11.4-6.29-16.59-8.14-20.82-8.81-4.63-0.72-9.13-0.65-14.17 0.22-4.74 0.83-9.21 2.31-12.48 4.12-2.8 1.56-7.64 5.26-10.75 8.23-3.11 2.97-5.99 5.44-6.4 5.49-0.41 0.06-2.12-2.29-3.79-5.21-1.68-2.92-12.51-21.7-24.07-41.74-11.56-20.04-25.7-44.45-31.42-54.25-8.07-13.8-11.57-18.85-15.53-22.42-2.81-2.53-7.4-5.69-10.19-7.02-2.79-1.33-7.28-2.87-9.98-3.42-2.89-0.59-8.39-0.56-13.35 0.07-4.64 0.6-10.03 1.8-11.97 2.68z"/>
	<path id="arrow" class="s0" d="m64.67 141.18c-3.09 1.45-14.93 7.82-26.32 14.17-11.38 6.34-23.47 13.15-26.87 15.12-3.54 2.07-6.75 4.77-7.53 6.36-0.75 1.52-1.28 4.17-1.17 5.89 0.12 1.74 1.47 4.46 3.05 6.14 1.56 1.66 3.71 3.22 4.78 3.47 1.08 0.25 4-0.37 6.5-1.39 2.5-1.02 11.07-5.48 19.04-9.92 7.97-4.44 14.6-8.04 14.73-8.01 0.14 0.03-2.71 14.04-6.31 31.13-3.61 17.09-8.04 41.13-9.85 53.42-1.81 12.29-3.94 28.2-4.73 35.36-0.8 7.16-2.04 20.5-2.76 29.66-0.73 9.15-1.53 24.45-1.78 34-0.26 9.54-0.18 23.9 0.17 31.89 0.35 7.99 1.28 19.02 2.07 24.5 0.79 5.47 2.39 11.78 3.56 14.01 1.56 2.97 3.13 4.44 5.9 5.5 3.21 1.23 4.31 1.14 7.48-0.62 2.04-1.13 4.34-3.3 5.1-4.82 1.07-2.12 1.01-5.22-0.25-13.41-0.9-5.87-1.96-16.06-2.36-22.65-0.41-6.6-0.63-18.44-0.49-26.32 0.13-7.88 0.65-20.94 1.16-29.01 0.5-8.08 1.57-21.46 2.38-29.75 0.81-8.28 2.29-21.57 3.29-29.53 1-7.96 4.03-25.74 6.74-39.51 2.72-13.77 6.82-33.15 9.13-43.05l4.2-18.02c6.9 12.77 12.25 22.01 16.34 28.75 6.17 10.19 7.94 12.39 10.36 12.95 1.61 0.37 4.55 0.15 6.54-0.49 2.39-0.78 4.33-2.37 5.74-4.71 1.98-3.31 2-3.82 0.35-7.88-0.97-2.39-6.68-13.36-12.69-24.39-6.01-11.02-13.59-24.49-16.86-29.91-5.29-8.79-6.33-9.97-9.49-10.72-2.66-0.64-4.95-0.19-9.15 1.79z"/>
</svg>