<svg version="1.2" xmlns="http://www.w3.org/2000/svg" viewBox="0 0 997 997" width="100" height="100"><style>.a{fill: #83c2c1}</style><path fill-rule="evenodd" class="a" d="m130.5 147.9c-1.6 0.4-4.8 1.7-7 2.8-2.2 1.1-5.5 3.8-7.4 5.9-1.9 2.2-4.3 5.7-5.3 7.9-1.6 3.8-1.8 9.3-1.8 92 0 67 0.3 88.9 1.3 91.9 0.6 2.2 3.2 6.2 5.7 8.9 2.5 2.7 6.3 5.9 8.5 7.1 4 2.1 4.4 2.1 101.5 2.4 84 0.2 98.1 0 102-1.3 2.5-0.8 6.5-3.1 8.9-5.2 2.4-2.1 5.6-5.8 7-8.3l2.6-4.5c0.5-169.5 0.4-177.4-1.2-182-1-3.1-3.3-6.6-6-9.3-2.4-2.3-6.4-5.2-9.1-6.5l-4.7-2.2c-148.8-0.2-193.4 0-195 0.4zm539 0c-1.7 0.4-4.8 1.7-7 2.8-2.2 1.1-5.9 4.2-8.3 6.9-2.6 3-4.9 6.8-5.8 9.9-1.2 4.2-1.4 16.8-1.4 75 0 59.4 0.2 70.8 1.5 75.2 1.1 4 2.9 6.7 7.3 11.2 4.5 4.7 6.8 6.2 11.2 7.5 4.9 1.4 16.2 1.6 98.5 1.6 77.8 0 93.8-0.2 98-1.4 2.8-0.8 7-2.9 9.4-4.8 2.4-1.8 5.8-5.8 7.5-8.8l3.1-5.5c0.5-134.8 0.3-146.7-0.9-150.5-0.8-2.5-3.5-6.8-5.9-9.5-2.7-3.1-6.4-6-9.8-7.5l-5.4-2.5c-146.5-0.3-190.3 0-192 0.4zm-207.5 128.7c-1.9 0.2-6.4 0.9-10 1.5-3.6 0.5-10.3 2.1-15 3.5-4.7 1.4-12.5 4.6-17.5 7.1-5 2.5-11.7 6.4-15 8.8-3.3 2.3-8.5 6.9-11.6 10.1-3 3.3-7.5 8.8-9.9 12.4-2.4 3.6-6.1 10.1-8.1 14.5-2.1 4.4-4.9 11.8-6.2 16.5-1.4 4.7-3.1 12.1-3.8 16.5-0.7 4.4-1.3 15.6-1.3 25 0 9.4 0.6 20.6 1.3 25 0.7 4.4 2.1 11.8 3.2 16.5 1.6 6.7 1.7 8.6 0.7 8.9-0.7 0.3-2.8 1.9-4.6 3.5-2 1.9-4 5.1-4.9 8.1-1.2 3.9-1.5 7.4-1 16 0.4 6.9 1.6 14.8 3.2 21 1.4 5.5 4 12.9 5.8 16.4 1.8 3.5 5.2 8.3 7.7 10.6 2.5 2.3 6.8 5 9.6 6.1l5.2 1.9c3.3 14.7 5.7 22.6 7.5 27 1.7 4.4 5.4 11.6 8.2 16 2.7 4.4 7.1 10.6 9.7 13.8l4.8 5.7c-0.5 38.1-0.5 38.1-3 40.1-1.4 1-6.5 3.9-11.5 6.3-5 2.5-21.4 9-36.5 14.5-15.1 5.4-39 14.2-53 19.4-14 5.3-30.2 11.5-36 14-5.8 2.5-13 5.9-16 7.7-3 1.8-8.2 5.1-11.5 7.5-3.3 2.3-9.5 8-13.8 12.6-4.3 4.6-10 12-12.6 16.4-2.6 4.4-5.9 10.9-7.4 14.5-1.5 3.6-3.6 9.9-4.7 14-1.1 4.1-6.5 25.5-11.9 47.5-5.5 22-12.7 50.4-16 63-4.6 17.7-5.7 23.3-4.8 24.3 0.7 0.7 2 1.2 3 1.2 0.9 0 2-1 2.3-2.2 0.4-1.3 3.1-11.8 6-23.3 3-11.5 10.4-40.8 16.4-65 6.1-24.2 12-46.9 13.2-50.5 1.1-3.6 3.6-9.6 5.6-13.5 1.9-3.9 5.6-9.9 8.3-13.5 2.6-3.6 7.2-8.8 10.1-11.6 2.9-2.8 7.3-6.7 9.8-8.6 2.5-1.9 7.6-5.3 11.5-7.6 3.9-2.2 14.6-7.1 24-10.7 9.4-3.7 23.8-9.2 32-12.2 8.3-3 28.2-10.4 44.3-16.4 16-6 29.7-10.9 30.2-10.9 0.5 0 2.3 2.1 3.9 4.7 1.6 2.7 6.5 8.2 10.8 12.3 4.3 4.1 11.4 9.7 15.8 12.5 4.4 2.7 12.7 7.1 18.5 9.6 5.8 2.6 13.9 5.7 18 6.8 4.1 1.2 11.1 2.7 15.5 3.4 4.4 0.7 13 1.4 19 1.6 6.4 0.1 15.4-0.4 21.5-1.4 5.8-0.8 14.5-2.9 19.5-4.6 5-1.7 13-5.1 18-7.7 5-2.6 12.8-7.5 17.5-10.8 4.7-3.4 10.5-8.3 12.9-11 2.4-2.7 6.1-7.7 8.3-11.2 3.5-5.8 4-6.1 6.1-5 1.2 0.6 9 3.5 17.2 6.4 8.3 2.8 30.5 10.8 49.5 17.7 19 6.8 38.8 14.1 44 16.2 5.2 2.1 12.2 5.1 15.5 6.8 3.3 1.6 8.7 4.8 12 7 3.3 2.2 9.1 7 12.8 10.6 3.8 3.6 8.9 9.3 11.4 12.6 2.5 3.3 6.3 9.5 8.4 13.8 2.2 4.2 5 11.6 6.4 16.4 1.4 4.9 4.6 17.6 7.1 28.3 2.5 10.7 6.1 25.6 7.9 33 1.9 7.4 6.8 27.5 10.9 44.5 4.6 18.8 8.1 31.5 9.1 32.3 0.8 0.6 2.2 1 3 0.7 0.8-0.3 1.5-1.3 1.5-2.2 0-1-4.7-20.9-10.4-44.3-5.7-23.4-12.5-51.5-15.1-62.5-2.6-11-5.8-24-7.2-29-1.3-5-4.2-12.8-6.4-17.5-2.2-4.7-5.2-10.3-6.7-12.5-1.5-2.2-3.6-5.1-4.7-6.4-1.1-1.4-4.5-5.2-7.5-8.4-3-3.2-8.7-8.3-12.5-11.2-3.8-3-10.4-7.2-14.5-9.4-4.1-2.2-12-5.8-17.5-8-5.5-2.1-17.4-6.6-26.5-9.9-9.1-3.4-33.6-12.2-54.5-19.7-20.9-7.6-41.8-15.3-46.4-17.4-4.6-2-9-4.5-9.8-5.6-1-1.5-1.3-6.5-1.3-19.8v-17.7c8.9-12 13.6-19.5 16.2-24.5 2.5-5 5.7-12.6 7.1-17 1.4-4.4 3-10.7 3.7-14 0.6-3.3 1.3-6.7 1.5-7.5 0.3-0.8 2.1-1.8 4.2-2.2 2.1-0.4 6-2.2 8.8-4 3.6-2.4 6-5.1 8.7-9.8 2.1-3.6 4.6-9.2 5.7-12.5 1.1-3.3 2.7-9.8 3.7-14.5 1.1-4.9 1.8-12.7 1.8-18.5 0.1-8.4-0.3-10.7-2.2-14.3-1.2-2.3-3.4-5.1-4.9-6.2-1.6-1.2-3.5-2.3-4.3-2.5-1.3-0.5-1.2-2 0.7-12.3 1.3-6.4 2.7-16.9 3.3-23.2 0.6-7.6 0.6-15.4-0.1-23-0.5-6.3-1.6-14.4-2.3-18-0.8-3.6-2.6-9.6-4.1-13.5-1.6-3.9-4.5-9.5-6.5-12.5-2-3-6-7.8-8.9-10.5-2.8-2.8-7.7-6.6-10.9-8.5-3.1-1.9-8.2-4.1-11.2-4.8-5.3-1.2-5.6-1.5-8.5-6.9-1.8-3.3-5.5-7.9-9-11-3.3-3-8.9-6.9-12.5-8.7-3.6-1.9-9.7-4.4-13.5-5.6-3.8-1.2-14.4-3.3-23.5-4.6-12-1.8-22-2.6-36.5-2.9-11-0.2-21.6-0.1-23.5 0.1zm-296 750.1c0 1.6 1.8 35.4 4 75.3 2.2 39.9 4.2 72.6 4.3 72.6 0.1 0.1 21.5 1.3 47.5 2.8 25.9 1.4 47.7 2.8 48.2 3.1 0.5 0.3 0.9 1.3 0.9 2.2-0.1 1-0.1 2.4 0 3 0.1 1 3.7 1.3 14.6 1.3h14.5c0-4.7 0.4-5 3.8-5 2.1-0.1 4.3 0.6 5.2 1.5 0.8 0.9 3.3 2.3 5.5 3.2 2.6 1 5.5 1.3 8.5 0.9 2.5-0.3 5.4-1.3 6.5-2.1 1.2-0.9 4.3-1.4 8-1.4 3.7 0 6.8 0.5 8 1.4 1.1 0.8 3.8 1.7 6 2.1 2.8 0.4 5.1 0 7.8-1.3 2.7-1.3 4-1.5 4.5-0.7 0.5 0.7 4.8 1.1 12.2 1.1 6.3 0 16.9 0.2 23.5 0.5 6.6 0.4 90.8 5.1 187.2 10.5 96.3 5.4 175.5 9.4 176 9 0.4-0.5-3.2-41.4-8-91-4.8-49.6-8.7-90.5-8.7-91 0-0.4-130.5-0.7-290-0.7h-290zm30 224.2v19c4.4-0.4 4.5-0.9 4.7-9.5 0.1-6.5 0.6-9.4 1.7-10.7 0.9-1 2.8-1.8 4.3-1.8 1.6 0 3.6 0.6 4.5 1.3 1.4 1 1.8 3.2 2 10.7 0.3 8.8 0.5 9.5 2.3 9.5 1.8 0 2-0.7 2.3-10 0.3-8.8 0.1-10.3-1.7-12.7-1.4-1.8-3.4-3-5.9-3.4-2.3-0.3-4.7-0.1-6.2 0.8-1.4 0.7-2.7 1.4-3 1.6-0.3 0.1-0.4-2.9-0.3-6.7 0.3-6.9 0.2-7.1-2.2-7.1h-2.5zm300-11.7l-0.1 7.2c-8-3.6-8.8-3.7-12.4-2.4-2.5 0.9-4.8 2.8-6.2 4.9-1.6 2.4-2.3 5-2.3 7.8 0 2.3 0.7 5.6 1.5 7.2 0.8 1.7 2.8 3.7 4.5 4.5 1.6 0.9 4.6 1.5 6.5 1.5 2.2 0 4.3-0.7 5.5-2 1.1-1 2.2-2 2.5-2 0.3 0 0.5 1 0.5 2q0 2 2 2c1.9 0 2-0.6 2-19 0-18.3-0.1-19-2-19-1.8 0-2 0.7-2 7.3zm173.2 0.3c0.1 4.1 0 7.5-0.5 7.5-0.4 0-0.7-0.4-0.7-0.8 0.1-0.4-1.2-1.4-2.7-2.1-1.6-0.8-4.3-1.1-6.3-0.8-1.9 0.3-4.8 1.8-6.3 3.4-1.6 1.5-3.2 4.3-3.7 6.2-0.6 2.2-0.6 5 0 7.3 0.6 2.1 2 4.9 3.2 6.3 1.7 1.9 3.6 2.8 7.2 3.2 3.9 0.4 5.4 0.1 7.7-1.6 2.6-1.9 2.9-2 2.6-0.4q-0.2 1.7 2 2l2.3 0.2v-38c-5.2 0-5.2 0.1-4.8 7.6zm-546.4 10.2c-3.7 9.2-6.9 17.5-7.2 18.5-0.5 1.4 0 1.7 1.9 1.7 2 0 2.9-0.9 4.7-5l2.3-5h16c3.2 9.3 3.9 10 6 10 1.4 0 2.5-0.4 2.5-1 0-0.5-3.2-8.8-7-18.5-6.7-16.7-7.1-17.5-9.8-17.5-2.6 0-3 0.8-9.4 16.8zm114.3-9.8c-0.1 3.6-0.4 4-2.6 4-1.8 0-2.5 0.6-2.5 2 0 1.5 0.7 2 2.5 2 2.5 0 2.5 0.1 2.5 8.5 0 7.8 0.2 8.8 2.5 11q2.5 2.5 5.2 2.3c1.5-0.1 2.9-0.9 3.1-1.8 0.2-0.9-0.7-1.7-2.5-2.1-1.8-0.4-3.1-1.5-3.5-3-0.4-1.3-0.4-5.2 0-8.6 0.7-6 0.8-6.3 3.4-6.3 2.1 0 2.8-0.4 2.8-2 0-1.5-0.7-2-3-2-2.8 0-3-0.3-3.3-3.7-0.2-3-0.6-3.8-2.4-4.1-1.9-0.3-2.2 0.2-2.2 3.8zm73.4-3.3c-0.4 0.4-0.8 2.2-0.7 4 0.2 2.7-0.2 3.3-1.8 3.3q-2 0-2 2 0 2 2 2c1.8 0 2 0.7 2 8.5 0 7.8 0.2 8.8 2.5 11q2.5 2.5 5.2 2.3c1.8-0.2 2.9-0.9 3-2 0.2-1.1-0.3-1.7-1.5-1.7-0.9 0-2.3-0.6-3-1.3-0.8-0.8-1.2-4.1-1.2-9v-7.8c5.3 0 6-0.4 6-2 0-1.5-0.7-2-3-2-2.8 0-3-0.3-3.3-3.7-0.1-2.4-0.7-3.8-1.8-4-0.8-0.2-1.9 0-2.4 0.4zm420.5 3.3c0 3.4-0.3 4-2 4q-2 0-2 2 0 2 2 2c1.8 0 2 0.7 2 8.5 0 7.8 0.2 8.8 2.5 11q2.5 2.5 5.2 2.3c1.8-0.2 2.9-0.9 3-2 0.2-1.1-0.3-1.7-1.5-1.7-0.9 0-2.3-0.6-3-1.3-0.8-0.8-1.2-4.1-1.2-9v-7.8c5.3 0 6-0.4 6-2 0-1.5-0.7-2-3-2-2.8 0-3-0.2-3-3.5 0-2.2-0.5-3.6-1.5-4-0.8-0.2-2-0.5-2.5-0.5-0.6 0-1 1.8-1 4zm118 0c0 3.6-0.3 4-2.5 4-1.8 0-2.5 0.6-2.5 2 0 1.5 0.7 2 2.5 2 2.5 0 2.5 0.1 2.5 8.5 0 7.8 0.2 8.8 2.5 11 1.6 1.6 3.6 2.5 5.5 2.5 2.3 0 3-0.4 3-2 0-1.2-0.7-1.9-1.8-1.9-0.9 0-2.3-0.6-3-1.3-0.8-0.8-1.2-4.1-1.2-9v-7.8c5.3 0 6-0.4 6-2 0-1.5-0.7-2-3-2-2.8 0-3-0.2-3-4 0-3.5-0.3-4-2.5-4-2.3 0-2.5 0.5-2.5 4zm-687 3.8c-0.8 0.3-2.3 1.2-3.3 2.1-1.6 1.5-1.8 1.5-1.7-0.1 0-1.1-0.8-1.8-2-1.8-1.9 0-2 0.7-2 13 0 11.9 0.2 13 1.7 12.8 1.5-0.2 1.9-1.7 2.3-9.1 0.4-7.9 0.8-9 3-10.8 1.4-1.1 3.3-1.9 4.2-1.9 1.3 0 1.7-0.6 1.5-2.1-0.1-1.2-0.7-2.3-1.2-2.4-0.6-0.2-1.7 0-2.5 0.3zm15-0.1c-0.8 0.3-2.5 1-3.8 1.7-1.3 0.6-3.3 3.1-4.5 5.4-1.8 3.6-2 4.9-1.3 8.5 0.6 2.5 2.2 5.4 3.8 7 1.5 1.5 4 3 5.5 3.4 1.6 0.3 4.4 0.3 6.3-0.1 1.9-0.4 4.5-1.7 5.8-2.9 1.2-1.2 2.2-2.7 2.2-3.4 0-0.7-0.7-1.5-1.5-1.8-0.8-0.2-2.6 0.7-4 2-1.4 1.5-3.5 2.5-5.2 2.5-1.5 0-3.3-0.3-3.9-0.7-0.5-0.4-1.8-1.9-2.7-3.3-1-1.3-1.7-3.7-1.7-5.2 0-1.5 0.6-3.9 1.2-5.3 0.7-1.4 2.4-3 3.8-3.6 1.9-0.8 3.3-0.8 5.8 0.3 1.8 0.7 3.5 1.9 3.7 2.6 0.3 0.7 1.2 1.2 2 1.2 0.8 0 1.7-0.4 2-1 0.3-0.5 0-1.9-0.5-3-0.6-1-2.7-2.6-4.8-3.5-2-0.8-4.4-1.5-5.2-1.4-0.8 0.1-2.2 0.3-3 0.6zm80.2 1.4c-1.7 1.1-3.9 3.4-4.8 5.2-1.1 2.1-1.5 4.9-1.3 7.9 0.3 3.5 1.1 5.4 3.4 7.8 1.8 1.8 4.5 3.3 6.5 3.7 1.9 0.3 5.2 0.1 7.2-0.5 2.1-0.6 4.5-2.2 5.3-3.4 0.8-1.2 1.5-2.6 1.5-3 0-0.4-0.8-0.9-1.8-1.1-0.9-0.1-2.7 0.8-4 2-1.3 1.4-3.4 2.3-5.2 2.3-1.7 0-4-0.9-5.4-2.2-1.4-1.2-2.7-3.3-3-4.5-0.6-2.2-0.5-2.3 9.9-2.3 8.7 0 10.5-0.2 10.5-1.5 0-0.8-0.8-3.1-1.8-5.1-0.9-2.1-3.1-4.5-4.7-5.5-1.7-1-4.4-1.8-6-1.8-1.7 0-4.5 0.9-6.3 2zm31.3-1.3c-1.1 0.3-3.1 1.2-4.4 2.1-1.4 0.9-3 3.1-3.8 4.9-0.7 1.8-1.3 4.7-1.3 6.5 0 1.8 0.9 4.7 2 6.5 1.1 1.8 3.6 3.9 5.5 4.7 1.9 0.9 4.6 1.5 6 1.5 1.4 0 3.8-0.6 5.5-1.5 1.6-0.8 3.4-2.4 4-3.5 0.5-1 0.8-2.4 0.5-3-0.3-0.5-1.1-0.9-1.8-0.9-0.6 0-2.2 1.1-3.5 2.5-1.4 1.6-3.3 2.4-5.2 2.4-1.9 0-3.9-0.9-5.5-2.5-1.9-1.8-2.5-3.5-2.5-6.7-0.1-2.9 0.6-5 1.9-6.5 1.1-1.2 3.2-2.5 4.8-2.8 2.1-0.5 3.6 0 6 1.9 1.8 1.5 4 2.4 4.8 2.1 0.8-0.2 1.5-0.9 1.5-1.5 0-0.5-1-1.9-2.3-3-1.2-1.2-3.2-2.5-4.5-3-1.2-0.5-3-0.9-4-0.8-0.9 0-2.6 0.3-3.7 0.6zm74.6 0.4c-1.3 0.5-2.7 1.5-3.2 2.1-0.6 0.9-0.9 0.7-0.9-0.5 0-1.2-0.8-1.8-2.5-1.8h-2.5c0.5 25.2 0.6 25.6 2.7 25.8 2.2 0.2 2.3 0 2.3-8.5-0.1-8.2 0.1-8.9 2.5-11 1.4-1.2 3.2-2.3 4-2.3 0.9 0 1.5-0.9 1.5-2.5 0-1.3-0.3-2.4-0.8-2.4-0.4 0-1.8 0.5-3.1 1.1zm13.3 0.3c-1.6 0.8-4 2.9-5.2 4.7-1.3 2-2.2 4.9-2.2 7.3 0 2.6 0.8 5.3 2.3 7.5 1.2 2 3.4 4.1 4.7 4.8 1.4 0.7 4 1.2 5.7 1.2 1.8 0 4.6-0.6 6.3-1.5 1.6-0.8 3.4-2.4 4-3.5 0.5-1 1-2.2 1-2.5 0-0.2-0.8-0.6-1.7-0.7-0.9-0.1-2.7 0.8-4 2-1.2 1.2-3.5 2.3-5 2.3-1.5 0-3.9-0.8-5.3-1.9-1.4-1-2.7-3.1-3-4.5l-0.5-2.7c19.5 0.5 20.5 0.4 20.5-1.2 0-1-0.8-3.4-1.8-5.4-0.9-2.1-3.1-4.5-4.7-5.5-1.7-1-4.1-1.8-5.5-1.8-1.4 0-3.9 0.7-5.6 1.4zm49.4-0.2c-1.5 0.7-3.7 2.6-5 4.2-1.8 2.3-2.3 4.3-2.3 8.7 0 5 0.4 6.1 3 8.8 1.7 1.7 4.5 3.3 6.5 3.6 1.9 0.4 5.1 0.1 7.2-0.5 2-0.7 4.3-2.2 5.2-3.4 0.9-1.2 1.6-2.5 1.6-2.9 0-0.4-0.8-1-1.8-1.2-1-0.4-2.6 0.4-4 2-1.4 1.6-3.3 2.4-5.2 2.4-1.9 0-3.9-0.9-5.5-2.5-1.7-1.7-2.5-3.5-2.5-6 0-1.9 0.5-4.5 1.2-5.7 0.6-1.2 1.8-2.8 2.7-3.5 0.9-0.6 2.6-1.2 3.8-1.2 1.3 0 3.6 1.1 5.3 2.4 1.6 1.4 3.7 2.3 4.5 2 0.8-0.2 1.5-0.9 1.5-1.5 0-0.5-0.9-1.9-2-3-1.1-1-3.1-2.4-4.5-3-1.4-0.5-3.5-0.9-4.8-0.9-1.2 0-3.4 0.6-4.9 1.2zm26.4 0.8c-1.8 1.1-4 3.2-4.9 4.7-1 1.5-1.7 4.5-1.7 6.7 0 2.3 0.9 5.5 2 7.3 1 1.8 3.4 4 5.1 4.8 1.8 0.8 4.6 1.4 6.3 1.4 1.6 0 4.3-0.6 6-1.5 1.6-0.8 3.7-2.9 4.7-4.7 0.9-1.8 1.6-5 1.7-7.3 0-2.2-0.7-5.2-1.7-6.7-0.9-1.5-2.9-3.5-4.5-4.5-1.5-0.9-4.3-1.8-6.3-1.9-2-0.1-4.9 0.6-6.7 1.7zm71.4 0c-2.3 1.7-2.8 1.8-2.7 0.5 0.1-0.9-0.7-1.6-1.9-1.6-1.9 0-2 0.7-2 13 0 12.4 0.1 13 2 13 1.8 0 2-0.6 2-8.7 0-6.1 0.4-9.4 1.5-11 1-1.5 2.5-2.3 4.7-2.3 1.9 0 4.1 0.8 5.2 1.8 1.7 1.7 1.9 3.2 1.8 11.1-0.2 9.1-0.2 9.1 2.3 9.1 2.5 0 2.5 0 2.5-9.5 0-5.2-0.5-10.6-1-12-0.6-1.3-2.4-3.1-4-4-1.7-0.8-4.1-1.5-5.3-1.5-1.3 0-3.6 1-5.1 2.1zm25.6 0c-1.7 1.1-3.9 3.3-4.7 4.9-0.8 1.7-1.5 4.7-1.5 6.8 0 2.3 0.8 5.1 2.2 7.2 1.3 1.9 3.9 4.1 5.8 4.9 3.2 1.3 3.9 1.2 7.6-0.5 4.2-1.8 4.2-1.8 4.7 0.1 0.2 1.1 0 3-0.6 4-0.6 1.1-1.8 2.6-2.6 3.3-0.9 0.6-3.1 1.2-4.9 1.2-2.2 0-3.9-0.7-5.5-2.4-1.2-1.4-3-2.5-4-2.5-1 0-1.7 0.7-1.7 1.9 0 1.2 1.5 3.1 3.7 4.6 2.3 1.4 5.2 2.5 7.3 2.5 1.9-0.1 5.1-0.8 7-1.8 1.9-1 4-2.9 4.7-4.3 0.8-1.6 1.3-7.3 1.3-16.7v-14.3c-3.9 0-5 0.5-5 1 0 0.6-1.2 0.4-2.8-0.4-1.5-0.9-3.8-1.5-5.2-1.5-1.4 0-4 0.9-5.8 2zm53.3-1.3c-1.1 0.2-3 1.4-4.3 2.6-1.2 1.2-2.2 2.7-2.2 3.4 0 0.7 0.7 1.2 1.5 1.2 0.8 0 2.7-0.9 4.2-2 1.6-1.1 3.6-2 4.5-2 1 0 2.7 1 3.8 2 1.1 1.1 2 2.5 2 3 0 0.6-1.2 1.1-2.8 1.1-1.5 0-4.4 0.4-6.5 1-2 0.5-4.6 1.9-5.7 2.9-1.1 1.2-2 3.4-2 5 0 1.9 0.9 4 2.5 5.5 1.8 1.8 3.6 2.6 6.2 2.6 2.1 0 4.8-0.7 6-1.5 2-1.4 2.3-1.4 2.3-0.1 0 1 0.8 1.5 2.2 1.3 2.2-0.2 2.3-0.6 2.3-10.6v-10.3c-5.3-4.8-7.5-5.8-9.3-5.7-1.5 0-3.6 0.3-4.7 0.6zm27.1 0.8c-1.6 0.8-2.9 1-2.8 0.5 0.1-0.6-0.9-1.1-2.3-1.1h-2.5v26c5 0 5 0 5-9.2-0.1-8.2 0.2-9.5 2.1-11.3 1.3-1.2 3.1-1.8 4.8-1.6 1.4 0.1 3.4 1.3 4.4 2.5 1.4 1.7 1.8 3.9 1.7 10.9 0 8.1 0.1 8.7 2 8.7 1.9 0 2-0.6 2-10.5 0-9.4-0.2-10.7-2.3-13-1.3-1.5-3.7-2.7-5.7-3-2.1-0.3-4.7 0.2-6.4 1.1zm79 0c-1.7 0.9-2.9 1.1-2.8 0.5 0.1-0.6-0.9-1.1-2.3-1.1h-2.5c0.5 25.2 0.6 25.6 2.7 25.8 2.2 0.2 2.3 0 2.3-8.5 0-6.1 0.4-9.4 1.5-11 1-1.5 2.5-2.3 4.7-2.3 1.9 0 4 0.8 5 1.8 1.3 1.3 1.8 4 2 10.7 0.3 8.6 0.4 9 2.5 9 2.2 0 2.3-0.3 2.3-8.5 0-4.6-0.4-9.9-1-11.7-0.6-2-2.1-3.8-4-4.8-1.7-0.8-4-1.4-5.3-1.4-1.2 0-3.5 0.7-5.1 1.5zm43.8-0.1c-1.7 0.8-3.8 2.4-4.8 3.7-0.9 1.3-1.9 4.4-2.2 6.8-0.5 3.3-0.1 5.6 1.2 8.3 1.2 2.4 3.2 4.4 5.1 5.3 1.8 0.8 4.4 1.4 5.8 1.4 1.4 0 4.1-0.6 6-1.5 1.9-0.8 3.9-2.4 4.5-3.5 0.5-1 1-2.2 1-2.5 0-0.2-0.8-0.6-1.7-0.7-0.9-0.1-2.7 0.8-4 2-1.3 1.3-3.4 2.2-5.3 2.2-1.9 0-3.9-0.9-5.5-2.5-1.4-1.3-2.5-3.4-2.5-4.5 0-1.8 0.6-1.9 9.7-1.8 7.6 0.1 9.9-0.2 10.1-1.3 0.2-0.7-0.4-3-1.2-5.1-0.9-2.1-3-4.6-4.9-5.7-1.7-1.1-4.3-2-5.7-2-1.4 0-3.9 0.6-5.6 1.4zm29.8-0.8c-1.3 0.3-3.4 1.5-4.6 2.7-1.3 1.2-2.8 3.7-3.4 5.6-0.6 2.2-0.7 5.1-0.2 7.5 0.6 2.5 2.1 5.1 3.9 6.8 2.4 2.1 4.1 2.7 7.6 2.7 3.2 0 5.1-0.5 6.5-2l2-2c0 5.9-0.8 7.9-2.5 9.5-1.5 1.6-3.5 2.5-5.5 2.5-2 0-3.9-0.9-5.8-2.7-1.5-1.6-3.5-2.7-4.5-2.5-0.9 0.1-1.7 0.6-1.7 1 0 0.4 0.7 1.8 1.5 3 0.8 1.2 3 3 4.7 3.9 2.3 1.1 4.6 1.4 7.5 1 2.4-0.4 5.2-1.1 6.3-1.7 1.1-0.5 2.7-2.5 3.5-4.5 1.1-2.5 1.5-7.2 1.5-17v-13.5c-4.2 0-5 0.6-5 1.8 0.1 1.7 0 1.7-1.7 0-1-0.9-3.2-1.9-4.8-2.1-1.7-0.2-4-0.2-5.3 0zm32.3 0.1c-1.1 0.2-2.8 1.2-3.8 2.1-1.6 1.5-1.8 1.5-1.7-0.1 0-1.1-0.8-1.8-2-1.8-1.9 0-2 0.7-2 13 0 12.4 0.1 13 2 13 1.8 0 2-0.6 2-8.5 0-7.6 0.2-8.7 2.5-11 1.3-1.3 3.3-2.5 4.5-2.5 1.5 0 2-0.6 2-2.5 0-1.3-0.3-2.4-0.8-2.3-0.4 0-1.6 0.3-2.7 0.6zm11 0.2c-1.2 0.5-2.8 2-3.8 3.5-0.9 1.4-1.7 2.8-1.7 3 0 0.3 1 0.6 2.2 0.6 1.3 0 3.1-0.9 4-2 1-1.1 2.6-2.1 3.5-2.1 1 0 2.8 0.7 4 1.5 1.3 0.9 2.3 2.1 2.3 2.8 0 0.7-2.6 1.8-6.2 2.5-3.5 0.7-6.9 1.8-7.7 2.5-0.7 0.7-1.8 2.4-2.3 3.7-0.6 1.7-0.5 3.5 0.4 5.4 0.7 1.6 2.3 3.3 3.5 3.8 1.3 0.5 3.5 0.9 5 0.9 1.6 0 3.7-0.7 4.8-1.5 1.1-0.8 2.3-1.5 2.7-1.5 0.5 0 0.8 0.6 0.8 1.4 0 0.9 0.9 1.5 2 1.5 1.9 0 2-0.6 2-9.5 0-5.2-0.5-10.6-1-12-0.6-1.3-2.4-3.1-4-4-1.7-0.8-4.2-1.4-5.8-1.4-1.5 0-3.6 0.5-4.7 0.9zm55.9 0.5c-1.6 0.8-4 2.9-5.2 4.7-1.3 2-2.2 4.9-2.2 7.3 0 2.6 0.8 5.3 2.3 7.5 1.2 2 3.4 4.1 4.7 4.8 1.4 0.7 4.1 1.2 6 1.3 2 0 4.9-1 7-2.3 1.9-1.3 4.1-3.4 4.7-4.8 0.7-1.3 1.3-3.9 1.3-5.7 0-1.8-0.7-4.8-1.5-6.8-0.8-1.9-2.5-4.1-3.8-5-1.2-0.8-4-1.7-6.2-2-2.4-0.3-5.2 0.1-7.1 1zm30.2 0.1c-1.7 0.9-2.9 1.1-2.8 0.5 0.1-0.6-0.9-1.1-2.3-1.1h-2.5c0.5 25.2 0.6 25.6 2.7 25.8 2.2 0.2 2.3 0 2.3-9-0.1-8.4 0.1-9.4 2.2-11 1.2-1 3.5-1.8 5-1.8 1.8 0 3.3 0.9 4.3 2.3 1.1 1.6 1.5 4.9 1.5 11 0 8.1 0.2 8.7 2 8.7 1.9 0 2-0.6 2-11v-11c-4.7-3.8-7.2-4.9-8.8-4.9-1.5 0-4 0.7-5.6 1.5zm-687.5 12.4c-0.1 11.2 0.1 13 1.4 12.5 0.8-0.2 1.8-0.5 2.2-0.5 0.5 0 0.7-5.5 0.7-12.2-0.1-11.5-0.3-12.3-2.2-12.6-2-0.3-2 0.2-2.1 12.8zm101.9-3c0 9.8 0.1 10.1 3 13 2.1 2.1 4 3.1 6.2 3.1 1.8 0 4.2-0.7 5.3-1.5 1.1-0.8 2.3-1.5 2.7-1.5 0.5 0 0.8 0.6 0.8 1.4 0 0.9 0.9 1.5 2 1.5 1.9 0 2-0.6 2-13 0-12.8 0-12.9-2.3-12.7-2.1 0.2-2.2 0.7-2.2 8.9 0 7.3-0.3 9-2 10.8-1.1 1.2-3.1 2.1-4.5 2.1-1.4 0-3.3-0.8-4.2-1.8-1.4-1.4-1.8-3.6-1.8-11 0-9.2 0-9.3-2.5-9.3h-2.5zm180 3c0 12.9 0 13 2.2 12.8 2.2-0.2 2.3-0.6 2.5-13l0.2-12.8h-4.9zm185 0v13h5v-26h-5zm-507.8 42.5c-1.5 1.1-2.3 2.9-2.7 6-0.4 3.7-0.9 4.5-2.5 4.5q-2 0-2 2 0 2 2 2c1.9 0 2 0.7 2 10.5v10.5h5v-21c5.3 0 6-0.4 6-2 0-1.5-0.7-2-3-2-2.6 0-3-0.3-3-2.7 0-1.5 0.5-3.3 1.2-4 0.7-0.7 2.2-1.3 3.5-1.3 1.6 0 2.2-0.5 2-1.7-0.1-1.1-1.3-1.8-3.2-2-1.7-0.2-4 0.4-5.3 1.2zm28-0.1c-1.2 0.7-3.1 2.9-4.2 5-1.6 3-1.8 4.3-1 7.1 0.8 2.8 1.9 4 5.2 5.5 2.4 1.1 5.6 2.2 7.3 2.6 1.6 0.4 3.8 1.4 4.8 2.3 1 0.9 1.8 2.6 1.8 3.6 0 1.1-0.8 2.8-1.8 3.8-1 0.9-3.3 1.7-5.1 1.7-1.7 0-3.9-0.3-4.8-0.7-0.9-0.4-2.3-2-3-3.5-1-1.9-2.2-2.8-3.9-2.8-2.1 0-2.4 0.4-1.9 2.3 0.3 1.2 1.2 3.3 2 4.5 0.8 1.2 2.9 3 4.6 3.9 2.3 1.1 4.8 1.4 8.3 1.1 3.4-0.4 5.7-1.3 7.3-2.9 1.2-1.3 2.6-4.1 2.9-6.4 0.5-2.8 0.2-4.7-1-6.7-1.1-1.8-3.4-3.3-6.5-4.3-2.6-0.9-6.2-2.3-8-3-2.5-1.1-3.2-2.1-3.2-4.2-0.1-1.5 0.5-3.3 1.2-4 0.7-0.7 2.6-1.3 4.3-1.4 1.6-0.1 4 0.4 5.2 1 1.3 0.6 2.3 1.8 2.3 2.6 0 0.9 0.6 1.3 1.5 1 0.8-0.2 2.2-0.5 3-0.5 1.3 0 1.3-0.3 0-3-0.8-1.6-3-3.6-5-4.5-1.9-0.8-5-1.4-6.8-1.4-1.7 0-4.2 0.6-5.5 1.3zm157.8 14.1c0 14.5-0.1 15.6-2 16.5-1.1 0.6-3.1 1-4.5 1-1.6 0-3.2-1-4.4-2.7-1.9-2.6-2.1-2.7-3.8-1.1-1.7 1.7-1.7 1.9-0.1 4.3 1 1.4 2.9 3 4.3 3.5 1.4 0.6 3.8 1 5.5 1 1.6 0 3.9-0.4 5-1 1.1-0.5 2.7-2.3 3.5-4 1.1-2.2 1.5-6.6 1.5-18v-15h-5zm17.3-14.4c-1.1 0.5-3.1 2.4-4.2 4.2-1.2 1.8-2.1 4-2.1 5 0 1 0.7 3.1 1.5 4.7 1.1 2.3 2.9 3.5 7.2 5 3.2 1.1 6.9 2.6 8.3 3.3 1.4 0.8 2.6 2.4 2.8 3.8 0.2 1.4-0.5 3.2-1.5 4.2-1 1.1-3.3 1.8-5.3 1.8-2.5 0-4.3-0.8-6.2-2.8-2.5-2.4-3-2.6-4.3-1.3-0.9 0.9-1.6 2.1-1.5 2.8 0 0.7 1.7 2.4 3.7 3.8 3.3 2.2 4.6 2.5 9.3 2.1 4.6-0.4 6-1 8.2-3.5 2-2.2 2.8-4.3 2.8-6.9 0.1-2.1-0.7-4.8-1.7-6.1-1.1-1.4-4.8-3.4-9.3-5-6.9-2.4-7.5-2.9-7.8-5.7-0.1-1.6 0.3-3.5 1-4.2 0.7-0.8 3.2-1.3 5.5-1.3 3.5 0 4.6 0.6 6 2.6 1.4 2 2.3 2.4 4 1.7 2-0.7 2.1-1 1-3.3-0.7-1.3-2.8-3.2-4.7-4.2-1.9-1-5.1-1.7-7-1.7-1.9 0-4.5 0.5-5.7 1zm46.6 17.5l0.1 18.4c20.3 0 21-0.1 21-2 0-1.1-0.7-2-1.8-2.1-0.9-0.1-4.4-0.3-7.7-0.3l-6-0.1-0.5-11.5c14.3 0 15-0.1 15-2 0-1.8-0.7-2-7.5-2h-7.5v-12c15.8 0 16 0 15.9-2.3 0-2.4-0.2-2.4-10.5-2.5h-10.5zm218-0.1v18.5c5 0 5 0 5-9.5 0-9.1 0.1-9.6 2.5-11 1.4-0.8 3.4-1.5 4.5-1.5 1.1 0 2.9 1.3 4.1 2.8 1.6 2.2 2 4.2 2 11-0.1 7.6 0.1 8.2 1.9 8.2 1.9 0 2-0.7 2-10 0-5.5-0.3-10.7-0.7-11.6-0.4-0.9-2-2.3-3.5-3-1.5-0.8-4-1.4-5.5-1.4-1.5 0-3.8 0.7-5 1.5l-2.3 1.5c0-13.8 0-14-2.5-14h-2.5zm-16-10.5c0 3.3-0.3 4-2 4q-2 0-2 2c0 1.4 0.6 1.9 1.9 1.8 1.7-0.3 1.9 0.6 2.2 9 0.4 8.6 0.6 9.6 2.9 11.3 1.4 1.1 3.8 2 5.3 2 2.2-0.1 2.7-0.5 2.7-2.6 0-1.5-0.5-2.3-1.2-2.1-0.7 0.2-2.1 0-3-0.5-1.5-0.7-1.8-2.3-1.8-8.9v-8c5.4 0 6-0.4 6-2 0-1.5-0.6-2-3-2-2.8 0-3-0.2-3-4 0-3.6-0.2-4-2.5-4-2.2 0-2.5 0.4-2.5 4zm-480.7 5c-1.8 1.1-3.9 3.4-4.8 5-0.8 1.7-1.5 4.7-1.5 6.8 0 2.3 0.9 5.1 2.3 7.2 1.3 1.9 3.4 4.1 4.8 4.8 1.3 0.6 4 1.2 5.9 1.2 2 0 5-0.9 6.8-2 1.8-1.1 3.9-3.6 4.8-5.7 0.8-2.1 1.5-4.8 1.5-6-0.1-1.3-0.7-3.9-1.6-5.8-0.8-1.9-2.9-4.4-4.7-5.5-1.8-1.1-4.8-2-6.8-2-1.9 0-4.9 0.9-6.7 2zm95.4-1c-1.1 0.4-2.8 3.9-4.6 9.6-1.6 5-3.1 8.3-3.4 7.4-0.4-0.8-1.7-4.9-2.9-9-2.1-6.8-2.6-7.5-5.1-7.7l-2.7-0.3c8.2 24 8.7 25 11 25 2.3 0.1 2.7-0.7 4.9-8.2 1.4-4.6 2.7-8.6 3-9 0.4-0.4 2 3.3 3.6 8.2 2.6 7.8 3.3 9 5.3 9 1.9 0 2.7-1.3 5.7-10.5l3.5-10.5c-4.7 0-5.2 0.7-7.1 7.8l-2.2 7.7c-4.4-14.7-6-19.3-6.5-19.6-0.4-0.4-1.5-0.3-2.5 0.1zm41.9 0.3c-1.1 0.6-2.3 1.6-2.8 2.2-0.4 0.6-0.7 0.3-0.8-0.7 0-1.2-0.8-1.8-2.5-1.8h-2.5v36c5 0 5-0.2 5-7v-7c5 3.8 6.5 4.1 10 3.7 3.4-0.4 5.2-1.3 7.3-3.6 1.5-1.7 3-4.8 3.4-6.8 0.4-2.4 0.1-5.3-0.9-7.8-0.9-2.4-2.8-4.9-4.9-6.3-1.8-1.2-4.7-2.2-6.4-2.2-1.6 0-3.9 0.6-4.9 1.3zm26.7 0.7c-1.8 1.1-3.9 3.4-4.8 5-0.8 1.7-1.5 4.4-1.5 6 0 1.7 0.6 4.5 1.4 6.3 0.7 1.8 2.2 4 3.2 5 1.1 1 4 2.1 6.4 2.4 3.2 0.4 5.5 0.1 7.8-1.1 1.8-0.9 3.7-2.5 4.2-3.6 0.6-1.1 1-2.2 1-2.5 0-0.3-0.7-0.6-1.7-0.7-0.9-0.2-2.7 0.7-3.9 2-1.4 1.3-3.5 2.2-5.3 2.2-1.9 0-4-0.9-5.6-2.5-1.3-1.4-2.5-3.4-2.5-4.5 0-1.9 0.7-2 10-2 8.3 0 10-0.3 10-1.5 0-0.8-0.6-2.9-1.3-4.7-0.8-1.8-2.2-4.1-3.3-5.1-1-1-3.9-2-6.4-2.3-3.4-0.4-5.2 0-7.7 1.6zm30.3 0.1c-2.3 1.7-2.7 1.8-2.7 0.5 0.1-1-0.7-1.6-2.4-1.6h-2.5v25c5 0 5-0.1 5-8.5 0-7.2 0.3-8.8 2-10.5 1.1-1.1 3.2-2 4.5-2 2 0 2.5-0.5 2.5-2.5 0-1.7-0.5-2.5-1.8-2.5-1 0-3.1 0.9-4.6 2.1zm118.5-0.3c-1.8 1.2-2.5 1.4-2.8 0.5-0.1-0.7-1.2-1.3-2.3-1.3-1.9 0-2 0.7-2 12.5 0 11.8 0.1 12.5 2 12.5 1.9 0 2-0.7 2-7.7 0.1-4.3 0.6-8.9 1.3-10.3 0.7-1.4 2.5-2.9 3.9-3.5 2-0.8 3.2-0.6 5.2 0.8 2.5 1.6 2.6 2.1 2.6 11.2 0 9.5 0 9.5 2.5 9.5h2.5c-0.5-20.7-0.6-21.3-3.2-23.6-1.7-1.5-4-2.4-6-2.4-1.8 0-4.4 0.8-5.7 1.8zm59.8 7.1c0.2 7.3-0.1 9-1.8 11.4-1.3 1.7-3 2.7-4.6 2.7-1.3 0-3.4-0.9-4.5-2-1.7-1.7-2-3.3-2-11 0-8.9 0-9-2.5-9h-2.5c0.5 20.8 0.6 21.3 3.3 23.6 1.8 1.6 4 2.4 6.5 2.4 2 0 4.7-0.6 6-1.5 1.2-0.8 2.2-1 2.2-0.5 0 0.6 1.2 1 2.5 1h2.5c-0.5-25.3-0.5-25.3-2.9-25.5-2.4-0.1-2.4-0.1-2.2 8.4zm17.7-6.8c-2.3 1.7-2.7 1.8-2.7 0.5 0.1-1-0.7-1.6-1.9-1.6-1.9 0-2 0.7-2 12.5 0 11.8 0.1 12.5 2 12.5 1.9 0 2-0.6 2-7.7 0-6.1 0.4-8.4 1.9-10.5 1-1.4 3-2.8 4.3-3 1.6-0.2 2.4-1 2.4-2.5 0.1-1.5-0.5-2.3-1.6-2.3-0.9 0-2.9 0.9-4.4 2.1zm27.4-0.1c-1.1 1.1-2.2 2-2.5 2-0.2 0-0.2-0.7 0.2-1.5 0.5-1.1 0-1.5-2-1.5h-2.7v25c5 0 5-0.1 5-9 0-7.7 0.3-9.3 2-11 1.1-1.1 2.8-2 3.8-2 0.9 0 3 0.9 4.5 2 2.6 1.9 2.7 2.4 2.7 11 0 8.3 0.2 9 2 9 1.9 0 2-0.7 2-10.5 0-10.4 0-10.5-3-13-1.9-1.6-4.2-2.5-6.5-2.5-2.1 0-4.2 0.8-5.5 2zm25.9-0.1c-1.5 1-3.3 2.7-4.1 3.7-0.8 1.1-1.8 3.2-2.1 4.7-0.4 1.5-0.1 4.6 0.6 6.8 0.7 2.2 2.5 5.3 4.1 6.8 2.1 2 3.8 2.6 7.1 2.6 2.9 0 5-0.6 6.5-2l2.1-2c-0.1 6.7-0.7 8-2.8 9.5-1.5 1.2-3.9 2.1-5.3 2-1.3 0-3.1-0.4-4-0.9-0.9-0.6-1.9-0.6-2.8 0.2-0.7 0.7-1.2 1.6-1.2 2 0 0.4 1.7 1.2 3.8 1.8 2.1 0.6 5.3 0.8 7.2 0.4 2-0.4 4.4-1.3 5.5-2 1.1-0.7 2.6-2.5 3.3-3.9 0.8-1.7 1.2-7.4 1.2-16.6v-14c-3.8 0-4.9 0.4-4.8 0.8 0 0.4 0 1.1 0 1.5-0.1 0.4-1.4-0.2-2.9-1.3-1.5-1.1-4.1-2-5.8-2-1.6 0-4.2 0.9-5.6 1.9zm86.6-0.4c-1.6 0.8-3.8 3-4.9 4.8-1 1.7-1.9 5-1.9 7.2 0 2.3 0.8 5.5 2 7.5 1.2 2 3.6 4.1 5.5 4.9 2.1 0.9 4.9 1.2 7.3 0.8 2.8-0.4 4.9-1.5 7-3.9l3-3.3c-4-0.5-5.8 0.2-7 1.4-1.1 1.2-3.3 2.1-5 2.1-1.6 0-3.7-0.6-4.6-1.3-0.8-0.6-2.1-2.2-2.7-3.4-0.6-1.3-1.2-2.7-1.2-3.3 0-0.6 4-1 10-1h10c0-3.9-0.6-6.3-1.5-8-0.8-1.6-2.8-3.7-4.5-4.5-1.6-0.8-4.2-1.5-5.7-1.5-1.5 0.1-4.1 0.7-5.8 1.5zm29.6 0.1c-1.3 0.8-2.3 1.1-2.2 0.5 0.1-0.6-1-1.1-2.4-1.1h-2.5c0 24.9 0.1 25 2.3 24.8 2.1-0.3 2.3-0.8 2.5-9.3 0.2-5.5 0.9-9.7 1.7-10.7 0.7-1 2.3-1.8 3.4-1.8 1.2 0 3 0.5 4.1 1 1.8 0.9 2 2 2 11v10c5 0 5-0.1 5-8.7 0-6.2 0.5-9.5 1.5-11 1-1.4 2.6-2.3 4.3-2.3 1.5 0 3.5 0.8 4.5 1.7 1.3 1.5 1.7 3.7 1.7 11.1 0 8.9 0.1 9.2 2.3 9.2 2.2 0 2.2-0.2 2-11-0.3-10.7-0.3-11-3-13-1.5-1.1-4.1-2.1-5.8-2.1-1.6 0-4.2 1-5.7 2.1l-2.8 2c-3.5-3.1-5.8-4-7.5-4-1.6 0-4 0.7-5.4 1.6zm42-0.4c-1.3 0.8-3.5 2.9-4.8 4.8-1.5 2.3-2.3 4.9-2.3 7.5 0 2.2 0.9 5.5 2 7.3 1.1 1.8 3.4 3.9 5 4.7 1.7 0.8 4.4 1.5 6 1.5 1.7 0 4-0.5 5.3-1.1 1.2-0.6 3-2.1 4-3.3 0.9-1.1 1.7-2.4 1.7-2.8 0-0.4-0.6-0.8-1.5-0.8-0.8 0-2.7 0.9-4.2 2-1.5 1.2-4 2.1-5.5 2-1.6 0-3.8-1.1-5.3-2.5-1.3-1.4-2.5-3.4-2.5-4.5 0-1.9 0.7-2 10-2 8.3 0 10-0.3 10-1.5 0-0.8-0.6-2.9-1.3-4.7-0.8-1.8-2.2-4.1-3.3-5.1-1-1-3.9-2-6.4-2.3-2.7-0.3-5.4 0-6.9 0.8zm-483 12.6v12.7l4.9-0.5v-25h-5zm282-0.2v12.5c5 0 5-0.2 5-7.3 0-4-0.2-9.6-0.4-12.5-0.3-4.5-0.7-5.2-2.5-5.2-2 0-2.1 0.4-2.1 12.5zm-62.9-1c-0.8 1.1-0.8 1.6 0.2 1.9 0.7 0.2 2.6 0.8 4.2 1.3 1.7 0.5 3.1 1.7 3.3 2.6 0.1 0.9-0.3 2.4-1 3.2-0.7 0.9-2.3 1.5-3.5 1.5-1.3 0-3.2-0.9-4.3-2-1.1-1.1-2.7-2-3.5-2-0.8 0-1.5 0.5-1.5 1.2 0 0.7 0.7 2.3 1.5 3.5 0.8 1.3 3 2.5 4.8 2.9 1.8 0.3 4.8 0.1 6.7-0.5 1.9-0.6 4.1-2.1 4.9-3.4 0.8-1.3 1.1-3.5 0.7-5.5-0.5-2.6-1.3-3.5-4.6-4.7-2.2-0.9-4.6-1.5-5.4-1.5-0.7 0-1.9 0.6-2.5 1.5zm-166.6 43.1c-0.4 0.4-0.7 8.9-0.7 19l0.2 18.4h5c0.5-35.1 0.3-36.9-1.3-37.4-0.9-0.4-1.8-0.6-2-0.6-0.2 0-0.7 0.3-1.2 0.6zm150 0c-0.4 0.4-0.7 3.8-0.7 7.5l0.2 6.9c-4.2-2.6-7.2-3.3-9.2-3.2-2.1 0.1-5 1-6.4 1.9-1.5 1-3.3 3-4 4.5-0.8 1.5-1.4 4.7-1.4 7 0 2.5 0.8 5.6 2 7.5 1.1 1.8 3 3.8 4.3 4.4 1.2 0.6 3.8 1.2 5.7 1.2 1.9 0 4.8-0.7 6.3-1.6 2.3-1.5 2.7-1.5 2.7-0.2 0 0.8 0.9 1.5 2 1.5 1.9 0 2-0.7 2-19 0-15.2-0.3-19-1.3-19-0.8 0-1.7 0.3-2.2 0.6zm342.1 1.8c-1.7 1.7-2.5 3.6-2.5 6-0.1 3.1-0.4 3.6-2.6 3.6-1.8 0-2.5 0.5-2.5 2 0 1.4 0.7 2 2.5 2h2.5v22h5v-22c5.3 0 6-0.5 6-2 0-1.6-0.7-2-3-2-2.7 0-3-0.4-3-3q0-3 2-4c1.1-0.6 2.5-0.8 3-0.5 0.6 0.2 0.9-0.5 0.8-1.8-0.2-1.6-1-2.3-3-2.5-1.9-0.3-3.5 0.4-5.2 2.2zm-531.6 0.8c-1.1 0.9-1.3 4.6-1.2 18 0.2 16 0.3 16.8 2.2 16.8 1.1 0 2-0.7 2-1.5 0-0.9 0.4-1.4 0.8-1.2 0.4 0.1 2.4 1 4.5 2 2.8 1.3 4.5 1.4 7 0.7 1.8-0.5 4.5-2.3 6-4 1.5-1.7 3-4.7 3.3-6.8 0.4-2.3 0-5.2-0.9-7.7-1.1-2.9-2.6-4.5-5.1-5.8-2-0.9-5-1.8-6.8-1.8-1.8 0-4.5 0.9-6 2l-2.8 2.1c0-10.9-0.3-14-0.8-14-0.4 0-1.4 0.5-2.2 1.2zm-27 5.3c0 3-0.3 3.5-2.5 3.5-1.8 0-2.5 0.5-2.5 2 0 1.4 0.7 2 2.5 2 2.5 0 2.5 0 2.5 9.5 0 8.7 0.2 9.6 2.3 11 1.2 0.8 3.5 1.5 5 1.5 2 0 2.7-0.5 2.7-2q0-2-2-2c-1.1 0-2.4-0.9-3-2-0.5-1.1-1-5.2-1-9v-7c5.3 0 6-0.5 6-2 0-1.6-0.7-2-3-2-2.7 0-3-0.3-3-3.5 0-2.9-0.4-3.5-2-3.5-1.6 0-2 0.6-2 3.5zm90 0c0 2.8-0.4 3.5-2 3.5q-2 0-2 2 0 2 2 2c1.9 0 2 0.6 2 8.5 0 7.7 0.2 8.7 2.5 11 1.6 1.5 3.6 2.5 5.5 2.5 2.2 0 3-0.5 3-1.8 0.1-1.1-1-2-3-2.5l-3-0.7v-17c5.3 0 6-0.5 6-2 0-1.6-0.7-2-3-2-2.7 0-3-0.3-3-3.5 0-3.1-0.3-3.5-2.5-3.5-2.2 0-2.5 0.4-2.5 3.5zm208 0c0 3-0.3 3.5-2.5 3.5-1.8 0-2.5 0.5-2.5 2 0 1.4 0.7 2 2.5 2 2.5 0 2.5 0 2.5 9 0 8.6 0.1 9 2.8 11 1.5 1.1 4 2 5.5 2 2 0 2.7-0.5 2.7-2 0-1.5-0.7-2-2.5-2-1.8 0-2.8-0.8-3.5-2.8-0.6-1.5-1-5.4-0.8-8.7 0.3-6 0.3-6 3.6-6.3 2.5-0.2 3.2-0.7 3.2-2.2 0-1.7-0.7-2-3.5-2-3.4 0-3.5-0.2-3.2-3.5 0.2-3.1-0.1-3.5-2-3.5-1.9 0-2.3 0.5-2.3 3.5zm-446.6 3.4c-1.6 0.3-3.8 1.2-4.8 2.1-1 0.8-2.4 2.7-3.2 4.2-0.8 1.5-1.4 4.7-1.4 7 0 2.5 0.8 5.6 2 7.5 1.1 1.8 3.7 4 5.8 4.8 3.2 1.4 4.3 1.4 8.1 0.3 2.4-0.7 5.3-2.5 6.3-3.8 1-1.4 1.9-2.9 1.8-3.3 0-0.4-0.8-0.9-1.7-1-1-0.2-2.8 0.7-4 2-1.5 1.4-3.5 2.3-5.5 2.3-2.2 0-4-0.8-5.4-2.3-1.2-1.2-2.4-3.4-2.7-4.7-0.3-1.4-0.1-4 0.4-5.8 0.6-2.2 1.9-3.7 3.9-4.6 1.7-0.7 3.8-1.2 4.8-1 0.9 0.1 2.7 1.4 4 2.8 1.4 1.7 2.9 2.4 4.2 2.1 1.1-0.3 2-1 2-1.5 0-0.6-1.2-2.3-2.7-3.8-1.5-1.6-4.2-3-5.8-3.3-1.7-0.3-4.4-0.3-6.1 0zm25.1 0.9c-2.8 1.3-4.5 2.9-5.9 5.7-1.3 2.9-1.7 5.2-1.3 8.5 0.4 3 1.5 5.4 3.4 7.3 1.6 1.5 4.4 3.2 6.3 3.8 2.9 0.9 4.3 0.8 8-0.8 3.3-1.4 5-2.9 6.3-5.6 0.9-2.1 1.7-5.5 1.7-7.7 0-3.1-0.7-4.8-3.2-7.6-1.8-2-4.9-4-6.8-4.5-1.9-0.5-3.7-0.9-4-0.9-0.3 0-2.3 0.8-4.5 1.8zm32.5-1.1c-0.8 0.3-2.3 1.3-3.3 2.1-1.6 1.5-1.7 1.5-1.7-0.1 0-1.2-0.8-1.7-2.5-1.7h-2.5v26c5 0 5-0.1 5-9.3 0-8.3 0.2-9.4 2.2-11 1.2-0.9 3.4-1.7 5-1.7 2.3 0 3 0.6 3.8 3.2 0.6 1.8 1 6.8 1 11 0 7.1 0.2 7.8 2 7.8 1.9 0 2-0.7 2-8.5 0-4.7 0.5-9.4 1-10.5 0.6-1.1 1.9-2.5 3-3 1.5-0.8 2.8-0.6 5 0.5l3 1.5v20h5c0-17.8-0.4-21.1-1.5-22.8-0.8-1.2-3-2.7-5-3.3-2.1-0.6-4.3-0.7-5.7-0.1-1.3 0.5-3 1.7-3.8 2.6-1.4 1.5-1.6 1.5-3.5-0.3-1.1-1-3.1-2.1-4.5-2.4-1.4-0.3-3.2-0.3-4 0zm41.7 1.1c-3 1.5-3.8 1.6-3.8 0.6 0.1-0.9-0.9-1.4-2.4-1.4h-2.5v37c5 0 5-0.2 4.8-7-0.2-3.9-0.1-7 0.2-7 0.3 0 1.4 0.7 2.5 1.5 1.1 0.8 4 1.5 6.4 1.5 3.6 0 4.9-0.6 7.7-3.5 3-3.2 3.4-4.1 3.4-9 0-3.1-0.5-6.7-1.2-8.1-0.7-1.4-3.1-3.4-5.3-4.5-2.2-1-4.4-1.9-5-1.9-0.5 0-2.7 0.8-4.8 1.8zm226 0c-3 1.5-3.8 1.6-3.8 0.6 0.1-0.8-0.8-1.4-1.9-1.4-1.9 0-2 0.6-2 13 0 12.3 0.1 13 2 13 1.9 0 2-0.7 2-9 0-7.7 0.3-9.3 2-11 1.1-1.1 3.3-2 4.8-2.1 1.5 0 3.5 0.8 4.4 1.8 1.4 1.4 1.8 3.6 1.8 11 0 9.2 0 9.3 2.5 9.3 2.5 0 2.5-0.1 2.5-9.8 0-7.7-0.3-10.2-1.7-12.2-1-1.3-3.2-3-5-3.7-1.8-0.7-3.4-1.3-3.5-1.3-0.2 0-2 0.8-4.1 1.8zm99.8-1.1c-1.1 0.3-3 1.4-4.3 2.6l-2.2 2.2c0-3.9-0.6-4.5-2-4.5-1.9 0-2 0.6-2 18.5v18.5h5.5c-1.1-10.9-1.3-14-1-14 0.3 0 1.5 0.6 2.8 1.5 1.2 0.8 3.6 1.5 5.2 1.6 1.7 0 4.3-0.4 5.8-1 1.5-0.6 3.6-2.6 4.7-4.4 1.2-2 2-5 2-7.7 0-2.8-0.8-5.8-2-7.8-1.1-1.8-3-3.6-4.2-4.1-1.3-0.5-3.2-1.1-4.3-1.4-1.1-0.3-2.9-0.3-4 0zm57.9 0.1c-1 0.2-2.7 1.1-3.7 2-1.6 1.6-1.7 1.5-1.7-0.1 0-1.2-0.8-1.7-2.5-1.7h-2.5v26c5 0 5-0.1 5-9.5 0-9 0.2-9.7 2.5-11.5 1.8-1.4 3.2-1.8 4.7-1.3 1.1 0.4 2.7 1.7 3.5 2.8 0.9 1.3 1.3 5 1.3 10.7 0 8.1 0.2 8.8 2 8.8 1.9 0 2-0.7 2-8.8 0-6.1 0.4-9.4 1.5-11 1.1-1.6 2.5-2.2 5-2.2 2.5 0 3.8 0.5 4.5 2 0.6 1.1 1 6 1 11 0 8.9 0 9 2.5 9 2.5 0 2.5-0.1 2.5-9.5 0-6.5-0.5-10.5-1.5-12.5q-1.5-3-5.1-4.1c-2.8-0.8-4.3-0.7-7 0.5-1.8 0.9-3.4 2.1-3.4 2.8 0 0.8-0.5 0.6-1.3-0.4-0.6-1-2.6-2.1-4.3-2.6-1.7-0.5-4-0.7-5-0.4zm111.6 0.3c-1.4 0.5-3.5 2-4.8 3.2-1.2 1.2-2.7 3.9-3.2 5.9-0.6 2.4-0.6 5.2 0 7.8 0.6 2.4 2.2 5 4 6.5q3 2.5 6.8 2.5c2.2 0 4.8-0.8 6.5-2l2.7-2c0 5.6-0.7 7.7-2 9-1.3 1.3-3.3 2-5.7 1.9-2.1 0-4.6-0.5-5.5-1.2-0.9-0.7-1.7-1.8-1.7-2.5-0.1-0.7-0.9-1.1-2-1-1 0.2-2.2 0.6-2.5 1-0.3 0.4-0.1 1.7 0.4 2.8 0.6 1.1 2.5 2.7 4.3 3.6 2.3 1.1 4.8 1.5 8.7 1.1 4.6-0.4 5.9-1 7.7-3.4 1.2-1.5 2.5-4.2 2.8-5.8 0.3-1.7 0.5-8.5 0.5-15.3v-12.2c-4 0-5 0.5-5 1.5 0 1.2-0.6 1.1-3.7-0.5-2.1-1.1-4.2-2-4.8-2-0.5 0.1-2.1 0.5-3.5 1.1zm42.5 0c-1.6 0.5-3.6 1.5-4.3 2.1-1 1-1.3 0.9-1.2-0.5 0-1.1-0.7-1.7-2-1.7-1.9 0-2 0.6-2 18.5 0 17.8 0.1 18.5 2 18.5 1.8 0 2-0.7 2-7 0-3.9 0.2-7 0.5-7 0.3 0 1.2 0.6 2 1.5 0.9 0.9 3.3 1.5 6 1.5 2.6 0 5.6-0.8 7.2-1.8 1.4-0.9 3.2-3.2 4-5 0.7-1.8 1.3-4.9 1.3-7 0-2-0.9-5.2-2-7-1.1-1.8-2.8-3.6-3.7-4.1-1-0.5-2.9-1.1-4.3-1.4-1.4-0.3-3.8-0.1-5.5 0.4zm28.4 0c-1.9 0.5-4.4 1.8-5.7 3.1-1.2 1.2-2.7 3.8-3.3 5.8-0.6 1.9-0.8 4.9-0.5 6.7 0.3 1.8 1.7 4.6 3.1 6.3 1.5 1.7 4.1 3.4 6.3 3.9 2.3 0.6 4.9 0.6 6.7 0 1.7-0.6 4-2 5.3-3.2 1.2-1.2 2.3-2.8 2.2-3.5 0-0.7-0.8-1.2-1.7-1.3-1 0-2.7 0.9-3.8 2-1.1 1.1-3.3 2.2-5 2.4-2.3 0.3-3.6-0.3-5.7-2.5-1.5-1.6-2.8-3.5-2.8-4.3 0-1.3 1.8-1.5 10-1.5 9.3 0 10-0.2 10-2 0-1.1-0.6-3.5-1.3-5.3-0.8-1.8-2-3.8-2.8-4.5-0.8-0.6-2.8-1.6-4.5-2-1.7-0.5-4.7-0.5-6.5-0.1zm108.1-0.4c-0.8 0.3-2.3 1.3-3.3 2.1-1.6 1.5-1.7 1.5-1.7-0.1 0-1.2-0.8-1.7-2.5-1.7h-2.5v26c5 0 5-0.1 5-9.3 0-8.3 0.2-9.4 2.2-11 1.2-0.9 3.4-1.7 5-1.7 2.1 0 3.1 0.6 3.8 2.5 0.6 1.3 1 6.3 1 11 0 7.8 0.2 8.5 2 8.5 1.9 0 2-0.7 2-8.8 0-6.1 0.4-9.4 1.5-11 1-1.5 2.5-2.2 4.8-2.3 1.8 0 3.8 0.6 4.5 1.3 0.8 0.8 1.2 4.5 1.2 11 0 9.8 0 9.8 2.5 9.8 2.5 0 2.5-0.1 2.5-9.5 0-5.3-0.4-10.7-1-12-0.5-1.4-2.4-3.2-4.2-3.9-1.8-0.8-4.4-1.3-5.8-1-1.4 0.2-3.4 1.3-4.5 2.4-2 2-2 2-4 0.1-1.1-1.1-3.1-2.2-4.5-2.5-1.4-0.3-3.2-0.3-4 0.1zm39.5 0.4c-1.6 0.5-3.8 1.7-4.8 2.6-0.9 1-1.7 2.3-1.7 3 0 0.7 1.1 1.3 2.5 1.3 1.4 0 2.7-0.7 3-1.5q0.5-1.5 4.5-1.5c3 0 4.3 0.5 5 2 0.6 1.1 1 2.1 1 2.2 0 0.2-2.5 0.8-5.7 1.5-3.2 0.6-7 2.1-8.5 3.2-2 1.5-2.8 2.9-2.8 5.3 0 2.2 0.8 4.1 2.6 5.8 2 1.9 3.5 2.4 6.7 2.3 2.5-0.1 4.9-1 6-2 1.7-1.7 1.8-1.7 1.7-0.1 0 1.2 0.8 1.8 2.5 1.8 2.5 0 2.5-0.1 2.5-8.5 0-5.4-0.5-9.8-1.5-12-0.8-2-2.3-3.9-3.2-4.4-1-0.5-2.9-1.1-4.3-1.4-1.4-0.3-3.8-0.1-5.5 0.4zm56.5-0.2c-1.4 0.4-3.5 1.3-4.7 1.9-1.3 0.6-3 2.5-3.8 4.2-0.8 1.6-1.5 4.8-1.5 7 0 2.2 0.7 5.3 1.5 7 0.8 1.6 2.5 3.6 3.8 4.5 1.3 0.8 4.4 1.5 7.5 1.5 4.5 0 5.6-0.5 8.2-3 1.7-1.7 3-3.5 3-4 0-0.6-0.8-1.2-1.7-1.3-1-0.2-2.8 0.7-4 2-1.4 1.4-3.5 2.3-5.3 2.3-1.6 0-3.9-0.5-5-1-1.1-0.6-2.4-2.6-3-4.5-0.5-2-0.7-4.5-0.4-5.8 0.4-1.2 1.5-3.2 2.5-4.5q1.9-2.2 5.2-2.2c1.7 0 3.7 0.3 4.3 0.7 0.6 0.4 1.5 1.5 2 2.4 0.7 1.2 1.5 1.4 3.2 0.7 2-0.8 2.1-1 0.8-3.1-0.8-1.2-2.5-2.8-3.8-3.4-1.2-0.7-3.2-1.4-4.3-1.7-1.1-0.2-3.1-0.1-4.5 0.3zm-747.2 3.2l-3.3 3.3c4 0.5 5.4 0 6-0.9 0.6-0.9 2.4-1.7 4.1-1.8 1.7-0.1 3.9 0.4 4.8 1.3 0.9 0.8 1.7 2 1.7 2.7-0.1 0.7-1.8 1.5-3.8 1.8-2.1 0.4-5.1 1-6.8 1.5-1.6 0.5-3.7 1.6-4.5 2.6-0.8 0.9-1.5 3.1-1.5 4.9 0 1.7 0.7 3.9 1.5 4.9 0.8 0.9 3.1 2.1 5 2.7 2.8 0.8 4.2 0.7 7.2-0.8 2.7-1.3 3.7-1.5 3.8-0.6 0 0.7 0.9 1.3 2 1.3 1.9 0 2-0.6 1.8-10.9-0.2-9.1-0.6-11.1-2.2-12.7-1.3-1.3-3.8-2.1-7.2-2.3-4.9-0.3-5.5-0.1-8.6 3zm41.2 9.9v13h5v-26h-5zm41 0v13h5v-26h-5zm21 0v13h5c-0.3-26-0.3-26-2.6-26-2.4 0-2.4 0-2.4 13zm29.2-6.3c1.6 3.7 3.4 7.7 3.9 8.8 0.4 1.1 1.5 3.7 2.4 5.7 1.4 3.6 1.4 4-1 9.3-1.4 3-2.5 5.7-2.5 6 0 0.2 0.8 0.5 1.8 0.5 0.9 0 2.2-0.5 2.8-1.2 0.6-0.8 3.4-6.7 6.2-13.3 2.8-6.6 6-14.4 7.1-17.3l2.1-5.2c-4.7 0-5.4 0.9-8 7.7-1.7 4.3-3.4 8.7-3.9 9.8-0.6 1.5-1.5-0.1-4.4-7.8-3.5-9.3-3.8-9.7-6.6-9.7h-2.9zm38.3-4.3c-1.3 1.3-2.4 2.9-2.5 3.5 0 0.5 1 1 2.3 1 1.2 0.1 3-0.7 3.9-1.7 1-1.1 2.9-1.7 4.5-1.5 1.5 0.1 3.4 0.8 4.1 1.5 0.7 0.6 1.3 1.7 1.3 2.2 0 0.6-2.8 1.6-6.1 2.3-4.2 0.9-6.7 2-8.5 4-1.4 1.5-2.6 3.6-2.6 4.7 0 1.1 1 3.3 2.1 4.8 1.7 2.3 2.7 2.7 6.8 2.7 3.1 0 5.3-0.6 6.5-1.8 1.7-1.6 1.8-1.6 1.7 0.1 0 1.2 0.8 1.7 2.5 1.7h2.5c-0.5-20.7-0.6-21.3-3.2-23.6-2.2-1.8-3.9-2.4-7.8-2.4-4.1 0-5.6 0.5-7.5 2.5zm96.3-0.2c-1.4 1.2-3.1 3.2-3.7 4.5-0.6 1.2-1.1 4.1-1.1 6.5 0 2.8 0.7 5.4 2.2 7.6 1.5 2.2 3.8 3.9 6.3 4.8 3 1 5 1.1 7.8 0.3 2-0.5 4.7-2.2 6-3.7 1.3-1.5 2.6-4.6 3-6.8 0.5-2.2 0.4-5.3-0.2-7-0.5-1.6-2.3-4.2-4-5.7-2.6-2.3-4-2.8-8.3-2.8-4 0-5.9 0.6-8 2.3zm126.5 10.7l-0.3 13h5c0-25.8 0-26-2.2-26-2.3 0-2.3 0.3-2.5 13zm8.7-11c0 1.8 0.7 2 6.5 2 3.6 0 6.5 0.2 6.5 0.5 0 0.3-2.9 4.3-6.5 9-3.6 4.7-6.5 9.4-6.5 10.5 0 1.9 0.7 2 10.5 2 10.3 0 10.5 0 10.3-2.2-0.3-2.1-0.7-2.3-7-2-3.8 0.1-6.8-0.1-6.8-0.5 0-0.4 2.9-4.5 6.5-9 3.6-4.6 6.5-9.2 6.5-10.3 0-1.9-0.7-2-10-2-9.3 0-10 0.1-10 2zm25 11c0 12.3 0.1 13 2 13 1.9 0 2-0.7 2-13 0-12.3-0.1-13-2-13-1.9 0-2 0.7-2 13zm10 0v13c5 0 5 0 5-9.2-0.1-7.6 0.3-9.6 1.7-11 1-1 3-1.7 4.6-1.8 1.5 0 3.6 0.9 4.7 2 1.7 1.7 2 3.3 2 11 0 8.3 0.2 9 2 9 1.9 0 2-0.7 2-10.5 0-9.9-0.1-10.6-2.5-13-1.8-1.8-3.6-2.5-6.4-2.5-2.3 0-4.9 0.7-6.1 1.8-2 1.6-2.1 1.6-2 0 0-1.2-0.8-1.8-2.5-1.8h-2.5zm126 0c0 12.3 0.1 13 2 13 1.8 0 2-0.6 2-8.2-0.1-6.7 0.3-8.7 1.8-10.5 1-1.2 2.9-2.3 4.2-2.5 1.5-0.2 2.4-1.1 2.6-2.5 0.3-1.8-0.1-2.3-1.8-2.3-1.3 0-3.3 0.7-4.5 1.5-2 1.3-2.3 1.3-2.3 0 0-0.8-0.9-1.5-2-1.5-1.9 0-2 0.7-2 13zm35.5-9.7c-2.1 2-3.5 4.7-4 7.2-0.5 2.8-0.2 5.3 0.9 8.3 1.3 3.3 2.5 4.7 5.9 6.3 3.1 1.5 5.1 1.8 7.7 1.3 1.9-0.3 4.6-1.4 5.9-2.3 1.3-0.9 3-2.8 3.7-4.3 0.8-1.5 1.4-4.4 1.4-6.3 0-1.9-0.8-5.1-1.7-7.1-1-2-3-4.3-4.5-5-1.6-0.8-4.9-1.4-7.4-1.4-3.8 0-5.1 0.5-7.9 3.3zm25.5 9.7v13c5 0 5-0.1 5-8.2 0-5.7 0.5-9 1.5-10.5 0.8-1.3 2.7-2.4 4.3-2.5 2-0.2 2.8-0.9 3-2.5 0.2-1.8-0.3-2.3-2.2-2.3-1.4 0-3.4 0.8-4.6 1.8-2 1.6-2.1 1.6-2 0 0-1.2-0.8-1.8-2.5-1.8h-2.5zm86 0v13c5 0 5-0.1 5-8.7 0-6.2 0.4-9.5 1.5-11 1.1-1.7 2.5-2.3 5-2.3 2.5 0 3.9 0.6 5 2.3 1.1 1.5 1.5 4.8 1.5 11 0 8.1 0.2 8.7 2 8.7 1.9 0 2-0.7 2-11 0-10.8 0-11-2.7-13-1.7-1.2-4.3-2-6.5-2-2 0-4.6 0.8-5.8 1.8-2 1.6-2.1 1.6-2 0 0-1.2-0.8-1.8-2.5-1.8h-2.5zm59.7-11c-1.5 1.1-3.4 3.4-4.2 5-0.8 1.7-1.5 4.7-1.5 6.8 0 2.3 0.9 5.1 2.5 7.5 1.9 2.8 3.6 4 6.8 4.8 3 0.7 5.1 0.7 7.2-0.1 1.7-0.6 4-2.1 5.3-3.3 1.2-1.2 2.2-2.7 2.2-3.4 0-0.7-0.8-1.3-1.7-1.3-1 0-2.7 0.9-3.8 2-1.3 1.3-3.3 2.1-5.5 2.1-2.3 0-4.3-0.8-5.7-2.3-1.3-1.3-2.3-3.1-2.3-4 0-1.6 1.1-1.8 10-1.8 9.3 0 10-0.1 10-2 0-1.1-0.4-3.1-1-4.5-0.5-1.4-2.2-3.6-3.7-5-2.2-2-3.8-2.5-7.4-2.5-3 0-5.5 0.7-7.2 2zm-872.2-1222.9c-1.6 0.5-4.4 1.9-6.2 3.2-1.8 1.2-4.3 4-5.7 6.2-1.5 2.3-2.8 6.2-3.1 9-0.4 2.8-0.5 42.6-0.3 88.5l0.3 83.5c5.1 7.5 8.5 10.7 11.3 12.3l4.7 2.7h192c6.2-3.3 9.6-6 11.6-8.1 2.4-2.7 3.9-5.5 4.7-9.1 0.9-3.8 1.2-28.3 1.2-87 0-69-0.2-82.6-1.4-86.8-1-3.2-2.9-6.3-5.3-8.7-2.1-2-5.5-4.4-7.5-5.2-3.3-1.4-15.1-1.6-98.5-1.5-54.6 0.1-96.1 0.5-97.8 1zm536 1.3c-2.7 1.3-6 3.4-7.2 4.7-1.2 1.3-2.9 4.1-3.7 6.2-1.4 3.2-1.6 12.8-1.6 75.2 0 57.7 0.3 72.1 1.4 74.8 0.7 1.8 2.6 4.8 4.2 6.6 1.6 1.9 4.7 4.3 6.9 5.3 3.8 1.7 9.5 1.8 98.8 1.8 83.4 0 95.2-0.2 98.5-1.5 2-0.9 5-2.8 6.5-4.3 1.6-1.5 3.9-4.5 5-6.7 2.2-4 2.2-4.2 2.2-75 0-65.1-0.1-71.4-1.7-75.7-1.2-3.2-3.2-5.9-6-8.1-2.4-1.9-5.9-3.9-7.8-4.6-2.6-0.8-28.6-1.1-97-1.1h-93.5zm-203.5 126.7c-4.7 0.5-11.9 1.6-16 2.5-4.1 1-10.4 2.8-14 4.2-3.6 1.3-8.7 3.6-11.5 5-2.7 1.4-8.3 4.8-12.4 7.6-4.1 2.9-9.9 7.9-12.8 11.2-3 3.3-7.7 9.6-10.4 14-2.7 4.4-6.3 11.8-8 16.5-1.7 4.6-4 12.3-5.1 17-1.4 6.1-2.1 13.6-2.5 27-0.4 15.9-0.2 20.2 1.6 31 1.2 6.8 2.7 14.7 3.5 17.5 1.1 4.3 1.6 5 4.2 5.5 1.6 0.4 4.4 1.4 6.2 2.3 3.1 1.6 3.2 1.6 3.6-0.6 0.3-1.2 0.7-5.2 1.1-8.7 0.3-3.6 1.5-10.6 2.6-15.5 1.1-5 4.1-13.2 6.5-18.3 2.7-5.6 6.1-10.9 8.7-13.5 2.3-2.4 6.2-5.3 8.7-6.5 2.5-1.2 7.4-2.9 11-3.9 4.6-1.2 10.4-1.7 20-1.7 10.7-0.1 15 0.4 21 2.1 4.1 1.1 10.2 2.9 13.5 3.9 4.7 1.4 9.8 1.7 24 1.8 16.4 0 18.9-0.2 28-2.6 5.5-1.5 12.3-3.7 15-4.9 2.8-1.2 7.9-4 11.5-6.4 3.6-2.3 7.6-5.5 9-6.9 1.4-1.5 3.3-2.7 4.3-2.7 0.9 0 1.9 0.4 2.1 0.8 0.3 0.4 1 4.4 1.6 8.8 0.6 4.4 2 10.9 3.1 14.5 1.2 3.5 3.5 9.2 5.2 12.5 1.6 3.3 6.2 11.1 10.1 17.5 3.9 6.3 8 14.2 9.2 17.5 1.2 3.3 2.4 8 2.8 10.5l0.7 4.5 11.8-6c3.2-15.5 4.6-23.9 5.1-28.5 0.6-4.7 1-12.8 1-18 0-5.3-0.7-14-1.5-19.5-0.8-5.5-2.2-12.3-3.1-15-0.9-2.8-3.2-8-5.2-11.5-1.9-3.6-6.5-9.5-10.1-13.2-3.7-3.6-9.1-7.8-12.1-9.3-3-1.5-7.7-3-10.3-3.4-4.7-0.6-5-0.8-8-6.6-1.7-3.3-5.7-8.5-8.8-11.5-3.4-3.4-8.5-7-13-9.2-4.1-2-11-4.5-15.4-5.7-4.4-1.1-15-3-23.5-4.1-8.5-1.1-22-2.2-30-2.4-8-0.3-18.3-0.1-23 0.4zm104 90c-1.9 1.6-6.2 4.4-9.5 6.1-3.3 1.8-8.9 4.2-12.5 5.4-3.6 1.2-10.3 3-15 4-6.1 1.4-12.7 1.9-23.5 1.9-14.4 0-15.6-0.2-32-4.4-16.8-4.3-17.1-4.3-30-3.8-7.1 0.3-15 1.2-17.5 2-2.5 0.8-5.8 2.2-7.5 3-1.6 0.8-5 3.7-7.5 6.4-2.4 2.7-5.6 7.6-7.1 10.9-1.5 3.3-3.6 9.6-4.8 14-1.1 4.4-2.6 12.8-3.3 18.6-0.7 5.9-1.1 10.9-0.8 11.2 0.3 0.2 1.6 0.7 3 1 2.1 0.5 3 0 5.8-3.9 1.9-2.6 4.9-5.2 7.5-6.4 3.9-1.8 6.4-2 32.7-2 27.5 0 28.7 0.1 32.9 2.2 2.5 1.3 5.6 3.7 7 5.5l2.6 3.3c7-2.4 10.8-3.1 13-3 2.2 0 5.8 0.7 8 1.5 2.2 0.8 4.1 1.1 4.2 0.7 0.1-0.4 1.3-2.1 2.5-3.7 1.3-1.6 4.1-3.7 6.3-4.7 3.5-1.6 7.2-1.8 31-1.8 14.9-0.1 28.6 0.2 30.5 0.6 2.3 0.5 5.1 2.4 8.3 5.5 2.6 2.7 4.7 5.5 4.7 6.4 0 0.8 0.2 1.5 0.5 1.5 0.3 0 1.6-0.6 3-1.3 2-1 2.6-2 2.5-4.7 0-2-0.6-5.8-1.4-8.5-0.8-2.8-5.2-11.1-9.7-18.5-4.4-7.5-9.3-15.8-10.7-18.5-1.3-2.8-3.5-8-4.7-11.5-1.2-3.6-2.5-9.1-2.9-12.3-0.3-3.2-0.9-5.7-1.3-5.7-0.5 0-2.4 1.4-4.3 3zm-151.9 71.3c-1.9 0.7-4.2 2.3-5 3.6-0.9 1.3-1.8 4.8-2 7.9-0.2 3.1 0.4 9.5 1.4 14.2 0.9 4.6 2.8 10.6 4.1 13.2 1.3 2.6 3.6 5.6 5.2 6.7 1.5 1 5.2 2.5 8.2 3.1 3.5 0.8 10.8 1 20.5 0.7 11.8-0.3 16-0.8 19.4-2.3 2.5-1.1 6-3.7 7.8-5.9 1.8-2.2 4.1-6.1 4.9-8.5 0.9-2.5 1.8-8.8 2.1-14 0.5-7.6 0.2-10.2-1.1-12.8-1-2-3.2-4-5.8-5.2-3.9-1.8-6.5-2-30.3-2-18.6 0-27 0.4-29.4 1.3zm108.2 0.7c-1.8 1.1-4 3.4-4.9 5.2-1.3 2.6-1.6 5.1-1.2 12.3 0.4 5.7 1.3 10.9 2.7 14.5 1.2 3 3.3 6.9 4.6 8.7 1.4 1.8 4.4 4.3 6.8 5.5 3.9 2.1 5.5 2.3 22.2 2.3 11.7 0 19.2-0.5 21.5-1.3 1.9-0.6 5-2.7 6.7-4.5 1.8-1.8 4.1-5.7 5.2-8.7 1.1-3.1 2.4-9.1 3-13.5 0.8-5.6 0.8-9.1 0.1-11.5-0.6-2-1.7-4.6-2.5-5.8-0.8-1.2-3.2-2.9-5.2-3.8-3.1-1.2-8.8-1.5-29.8-1.5-24.2 0.1-26.2 0.2-29.2 2.1zm-152.5 4.4c-1.6 0.9-3.3 2.6-4 3.8-0.6 1.2-1.5 4.1-1.9 6.3-0.4 2.2-0.3 8.5 0.2 14 0.5 5.5 2 14 3.4 19 1.5 4.9 3.9 11.2 5.3 13.8 1.5 2.7 4.4 6.4 6.5 8.3 2 1.8 5.6 3.8 8 4.4 2.3 0.6 4.8 1.3 5.5 1.5 0.6 0.3 1.4 1 1.6 1.7 0.2 0.7 1.6 6.4 3 12.8 1.9 8.1 4.3 14.7 8.1 22.5 3 6 7.5 13.7 10 17 2.5 3.3 8.2 9.7 12.8 14.3 4.5 4.6 12 11.2 16.7 14.8 4.7 3.5 13.2 8.8 19 11.8 6.5 3.2 13.6 6 18.5 7.1 6.2 1.3 10.6 1.6 19.5 1.2 8-0.4 13.5-1.2 18-2.8 3.6-1.2 10.3-4.1 15-6.5 4.7-2.3 11.7-6.5 15.5-9.2 3.9-2.8 9.7-7.5 13-10.5 3.3-3 8.9-9 12.4-13.3 3.5-4.4 8.2-11.1 10.4-14.9 2.2-3.9 5.5-11.1 7.3-16 1.7-5 4.2-13.5 5.4-19 1.2-5.5 2.7-10.6 3.3-11.3 0.7-0.7 2.4-1.3 4-1.3 1.5 0 4.2-0.5 6-1.3 1.7-0.7 4.9-3.2 7-5.5 2-2.3 4.3-5.4 5.1-6.9 0.7-1.5 2.3-5.7 3.4-9.2 1.2-3.6 2.8-10.6 3.7-15.5 0.8-5 1.5-12.1 1.5-15.8 0-4.5-0.6-8-1.9-10.5-1-2.1-3.1-4.3-4.7-5.1-1.7-0.8-4.4-1.1-6.4-0.8-2 0.4-4.7 1.8-6.2 3.4-1.4 1.5-3.3 5-4.1 7.8-0.8 2.7-2.1 5.4-2.8 5.9-0.8 0.5-2.2 0.6-3.1 0.2-1.4-0.5-1.8-1.8-1.8-5.1 0-3-0.4-4.6-1.2-4.6-0.7 0-2.1 0.8-3 1.8-1 1-1.8 3.1-1.8 4.8 0 1.6-0.4 5.2-0.9 8-0.5 2.7-2 7.7-3.2 11-1.5 3.8-3.9 7.6-6.8 10.6-3.4 3.4-6 5.1-10.1 6.3-4.1 1.2-9.8 1.6-22 1.6-11.5 0-18-0.5-21.5-1.5-2.7-0.8-6.8-3-9-4.8-2.2-1.9-5.2-5.4-6.7-7.8-1.5-2.5-3.6-8-4.7-12.4-1.2-4.4-2.1-10.6-2.1-13.8v-5.7c-5.8-1.8-9.8-2.1-12.6-1.9-2.8 0.2-5.8 1-6.8 1.9-1.1 1-1.7 2.9-1.6 6 0 2.4-0.5 7.2-1.1 10.5-0.6 3.3-2.1 8.2-3.3 11-1.2 2.7-3.8 6.7-5.7 8.8-1.9 2.2-5.6 5.1-8.4 6.5-4.8 2.5-5.9 2.7-23 3-10.5 0.2-20.1-0.1-23-0.7-2.7-0.6-6.9-2.5-9.2-4.1-2.4-1.7-5.4-5-6.7-7.3-1.3-2.3-3.2-6.5-4.1-9.2-0.9-2.8-2.1-8.6-2.7-13-0.6-4.4-1.6-8.4-2.2-8.8-0.6-0.4-1.7-0.7-2.3-0.7-0.9 0-1.3 1.4-1.3 4.2 0.1 2.7-0.5 4.7-1.5 5.5-1.2 1-1.8 1-3.1 0-0.8-0.7-2.3-3.6-3.2-6.6-0.9-2.9-2.8-6.4-4.2-7.7-1.5-1.5-4.1-2.7-6.5-3-2.5-0.3-5 0.1-6.7 1zm55.2 162.8c0 16.2-0.1 16.8-2.4 19.5-1.3 1.5-6 4.7-10.5 7l-8.1 4.3c2.6 5 6.1 9.3 9.4 12.8 3.4 3.5 9.7 8.7 14.1 11.7 4.4 2.9 12.1 7.3 17 9.7 5 2.4 12.6 5.7 17 7.1 4.4 1.5 11.8 3.4 16.5 4.2 4.8 0.8 14.8 1.5 23 1.5 8 0 17.2-0.5 20.5-1.1 3.3-0.6 9.6-2.2 14-3.6 4.4-1.4 11.4-4.1 15.5-6 4.1-1.9 10.4-5.3 14-7.6 3.6-2.4 7.6-5.1 8.9-6.2 1.4-1.1 4.5-3.8 7-6 2.4-2.2 6.2-6.7 8.3-10 2.1-3.3 3.8-6.6 3.8-7.3 0-0.7-0.6-1.2-1.2-1.2-0.7 0-4.4-1.5-8.3-3.4-3.8-1.8-8-4.6-9.3-6.2-2.1-2.8-2.3-3.8-2.2-19.2v-16.2c-9.7 8.6-16.1 13.5-20.5 16.5-4.4 2.9-11.8 7.1-16.5 9.3-4.7 2.2-11.9 4.9-16 6.1-4.1 1.1-11.1 2.3-15.5 2.6-4.4 0.4-11.5 0.2-15.7-0.4-4.3-0.6-9.9-1.9-12.5-2.7-2.7-0.9-8.4-3.3-12.8-5.3-4.4-2.1-11.8-6.4-16.5-9.6-4.7-3.2-10.1-7.2-12-9-1.9-1.7-4.7-4.2-6.3-5.6l-2.7-2.4zm-295.1 630.5c-0.6 1.5-2 4.8-3 7.5l-1.9 4.7c11.3 0 11.9-0.2 11.4-1.7-0.4-1-1.5-4.4-2.5-7.5-1-3.2-2-5.8-2.4-5.8-0.3 0-1 1.2-1.6 2.8zm127.6 6.3c-1.5 1.1-2.7 2.7-2.6 3.5 0.1 1.1 1.8 1.4 7.6 1.4 4.3 0 7.5-0.4 7.5-1 0-0.5-1.1-2.1-2.5-3.5-1.4-1.4-3.6-2.5-4.9-2.5-1.3 0-3.6 0.9-5.1 2.1zm118 0.4c-1.3 1.3-2.5 2.9-2.5 3.5 0 0.6 2.9 1 7.5 1 6 0 7.5-0.3 7.5-1.5 0-0.8-1.3-2.4-2.8-3.5-1.5-1.1-3.8-2-5-2-1.3 0-3.4 1.1-4.7 2.5zm76.8-0.1c-2.3 2-2.8 3.2-2.8 6.9 0 3.5 0.6 5.2 2.5 7.2 1.7 1.7 3.5 2.6 5.7 2.5 2.4 0 4-0.8 5.8-3 1.6-1.9 2.5-4.2 2.5-6.5 0-2.5-0.8-4.3-3-6.5-1.7-1.7-4.1-3-5.5-3-1.3 0-3.7 1.1-5.2 2.4zm31.2-1.2c-1.1 0.6-2.6 1.9-3.2 2.7-0.7 0.9-1.3 3.5-1.3 5.9 0 3.2 0.6 4.8 2.5 6.7 1.4 1.4 3.7 2.5 5.2 2.5 1.7 0 3.7-1 5.3-2.5 1.9-2 2.5-3.7 2.5-7.2 0-3.6-0.5-4.9-2.8-6.9-1.5-1.3-3.5-2.4-4.5-2.4-0.9 0.1-2.6 0.6-3.7 1.2zm66 1.3c-1.7 1.7-2.4 3.6-2.5 6.5 0 2.2 0.3 4.7 0.7 5.6 0.4 1 2 2.3 3.5 3 1.8 0.9 3.8 1.1 5.4 0.7 1.5-0.5 3.3-1.7 4-2.8 0.8-1.1 1.4-3.9 1.4-6.2 0-3.2-0.6-4.9-2.5-6.8-1.4-1.4-3.7-2.5-5.1-2.5-1.4 0-3.6 1.1-4.9 2.5zm107.8-1.5c-1.2 0.5-2.9 2.2-3.9 3.7-1.3 2-1.6 3.8-1.1 6.3 0.4 1.9 1.7 4.5 2.9 5.8 1.4 1.3 3.5 2.3 5.3 2.3 1.8 0 3.8-0.9 5.1-2.3 1.2-1.3 2.3-3.4 2.7-4.8 0.3-1.4 0.1-3.8-0.3-5.5-0.5-1.6-1.5-3.5-2.2-4.2-0.7-0.6-2.4-1.4-3.8-1.7-1.4-0.3-3.5-0.1-4.7 0.4zm94.2 1.5c-1.3 1.3-2.5 2.9-2.5 3.5 0 0.6 2.9 1 7.5 1 6 0 7.5-0.3 7.5-1.5 0-0.8-1.3-2.4-2.8-3.5-1.5-1.1-3.8-2-5-2-1.3 0-3.4 1.1-4.7 2.5zm30.8-1.5c-1.2 0.5-2.8 1.9-3.7 3.2-0.9 1.3-1.6 3.3-1.6 4.6 0 1.2 0.7 3.6 1.5 5.2 0.8 1.7 2.6 3.5 4 4 1.6 0.6 3.4 0.7 5.1 0.1 1.4-0.5 3.2-2 4-3.3 0.8-1.3 1.4-3.4 1.4-4.8 0-1.4-0.4-3.6-0.8-4.9-0.4-1.3-2-3-3.5-3.7-1.5-0.8-3.1-1.4-3.5-1.3-0.4 0-1.7 0.4-2.9 0.9zm99.4 0.5c-1.7 0.9-3 2.8-3.6 4.8-0.4 1.7-0.4 4.6 0 6.2 0.5 1.7 1.9 3.8 3.1 4.8 1.3 1 3.5 1.8 5.1 1.7 1.6 0 3.8-1 5.2-2.5 1.7-1.7 2.5-3.6 2.5-6 0-1.9-0.5-4.5-1-5.7-0.6-1.3-2.2-2.9-3.5-3.5-1.4-0.7-3.1-1.3-3.8-1.3-0.7 0.1-2.5 0.7-4 1.5zm-51.8 8.4c-2 0.3-4.3 1.3-5.3 2.1-0.9 0.8-1.7 2.2-1.7 3 0 0.8 0.6 2.1 1.3 2.8 0.7 0.7 2.5 1.2 4 1.2 1.5 0 3.7-0.9 4.8-2 1.1-1.1 2-3.3 2-5 0-1.6-0.4-2.9-0.8-2.9-0.4 0.1-2.3 0.4-4.3 0.8zm-228.8 1.7c-1.5 1-2.3 2.4-2.3 4 0.1 1.3 0.9 2.6 1.7 2.9 0.8 0.3 2.6 0.5 4 0.5 1.5 0 3.2-1 4.5-2.7 1.1-1.6 2-3.6 2-4.5 0-1.4-0.9-1.8-3.8-1.8-2 0-4.8 0.7-6.1 1.6zm-446.6 56.9c-1.8 1.7-2.5 3.6-2.5 6.7-0.1 2.9 0.6 5.2 1.9 7.1 1.6 2 2.9 2.7 5.6 2.7 2.6 0 4.1-0.7 6-3 1.4-1.7 2.5-4.3 2.5-6 0-1.6-0.5-4-1.2-5.2-0.6-1.3-1.9-2.8-2.7-3.5-0.9-0.7-2.9-1.2-4.4-1.3-1.7 0-3.8 1-5.2 2.5zm135 0c-1.8 1.8-2.4 3.5-2.5 7 0 3.5 0.5 5.1 2.5 7 1.4 1.4 3.4 2.5 4.5 2.5 1.1 0 3.1-0.6 4.5-1.2 1.3-0.7 2.9-2.3 3.5-3.5 0.5-1.3 1-3.6 1-5.3q0-3-3-6c-1.8-1.8-4.1-3-5.6-3-1.4 0-3.6 1.1-4.9 2.5zm28.5-0.2c-1.3 1.3-2.3 2.9-2.2 3.5q0.2 1.2 7.7 1.2c6 0 7.5-0.3 7.5-1.5 0-0.8-1.3-2.4-2.8-3.5-1.5-1.1-3.9-2-5.3-2-1.4 0-3.6 1-4.9 2.3zm281.4-1.5c-0.6 0.4-1.8 1.8-2.7 3.2-1 1.4-1.7 3.6-1.7 5 0 1.4 0.9 4 2 5.8 1.7 2.7 2.6 3.2 5.9 3.2 2.2 0 4.6-0.7 5.5-1.5 0.9-0.8 1.9-2.7 2.2-4.2 0.3-1.6 0.4-4.1 0-5.8-0.3-1.6-1.7-3.8-3.1-4.7-1.4-1-3.5-1.8-4.8-1.8-1.2 0-2.7 0.4-3.3 0.8zm85.8-0.1c-0.7 0.3-1.9 1.8-2.7 3.4l-1.5 2.9c12.6 0 16-0.4 16-1 0-0.5-1.1-2.1-2.5-3.5-1.5-1.5-3.6-2.5-5.3-2.4-1.5 0-3.3 0.3-4 0.6zm70.3 1.4c-1.5 1.1-2.7 2.7-2.6 3.5 0.1 1.1 1.8 1.4 7.6 1.4 5.3 0 7.5-0.4 7.5-1.2 0-0.7-1-2.3-2.2-3.5-1.3-1.2-3.5-2.3-4.9-2.3-1.4 0-3.9 0.9-5.4 2.1zm-616.7 64.7c-1.5 0.2-3.6 1.5-4.8 3-1.2 1.6-2.1 4.2-2.1 6.2 0 2 0.9 4.7 2 6.3 1.7 2.2 2.9 2.7 6.1 2.7 3.2 0 4.4-0.5 6-2.7 1.1-1.6 2-4.3 2-6 0-1.8-0.4-4.1-0.9-5-0.5-1-1.9-2.5-3.2-3.3-1.4-0.8-3.6-1.4-5.1-1.2zm363.5 1.5c-1.5 1.3-3.2 3.8-3.6 5.6-0.4 1.7-0.3 4.1 0.1 5.4 0.5 1.2 1.6 3 2.5 4 0.9 0.9 3.1 1.7 4.9 1.7 1.8 0.1 4.4-0.8 5.8-1.9 2.1-1.6 2.5-2.8 2.5-7 0-3.7-0.6-5.6-2-7.1-1.1-1.1-3.2-2.2-4.7-2.5-1.9-0.4-3.5 0.2-5.5 1.8zm31.1-1.2c-1.2 0.5-2.8 2.5-3.8 4.4-1.3 2.8-1.4 4.3-0.6 7.5 0.5 2.3 1.8 4.4 3 5 1.1 0.6 3.6 1 5.5 1 2.8 0 3.9-0.6 5.5-3.2 1.5-2.4 1.9-4.3 1.5-6.8-0.3-1.9-1.5-4.5-2.8-5.6-1.2-1.2-3.1-2.4-4.2-2.7-1.1-0.3-3-0.1-4.1 0.4zm173.6-0.3c-1.4 0.2-3.3 1.1-4.3 2-1 1-2 3.3-2.3 5.2-0.4 2 0 4.7 0.7 6.4 0.8 1.6 2.2 3.3 3.1 3.7 1 0.5 2.9 0.9 4.3 0.9 1.5 0 3.4-1.1 5-3 1.4-1.6 2.5-4.1 2.5-5.5 0-1.4-0.4-3.5-0.9-4.7-0.5-1.3-1.9-3-3.2-3.8-1.3-0.9-3.5-1.4-4.9-1.2zm68.3 0.2c-1.2 0.4-3 1.7-4 2.9-1 1.2-1.6 2.3-1.3 2.6 0.3 0.3 4.1 0.4 8.5 0.3l8-0.3c-4.8-4.6-6.8-6-7.6-6.1-0.8 0-2.4 0.2-3.6 0.6zm-568.3 2.3c-1.9 1.9-2.4 3.3-2.2 7 0.1 3 0.8 5.3 1.9 6.3 1 0.9 2.5 2 3.3 2.4 0.8 0.4 2.9 0.3 4.7-0.1 2.5-0.7 3.7-1.8 4.9-4.6 1.3-3.1 1.4-4.5 0.5-7.5-0.6-2.1-2-4.2-3.1-4.8-1.1-0.5-3.3-1-4.9-1-1.6 0-3.8 1-5.1 2.3zm85-1.3c-0.9 0.6-2.1 2.6-2.8 4.5-0.9 2.5-0.9 4.5-0.2 7 0.5 1.9 1.9 4 3 4.5 1.1 0.6 3.3 1 5 1 1.6 0 3.9-0.9 5-2 1.1-1.1 2.3-3.2 2.6-4.7 0.3-1.6 0.3-3.8 0-5-0.3-1.3-1.5-3.2-2.6-4.3-1.2-1.2-3.3-2-5.3-2-1.8 0.1-3.9 0.5-4.7 1zm168.5 1.5q-2.4 2.4-2.5 6c0 1.9 0.5 4.5 1.1 5.8 0.7 1.2 1.7 2.5 2.3 2.9 0.6 0.4 2.7 0.8 4.6 0.8 2.1 0.1 4.1-0.6 5.2-1.7 0.9-1 1.9-2.9 2.3-4.3 0.4-1.4 0.2-4.2-0.4-6.2-0.6-2.1-2-4.2-3.1-4.8-1.1-0.5-3.2-1-4.6-1-1.4 0-3.6 1.1-4.9 2.5zm282.9-0.4c-1.3 1.5-1.9 3.6-1.9 6.9 0 3.4 0.6 5.4 2 6.9 1.3 1.5 3.2 2.2 5.7 2.1 2.9 0 4.2-0.6 5.8-2.7 1.1-1.6 2-4.3 2-6.3 0-1.9-0.9-4.7-2-6.2-1.6-2.2-2.8-2.8-5.9-2.8-2.6 0-4.4 0.7-5.7 2.1zm89.5 0.5c-1.3 1.7-2.1 4-2.1 6.3 0.1 2 1 4.8 2.1 6.4 1.7 2.2 2.9 2.7 6.1 2.7 2.9 0 4.5-0.6 6-2.2 1.4-1.6 2-3.7 2-6.8 0-3.4-0.5-5.1-2.2-6.7-1.6-1.5-3.6-2.3-6-2.3-2.8 0-4.2 0.7-5.9 2.6zm170.1-0.6c-1.1 1.1-2 2.5-2 3 0 0.6 3.1 1 7.5 1 4.1 0 7.5-0.3 7.5-0.7 0-0.5-0.7-1.8-1.5-3-1.2-1.7-2.5-2.3-5.5-2.3q-4 0-6 2zm-766.3 8.1c-1.5 0.5-2.9 1.8-3.2 2.9-0.3 1.1 0 2.7 0.7 3.6 0.7 0.8 2.6 1.5 4.3 1.5 1.6 0 3.7-0.8 4.7-1.8 0.9-1 1.9-3 2.2-4.5 0.5-2.6 0.4-2.8-2.7-2.7-1.8 0-4.5 0.5-6 1zm171.8-0.4c-1.1 0.3-2.6 1-3.3 1.7-0.7 0.6-1.3 1.8-1.3 2.6 0 0.8 0.8 2.2 1.8 3.1 1 0.8 2.9 1.4 4.3 1.3 1.4-0.1 3.3-1.2 4.3-2.5 1-1.3 1.7-3.4 1.7-4.6 0-1.8-0.6-2.3-2.8-2.2-1.5 0.1-3.6 0.4-4.7 0.6zm514.5 0.6c-1.8 0.9-2.5 2.1-2.5 4.2 0 2.7 0.3 3 3.5 3.3 1.9 0.2 4.3-0.3 5.2-1 1-0.7 2.1-2.8 2.5-4.6 0.8-3.2 0.7-3.2-2.7-3.2-1.9 0-4.6 0.6-6 1.3z"/><path fill-rule="evenodd" class="a" d="m203.8 176h48.2l6 6v20c0 13.2-0.4 20.8-1.2 22.3-0.6 1.2-1.8 2.7-2.7 3.4-1 0.8-5.5 1.2-23.1 1.3v25l61.5 0.5 0.5 30.5 9.1 0.2c8.5 0.3 9.2 0.5 11.5 3 2.4 2.8 2.4 3 2.4 44.8l-6 6-24-0.2c-23.4-0.3-24-0.4-26.2-2.6-2.2-2.2-2.3-2.9-2.8-45.2l2.9-3c2.9-3 3-3 26.1-3v-25h-117v25h12.5c12 0 12.6 0.1 17.5 5l0.1 42.5-5.1 5.5h-23.3c-12.7 0-24.3-0.4-25.6-0.8-1.3-0.4-3-1.9-3.7-3.4-1-2.1-1.4-7.8-1.4-22.3 0-15.3 0.3-20.1 1.5-22.5 0.8-1.6 2.5-3.2 3.7-3.5 1.3-0.3 5.7-0.6 17.3-1l0.5-30.5h62v-25h-10.5c-5.8 0-11.2-0.3-12.1-0.7-0.9-0.5-2.3-2-3-3.5-1.1-2.1-1.4-7.8-1.2-43zm582.1 10c1.1 0 2.1 0.6 2.1 1.3 0.1 0.7 0.1 1.9 0 2.7-0.1 0.9-5 15-10.8 31.5-5.8 16.5-14.3 40.6-19 53.5-4.6 13-8.9 24.3-9.4 25.3-0.5 1-1.5 1.8-2.1 1.8-0.7 0-1.8-0.5-2.4-1.3-0.9-1 1-7.5 8.2-27.8 5.2-14.5 14-39.3 19.5-55 5.6-15.6 10.5-29.2 11-30.2 0.5-1 1.9-1.8 2.9-1.8zm-56.5 21.3c1.1 0.1 2.2 1.1 2.3 2.2 0.3 1.5-4.1 6.3-33.9 35l17.2 17c12.9 12.9 17 17.5 16.5 18.8-0.3 1-1.4 1.8-2.3 1.8-1 0-10-8.2-20-18.3-10-10-18.4-18.7-18.5-19.2-0.2-0.6 8-9.3 18.2-19.3 13.3-13.2 19.1-18.2 20.5-18zm73.1 0c0.7 0.1 9.4 8 19.3 17.5 11.7 11.1 18.1 18 18.1 19.2 0 1.3-6.6 8.5-18.1 19.8-9.9 9.8-18.6 17.9-19.2 18.1-0.7 0.1-1.9-0.5-2.7-1.4-1.4-1.4 0.1-3.2 33-36l-16.5-16.5c-9.1-9-16.6-17.2-16.7-18-0.1-0.9 0.3-1.9 0.7-2.3 0.5-0.4 1.4-0.6 2.1-0.4zm-598-15c-0.3 5.1-0.6 13.2-0.6 18 0 4.8 0.5 9.6 1 10.7 1 2 2 2 22.8 2 12.4 0 22.2-0.4 22.8-0.9 0.5-0.5 0.9-9.1 0.8-20l-0.2-19.1h-45.9zm-57.6 100c-1.2 1-1.4 4.7-1.2 18.5 0.1 9.5 0.6 18.2 1.2 19.3 0.9 1.9 2 2 23 2 18.6 0 22-0.2 22.5-1.5 0.2-0.8 0.5-9.4 0.5-19 0-9.6-0.3-18.2-0.5-19-0.5-1.3-3.9-1.5-22.3-1.5-15.6 0-22.3 0.3-23.2 1.2zm117.5 39.3h44l0.3-39.5h-44.9z"/></svg>