<svg version="1.2" xmlns="http://www.w3.org/2000/svg" viewBox="0 0 1024 1024" width="100" height="100"><style>.a{fill:#83c2c1}</style><path fill-rule="evenodd" class="a" d="m211.5 46c-3.9 0.4-9.7 1.5-13 2.4-3.3 0.8-8.9 2.7-12.5 4.2-3.6 1.4-8.5 3.8-11 5.2-2.5 1.4-6.8 4.3-9.5 6.3-2.8 2-8 6.7-11.6 10.5-3.6 3.8-7.9 8.9-9.6 11.4-1.7 2.5-4.9 8.3-7.2 13-2.2 4.7-5.1 12.3-6.3 17-1.9 7.1-2.3 11-2.3 24 0 13.1 0.4 16.8 2.3 24 1.3 4.7 3.8 11.6 5.6 15.5 1.8 3.9 5.2 9.9 7.6 13.5 2.4 3.6 7.1 9.4 10.4 12.8 3.4 3.5 9 8.6 12.6 11.2 3.6 2.7 10.8 6.9 16 9.4 5.2 2.5 13.1 5.5 17.5 6.7 6.4 1.8 10.8 2.2 22.5 2.3 11 0 16.2-0.4 21.5-1.8 3.9-1 10.4-3.2 14.5-4.9 4.1-1.7 10.6-4.9 14.4-7.1 3.8-2.3 11-7.9 15.9-12.6 5.1-4.9 11.4-12.1 14.6-17 3.2-4.7 7.1-12.1 8.8-16.5 1.7-4.4 3.9-11.8 4.8-16.5 1.4-6.6 1.6-11.6 1.2-22-0.3-8.9-1.2-15.9-2.4-20.5-1.1-3.8-3.1-9.7-4.5-13-1.3-3.3-5-9.9-8.1-14.8-3.1-4.8-8.8-11.9-12.7-15.7-3.9-3.8-10.3-9.2-14.3-11.8-3.9-2.6-10.8-6.3-15.2-8.1-4.4-1.8-11.4-4.2-15.5-5.2-4.1-1.1-12-2.1-17.5-2.4-5.5-0.2-13.1 0-17 0.5zm532.1 102.3c-1.6 1.6-2.6 4.5-3.7 10.5l-1.4 8.2c-14.2 6-17 6.7-18.3 6.1-0.9-0.5-4.2-2.8-7.2-5-3.2-2.4-6.6-4.1-8.1-4.1-1.9 0-5.5 2.9-14.7 12.3-10 10-12.2 12.7-12.2 15.2 0 2.1 1.5 5 5 9.8l5 6.7-6.5 15.9c-13.6 2.1-16.8 3.2-18.5 4.7-2.5 2.2-2.5 2.4-2.5 18.9v16.7c4.5 3.9 7.2 5 10.2 5.3 2.7 0.3 6.6 0.9 8.8 1.4 2.2 0.5-99.5 0.9-230.5 1-232.3 0.1-234.6 0.1-241.3 2.1-5.3 1.6-7.9 3.1-12.3 7.3-3.2 3-6.7 7.5-8.2 10.7l-2.7 5.5c-0.5 395.9-0.5 399.6 1.5 404.8 1 2.8 3.3 7.1 5 9.4 1.6 2.4 5.4 5.9 8.2 7.8 3.2 2.1 7.7 4 11.3 4.7 3.3 0.7 6.1 1.3 6.2 1.5 0.2 0.2-0.8 2.4-2.1 5-1.3 2.7-5.3 12.2-8.9 21.3-3.6 9.1-9.5 26.2-13 38-3.6 11.8-7.9 25.3-9.6 30-1.8 4.7-6 13.9-9.4 20.5-3.5 6.6-7.9 14.5-9.9 17.5-3.2 5.1-3.7 5.5-6.9 5.1-1.9-0.2-5.2 0.3-7.4 1-2.2 0.7-5.4 2.5-7 3.9-1.6 1.5-5.8 6.9-9.1 12.1-3.4 5.2-11 17.3-16.9 26.9-7.9 13-10.5 18.1-10.1 19.7 0.3 1.3 1.4 2.3 2.3 2.3 1 0.1 2.5-0.7 3.4-1.7 0.9-1 6.2-9.4 11.9-18.8 5.7-9.4 13-20.9 16.2-25.8 3.2-4.8 7.3-9.6 9-10.7 1.8-1.1 4.3-2 5.5-2 1.3 0 20.4 10.3 42.5 22.9 22.2 12.5 52.2 29.6 66.8 37.8 24.2 13.7 26.7 15.4 28.4 18.9 1.2 2.5 1.6 4.8 1.1 6.4-0.4 1.4-5.2 10.2-10.7 19.5-7.4 12.6-9.7 17.4-9 18.5 0.5 0.8 1.9 1.5 3.1 1.5 1.9 0 4.2-3.2 12.8-18 5.8-9.9 10.8-19.3 11.1-21 0.2-1.7-0.3-5.1-1.2-7.7l-1.6-4.8c8.3-10.5 12.5-15.1 14.6-17 2.1-2 5.9-4.9 8.4-6.7 2.5-1.7 11.9-7 21-11.8 9.1-4.8 20.3-11.3 25-14.4 4.6-3.1 12.2-9.2 16.9-13.6 4.6-4.4 13-14.2 18.8-22 5.7-7.7 16.3-22.1 23.7-32 7.3-9.9 17.9-24.3 23.6-32 5.7-7.7 11.3-16 12.4-18.5 1.2-2.8 2-6.5 2-10-0.1-3-0.8-6.9-1.6-8.5-0.8-1.6-3.5-4.7-5.9-6.8-3.1-2.6-6.1-4.1-9.9-4.9-4.2-0.9-6.8-0.9-11 0-3 0.7-7.5 2.2-10 3.4-2.5 1.3-7 4.3-10 6.9-3 2.5-9 8.6-13.2 13.5-4.2 4.9-12.8 15.1-19.2 22.7-6.4 7.5-13 14.4-14.6 15.2-1.6 0.8-3.3 1.4-3.7 1.3-0.4-0.2-0.6-1.4-0.4-2.8 0.2-1.4 2.3-8.4 4.8-15.5 2.5-7.1 8.7-24 13.8-37.5 5.1-13.5 9.6-25.3 9.9-26.2 0.6-1.7 11.6-1.8 210.8-2l210.3-0.3c7.4-3.5 11.6-6.5 14.2-8.9 3-2.7 5.9-6.8 7.8-10.7l3-6.4c0.4-303.9 0.2-367.2-0.5-368.5-0.5-1.1-1.8-2-2.8-2-1 0-2.3 0.6-3 1.3-0.8 0.8-1.2 4.5-1.2 10.5v9.2c-30.5 0-39.9 0.4-41 1-1.1 0.6-2 1.9-2 3 0 1.1 0.9 2.4 2 3 1.1 0.6 10.5 1 21.5 1h19.5c0 278.3-0.4 339.8-1 342.3-0.6 2-2.5 5.6-4.3 7.9-2 2.7-5.4 5.4-9.2 7.3l-6 3c-372.7 0.4-414.4 0.2-414.1-0.8 0.3-0.6 5.1-13 10.8-27.4l10.3-26.3 271.7-0.5 5.8-6.5-0.5-250-5.5-5.5-354.2-0.5-6.8 7v249l7 7c18.6 0 24 0.3 24 0.7 0 0.5-3.2 7.3-7.1 15.3l-7.1 14.5c-8-4.3-12.8-5.8-15.8-6.2-3.2-0.3-7.4-0.1-10 0.6-2.5 0.6-6.4 2.7-8.8 4.6l-4.2 3.5c-8.1-3.9-13-5.3-16-5.7-4.9-0.6-6.3-0.3-12 2.5-3.6 1.7-7.9 4.4-9.5 6.1l-3 3c-5.4-3.7-9.1-5.3-11.8-5.9-2.6-0.5-6.2-0.7-8-0.4-1.7 0.4-5 1.5-7.2 2.5-2.2 1-5.8 3.8-8 6.1-2.2 2.4-5.5 6.5-7.3 9.1l-3.2 4.7c-8.1-1-12.5-2.3-15-3.5-2.5-1.3-5.7-3.6-7.2-5.2-1.5-1.5-3.6-4.8-4.7-7.3-2-4.5-2.1-5.6-2.1-174.8v-170.2c445.5 0 537.7-0.3 539-1 1.1-0.6 2-1.7 2-2.5 0-0.8-0.7-2.2-1.5-3-1.3-1.3-32.7-1.5-270.5-1.5h-269c0-46.4 0.3-50 1.8-53.5 1-2.2 3.6-5.8 5.8-7.9 2.1-2.2 5.7-4.8 7.9-5.8 3.8-1.6 15.9-1.7 241-1.7 130.3-0.1 237.1 0 237.2 0.2 0.1 0.1 0.9 1.9 1.7 3.9l1.6 3.8c-8.6 11.2-11 15.5-11 16.7 0 1.4 3.1 5.8 8.2 11.4 4.6 5.1 10 10.6 12.1 12.3 2.3 1.8 5 3.1 6.5 3 1.6 0 5.6-2.2 9.7-5.2 3.8-2.9 7.5-5.2 8-5.2 0.5 0 4.1 1.2 7.9 2.8 3.7 1.5 7.2 3.4 7.6 4.2 0.4 0.8 1.3 4.9 2 9 1 5.5 2 8.1 3.7 9.7 2.2 2.2 3.1 2.3 18.3 2.3 13.9 0 16.2-0.2 17.8-1.8 1-0.9 2.4-4.2 3.1-7.2 0.7-3 1.7-7.1 2.1-9 0.8-3.2 1.6-3.8 8.4-6.8 4.2-1.7 8.1-3.2 8.6-3.2 0.5 0 3.4 2 6.2 4.3 2.9 2.4 6.3 4.9 7.5 5.5 1.3 0.7 3.3 1 4.5 0.7 1.3-0.3 7.6-5.8 14-12.3 8.6-8.5 11.8-12.4 11.8-14.2 0-1.5-2.1-5.4-5.5-10-3-4.1-5.5-7.8-5.5-8.3 0-0.4 1.4-4 3.2-8 1.7-3.9 3.2-7.3 3.2-7.4 0.1-0.1 3.9-0.8 8.6-1.5 6.1-0.9 9.2-1.9 11-3.4 2.5-2.2 2.5-2.4 2.5-18.8 0-15.9-0.1-16.6-2.3-18.8-1.7-1.7-4.7-2.7-10.9-3.8l-8.7-1.5-6.4-15c8.4-12 10.8-15.9 10.8-16.5 0-0.6-0.6-2.2-1.4-3.8-0.8-1.5-6.3-7.5-12.3-13.4-7.2-7.1-11.6-10.7-13.1-10.8-1.2 0-5.2 2.1-9 4.6-3.7 2.6-7.2 4.9-7.7 5.1-0.5 0.3-4.4-1-8.5-2.7-4.1-1.8-7.6-3.3-7.7-3.4-0.1 0-1-3.9-2-8.6-1-4.6-2.6-9.5-3.6-10.7-1.6-2.2-2.2-2.3-18.2-2.3-15.9 0-16.7 0.1-18.9 2.2zm-522.4 155.8c-1.7 1.1-3.7 3-4.3 4.2-0.6 1.3-1.2 4.2-1.3 6.5q-0.1 4.2 2 7c1.1 1.5 3.8 3.6 6 4.7 2.8 1.3 4.8 1.7 7.4 1.1 2-0.4 4.9-2.2 6.7-4.1 2.7-2.8 3.3-4.2 3.3-7.9 0-2.5-0.7-5.9-1.5-7.5-0.8-1.6-2.9-3.7-4.5-4.5-1.7-0.8-4.7-1.5-6.8-1.5-2 0-5.2 0.9-7 2zm42.2 1.2c-3 2.8-3.7 4.1-4.1 8.3-0.3 3.9 0.1 5.7 1.6 8.2 1.2 1.8 3.7 4 5.6 4.8 1.9 0.8 4.5 1.5 5.7 1.5 1.3 0 3.9-1 5.8-2.2 1.9-1.3 4.3-4.1 5.4-6.3 1.3-2.9 1.7-4.9 1.1-7.5-0.4-2-2.2-4.9-4.1-6.8-2.9-2.7-4.1-3.2-8.4-3.2-4.3 0-5.6 0.5-8.6 3.2zm46-2.3c-1.2 0.4-3.3 2-4.5 3.6-1.6 1.8-2.5 4.3-2.7 7.3-0.3 3.7 0.1 5.5 2 8.2 1.2 1.9 3.9 4 5.8 4.8 2.1 0.9 5 1.2 7.2 0.8 2.3-0.4 5-1.8 6.8-3.6 1.6-1.6 3.3-4.5 3.6-6.3 0.4-1.7 0.4-4.4 0-6-0.3-1.5-1.8-4.1-3.4-5.8-2.2-2.5-3.6-3.2-7.7-3.5-2.8-0.2-6 0-7.1 0.5zm-75.4 126.7l-3.1 2.6 0.1 199.8 4.8 5.5h69.4l4.8-5.5v-199l-6-6h-66.8zm484.7-1.1c-1.5 0.8-3.2 2.4-3.8 3.5-0.6 1.3-1 36.7-1 100 0 63 0.4 98.9 1 100.5 0.6 1.4 2.4 3.2 4 4 2.6 1.3 8.3 1.5 36 1.3l33-0.3 5.5-5.5v-198.9l-5.5-5.6c-61-0.4-66.9-0.2-69.2 1zm-247.8 635.1c-1.5 1.8-2.1 3.9-2.1 6.5 0.1 3.5-0.1 3.9-2.4 3.9-2 0-2.5 0.5-2.5 2.5 0 2 0.5 2.5 2.5 2.5h2.5v24h5v-24c6.6 0 7-0.3 7-2.5 0-2.2-0.4-2.5-3.5-2.5-3.2 0-3.5-0.2-3.5-3.2 0-1.8 0.6-3.9 1.2-4.5 0.7-0.7 2.3-1.3 3.5-1.3 1.7 0 2.3-0.6 2.3-2 0-1.7-0.6-2-3.9-2-3 0-4.4 0.6-6.1 2.6zm34-1.4c-0.7 0.7-1.3 1.7-1.2 2.3 0.1 0.5 0.8 1.6 1.7 2.3 0.8 0.6 2.4 1 3.5 0.7q2-0.5 2-3c0-1.4-0.6-2.7-1.5-3-0.8-0.3-1.8-0.5-2.3-0.5-0.4 0-1.4 0.6-2.2 1.2zm95 6.8v8c-3.8-2.3-6.9-3-9.2-3-3 0-5.2 0.6-7.2 2.2-1.6 1.3-3.5 3.8-4.2 5.6-0.8 1.7-1.3 4.7-1.3 6.5 0 1.7 0.9 5.1 2 7.5 1.1 2.3 3.2 5 4.7 5.9 1.5 0.9 4.5 1.7 6.7 1.6 2.4-0.1 5.2-1 6.8-2.2 2.7-2.1 2.7-2.1 2.2-0.1-0.4 1.6 0 2 2 2h2.5v-42c-4.9 0-5 0.1-5 8zm12 13v21h5v-42h-5zm173.5-13c0 4.4-0.2 8-0.5 8-0.2 0-1.4-0.7-2.5-1.5-1.1-0.9-3.8-1.5-6-1.5q-4-0.1-6.9 2.2c-1.6 1.3-3.5 3.8-4.2 5.6-0.8 1.7-1.4 4.9-1.4 7 0 2 0.8 5.3 1.8 7.1 1 1.9 3 4.4 4.6 5.5 1.7 1.3 4.3 2.1 6.6 2.1 2.8 0 4.6-0.7 6.5-2.5l2.6-2.5c-0.1 4 0.5 4.5 2.4 4.5h2.5v-42h-5.5zm-659-5.5c-2.2 0.8-5.2 2.7-6.8 4.3-1.5 1.5-3.5 5-4.3 7.7-1 2.9-1.5 6.9-1.2 9.5 0.2 2.5 1.3 6.3 2.5 8.5 1.1 2.2 3.9 5.4 6.2 7 3.6 2.5 5.2 3 9.9 3 3.8-0.1 6.9-0.8 9.2-2.1 1.9-1.1 4.5-3.6 5.8-5.4 1.2-1.9 2.3-3.8 2.2-4.2 0-0.5-0.9-1-2-1.3-1.4-0.3-3.1 0.7-5.7 3.5-3.4 3.5-4.3 4-8.8 4-3.7 0.1-5.7-0.5-7.9-2.2-1.6-1.3-3.5-3.8-4.3-5.5-0.7-1.8-1.3-5.1-1.3-7.3 0-2.2 0.6-5.5 1.3-7.2 0.8-1.8 2.7-4.3 4.3-5.6 1.6-1.3 4-2.6 5.4-2.9 1.4-0.3 4.2 0 6.3 0.6 2.4 0.7 4.3 2.2 5.5 4.1 0.9 1.7 2.4 3 3.2 3 0.8 0 2.1-0.3 2.8-0.8 1-0.5 0.7-1.5-1-4.1-1.3-1.9-3.4-4.2-4.8-5.3-1.4-1-4.7-2-7.5-2.3-3.2-0.3-6.4 0-9 1zm537.6 6.3c1 3.7 3.6 12.7 5.6 20 3.8 13.2 3.8 13.3 6.8 13.3 3 0 3-0.2 5.9-10.8 1.6-5.9 3.6-13 4.4-15.8l1.5-5c8.3 30.9 8.3 31 11.3 31.3l2.9 0.3c8.3-29.1 10.9-38.2 11.1-38.8 0.3-0.8-0.6-1.3-2.6-1.3-2.5 0-3.1 0.5-3.8 3.3-0.5 1.7-2.4 9.1-4.2 16.2-1.9 7.2-3.5 12.6-3.7 12-0.2-0.5-2-7.7-4.1-16-3.7-14.9-3.8-15-6.7-15.3-2.9-0.3-3-0.2-5.2 7.5-1.2 4.3-3.2 11.6-4.4 16.3l-2.2 8.5c-5-18.6-6.9-25.9-7.6-28.2-1-3.8-1.4-4.3-4-4.3h-2.9zm133.9 13.3v20c4.9 0 5-0.3 5-6.8v-6.7c9.7-1 14-2 15.8-2.9 1.8-0.9 3.9-3 4.7-4.6 0.9-1.7 1.5-4.7 1.6-6.8 0-2.4-0.8-4.8-2.3-6.7-1.2-1.6-3.7-3.5-5.5-4.2-1.8-0.7-6.9-1.3-11.3-1.3h-8zm-561-13c0 3.6-0.2 4-2.5 4-2 0-2.5 0.5-2.5 2.5 0 2 0.5 2.5 2.8 2.5h2.7c0.6 18.1 1.1 20.9 2.3 22.2 1.1 1.1 3.1 1.8 5.3 1.8 2 0 3.9-0.4 4.2-0.8 0.3-0.4 0.4-1.5 0.2-2.5-0.3-1-0.9-1.5-1.5-1.2-0.5 0.2-1.9 0.2-3 0-1.8-0.5-2-1.4-2-10v-9.5c6.6 0 7-0.3 7-2.5 0-2.2-0.4-2.5-3.5-2.5-3.4 0-3.5-0.1-3.5-4 0-3.8-0.1-4-3-4-2.8 0-3 0.2-3 4zm202.5 3.7c-1.1 0.2-3 1.4-4.3 2.6l-2.4 2.2c1.1-4.2 0.8-4.5-1.3-4.5h-2.5v29c5 0 5-0.1 5-9 0-5 0.5-10.1 1.2-11.3 0.6-1.2 1.6-2.6 2.2-3 0.6-0.4 2.4-0.7 3.9-0.7 2.3 0 2.7-0.4 2.5-2.7-0.2-1.5-0.7-2.8-1.3-2.9-0.5-0.1-1.9 0-3 0.3zm119.9 0.4c-1.6 0.5-3.7 1.7-4.8 2.6-1.8 1.7-1.9 1.7-1.2-0.5 0.5-2 0.3-2.2-2.4-2.2h-3v29h6c0-19.3 0.2-20.2 2.5-22.5 1.3-1.4 3.5-2.6 4.7-2.6 1.3 0 3.1 0.8 4.1 1.8 1.4 1.4 1.7 3.7 1.7 12.5v10.8c5.2 0 5.9-0.4 5.5-1.5-0.2-0.9-0.5-6.2-0.4-11.8 0-8.4-0.3-10.6-1.8-12.5-1-1.2-3.2-2.6-4.9-3.1-1.7-0.4-4.4-0.4-6 0zm-404.4 14.4v14.5h6c0-18.7 0.3-20.3 2-22 1.1-1.1 3.2-2 4.5-2 2 0 2.5-0.5 2.5-2.5 0-2-0.5-2.5-2.5-2.5-1.4 0-3.7 1-5.1 2.2l-2.6 2.3c1.1-4.3 0.9-4.5-1.8-4.5h-3zm23.5-12.3c-1.6 1.2-3.4 3.7-4.2 5.5-0.7 1.8-1.3 4.8-1.3 6.8 0 1.9 0.5 4.7 1.1 6.2 0.6 1.5 2 3.8 3.2 5.1 1.2 1.2 3.8 2.7 5.7 3.2q3.5 0.9 7.5-0.2c2.2-0.6 5-2.2 6.3-3.5 1.2-1.3 2.2-2.8 2.2-3.3 0-0.6-0.9-1.3-2-1.5-1.3-0.4-2.9 0.4-4.4 2-1.6 1.5-3.6 2.5-5.5 2.5-1.8 0-4.1-1-5.5-2.3-1.3-1.2-2.7-3.3-3-4.5-0.6-2.2-0.5-2.2 10.4-2.2h11c-0.9-5.9-1.8-8.8-2.6-10.3-0.7-1.5-2.7-3.4-4.4-4.2-1.6-0.9-4.9-1.5-7.3-1.5-3 0-5.2 0.7-7.2 2.2zm29.4 0.8c-1.6 1.6-2.7 3.5-2.5 4.2 0.1 0.7 1 1.4 2 1.5 0.9 0.1 2.7-0.9 4.1-2.2 1.3-1.4 3.6-2.5 5-2.5 1.4 0 3.4 0.9 4.5 2 1.1 1.1 2 2.9 2 4 0 1.7-0.7 2-6.4 2.2-4.7 0.2-7.2 0.8-9.2 2.4-2 1.4-3 3.1-3.2 5.5-0.1 1.8 0.5 4.4 1.3 5.6 0.8 1.2 3.1 2.7 5 3.3q3.5 1 7 0c2-0.6 4-1.8 4.5-2.8 0.9-1.5 1-1.5 1 0.5 0 1.7 0.6 2.3 2.5 2.3h2.5c0-18.3-0.4-23-1.3-24.8-0.8-1.5-2.1-3.1-3-3.5-0.9-0.4-4.2-0.7-7.3-0.7-4.8 0-5.9 0.3-8.5 3zm50.6-0.8c-1.6 1.2-3.4 3.7-4.2 5.5-0.7 1.8-1.3 5.1-1.3 7.3 0 2.2 0.7 5.3 1.5 7 0.9 1.6 2.8 3.9 4.3 5 1.5 1.1 4.1 2.3 5.7 2.6 1.7 0.3 4.8-0.2 7-1 2.2-0.9 4.9-2.8 5.9-4.3 1.5-2.3 1.6-3 0.5-3.6-0.8-0.4-1.7-0.7-2.1-0.7-0.4 0-1.8 1.1-3.2 2.5-1.6 1.5-3.6 2.5-5.5 2.5-1.8 0-4.1-1-5.5-2.3-1.3-1.2-2.7-3.3-3-4.5-0.6-2.2-0.5-2.2 10.4-2.2h11c-1-5.9-1.9-8.7-2.6-10-0.8-1.4-2.8-3.3-4.4-4.3-1.6-1-4.9-1.7-7.3-1.7-3 0-5.2 0.7-7.2 2.2zm42.5 0.7c-1.5 1.6-2.9 3.6-2.9 4.5 0 0.9 0.7 1.6 1.9 1.6 1.1 0 2.9-1.2 4-2.5q2-2.5 5-2.5c1.7 0 3.9 0.9 5 2 1.1 1.1 2 2.7 2 3.7 0 1.5-1.2 1.9-7.2 2.5-5.7 0.5-7.8 1.2-9.6 3-1.8 1.7-2.2 3.2-2 6.2 0.2 2.9 1 4.4 3.1 6 2 1.4 4.1 2 7 1.9 2.9-0.2 4.9-0.9 6.5-2.5l2.3-2.3c-0.1 4 0.5 4.5 2.4 4.5h2.5c-0.5-23.9-0.5-24.3-3.2-26.6-2.2-2-3.9-2.4-8.4-2.4-4.8 0-5.9 0.3-8.4 2.9zm41 9.1c0 11 0.2 12.2 2.3 14.6 1.8 2.1 3.2 2.6 6.9 2.7 3.7 0.1 5.2-0.3 7.3-2.3l2.6-2.5c-0.1 4 0.5 4.5 2.4 4.5h2.5v-29h-6c0 19.2-0.2 20.1-2.4 22.5-1.4 1.3-3.5 2.5-4.8 2.5-1.2 0-3-0.8-4-1.8-1.4-1.4-1.7-3.7-1.7-12.5l-0.1-10.7h-5zm32.6-10c-2.2 1.7-2.8 2.9-2.7 5.8 0 2 0.6 4.2 1.3 4.9 0.7 0.7 4.2 2.2 7.8 3.5 4.7 1.6 6.6 2.8 6.9 4.3 0.2 1.1-0.5 2.5-1.5 3.2-1 0.7-2.9 1.3-4.1 1.3-1.3 0-3.4-1.2-4.8-2.5-1.3-1.4-3.4-2.5-4.5-2.5-1.1 0-2 0.5-2 1.2 0 0.7 0.9 2.5 2 4 1.1 1.6 3.6 3.2 5.8 3.7q3.7 1 7.2 0c2-0.5 4.1-1.6 4.9-2.2 0.8-0.7 1.8-2.4 2.3-3.7 0.6-1.6 0.5-3.5-0.1-5-0.6-1.4-2.1-3.1-3.3-3.8-1.3-0.7-4.2-1.8-6.7-2.5-2.4-0.7-4.8-2.1-5.5-3-0.9-1.5-0.7-2.1 0.9-3.3 1.1-0.8 2.9-1.5 4-1.5 1.1 0 2.9 0.9 4 2.1 1.1 1.1 3 2 4.3 2 1.2 0 2.2-0.5 2.2-1 0-0.6-1.3-2.4-3-4-2.5-2.5-3.8-3-7.8-3-3.4 0-5.7 0.6-7.6 2zm28.9-0.2c-1.7 1-3.7 3.6-4.7 6-1 2.3-1.8 5.5-1.8 7.2 0 1.6 0.6 4.4 1.3 6.2 0.8 1.8 2.7 4.2 4.3 5.4 1.6 1.1 4.2 2.4 5.7 2.7 1.5 0.4 4.2 0.3 6-0.1 1.8-0.3 4.8-2.3 6.7-4.2l3.4-3.5c-4.8-1.4-5.9-1-7.8 1-1.6 1.5-3.6 2.5-5.5 2.5-1.9 0-4-1-5.6-2.5-1.3-1.4-2.5-3.4-2.5-4.5 0-1.9 0.7-2 10.5-2 9.9 0 10.5-0.2 10.5-2 0-1.1-0.8-3.9-1.7-6.2-1-2.3-3-5-4.5-6-1.6-1.1-4.5-1.8-7-1.8-2.4 0-5.6 0.8-7.3 1.8zm82.5 12.7v14.5c5 0 5-0.1 5-9.8 0-7 0.4-10.4 1.5-12q1.5-2.2 4.5-2.2c2.5 0 3.1-0.5 3.3-2.5 0.2-2.1-0.2-2.5-2.6-2.5-1.5 0-3.9 1-5.2 2.2l-2.5 2.3c0-3.9-0.6-4.5-2-4.5-1.9 0-2 0.6-2 14.5zm19 0v14.5h5v-29h-5zm16.4-11.3c-3 2.7-3.7 4.1-4.1 8.3-0.3 2.7-0.3 6.2 0.1 7.7 0.3 1.5 1.8 4.1 3.1 5.8 1.4 1.6 4.2 3.4 6.3 3.9 2.4 0.7 5 0.7 7.5 0 2.2-0.5 4.8-2.2 6.3-4.2 2.6-3.2 2.6-3.3 0.6-4.2-1.6-0.8-2.6-0.5-5.1 1.7-1.7 1.5-4.2 2.8-5.6 2.8-1.4 0-3.7-1.3-5.5-3-1.6-1.7-3-3.7-3-4.5 0-1.3 1.9-1.5 10.8-1.6h10.7c-0.9-5.8-1.6-8.3-2.2-9.4-0.5-1.1-2.3-3.1-3.9-4.3-2.1-1.7-4.1-2.3-7.6-2.3-4 0.1-5.4 0.6-8.4 3.3zm100.6-2.7c0 0.2 2.3 6.5 5 14 2.8 7.4 5 14.2 5.1 15.2 0 1-0.9 3-2 4.5-1.2 1.5-3 2.8-4.1 2.8-1.1 0-2.2 0.8-2.5 2-0.3 1.4 0.1 2.1 1.5 2.5 1.1 0.2 3.2-0.1 4.7-0.8 1.5-0.7 3.5-2.6 4.5-4.2 1-1.7 4.5-10.2 7.8-19 3.3-8.8 6-16.4 6-16.8 0-0.4-1.2-0.8-2.7-0.8-2.7 0-2.9 0.5-6.3 11.5-1.9 6.3-3.7 11.1-4 10.8-0.3-0.4-2.1-5.6-4-11.5-3.3-10.3-3.6-10.8-6.2-10.8-1.5 0.1-2.8 0.3-2.8 0.6zm97.5 1.7c-1.6 1.2-3.4 3.7-4.2 5.5-0.7 1.8-1.3 5.2-1.3 7.5 0 2.5 0.9 5.6 2 7.5 1.1 1.8 3 3.9 4.3 4.8 1.2 0.8 4.4 1.5 7.2 1.5 3.5 0.1 5.8-0.5 7.5-1.9 1.4-1 3.4-3.1 4.5-4.6 1.4-1.9 2-4.2 2-7.9-0.1-2.8-0.9-6.6-1.8-8.4-0.9-1.8-3-3.9-4.7-4.7-1.6-0.9-5.2-1.5-7.8-1.5-3.5 0-5.6 0.6-7.7 2.2zm27.5 12.3v14.5c5 0 5-0.1 5.3-9.9 0.2-8.3 0.5-10.3 2.2-12.1 1.2-1.2 3.2-2.1 4.8-2.1 2.3 0.1 2.7-0.4 2.7-2.4 0-2.1-0.4-2.5-3-2.5-1.6 0-3.9 0.9-5 2l-2 2c0-3.5-0.6-4-2.5-4h-2.5zm83 0v14.5h6c0-18.8 0.3-20.8 1.7-22.3 1-0.9 3.1-1.7 4.6-1.7 2.2 0 2.7-0.5 2.7-2.5 0-2.1-0.5-2.5-2.7-2.6-1.5 0-3.8 0.9-5 2-2.3 2.1-2.3 2.1-2.3 0.1 0-1.5-0.6-2-2.5-2h-2.5zm22.7-12.5c-1.5 1.1-3.3 3.3-4.2 5-0.8 1.6-1.5 5-1.5 7.5 0 2.4 0.7 5.7 1.4 7.2 0.8 1.5 2.3 3.5 3.3 4.5 1 0.9 3.4 2.2 5.3 2.7q3.5 1 7.3 0c2.2-0.5 4.8-2.2 6.3-4.2 2.7-3.2 2.7-3.2 0.6-4.2-1.8-0.9-2.6-0.5-4.7 1.7q-2.5 2.8-5.5 2.8c-1.7 0-4-1-5.4-2.3-1.3-1.2-2.7-3.3-3-4.5-0.6-2.2-0.5-2.2 10.4-2.2 10 0 11-0.2 10.6-1.8-0.2-1-0.7-3.1-1-4.7-0.4-1.7-1.4-4-2.4-5.1-0.9-1.1-2.7-2.6-3.9-3.3-1.3-0.6-4.2-1.1-6.6-1.1-2.8 0-5.3 0.7-7 2zm27.9 0c-2 1.6-2.7 2.9-2.7 5.3 0.1 1.7 0.7 4 1.4 4.9 0.7 1 4.1 2.8 7.7 4 4.7 1.7 6.6 2.8 6.9 4.3 0.2 1.1-0.5 2.5-1.5 3.2-1 0.7-2.9 1.3-4.1 1.3-1.3 0-3.4-1.2-4.8-2.5-1.3-1.4-3.4-2.5-4.5-2.5-1.1 0-2 0.5-2 1.2 0 0.7 0.9 2.5 2 4 1.2 1.6 3.6 3.2 5.8 3.7 2.3 0.7 5 0.7 7.2 0.1 2-0.5 4.3-1.7 5.3-2.7 1-1 1.9-3.3 2-5.1 0.1-2.1-0.5-3.9-1.8-5.2-1.1-1.2-4.4-2.9-7.5-3.9-3-1-5.9-2.6-6.5-3.6-0.7-1.3-0.5-2 1-3.1 1.1-0.8 3-1.5 4.3-1.5 1.2 0.1 2.8 1 3.5 2.1 0.7 1.2 2.3 2 4 2 1.5 0 2.7-0.5 2.7-1 0-0.6-1.3-2.4-3-4-2.5-2.5-3.8-3-7.8-3-3.4 0-5.7 0.6-7.6 2zm26 0.2c-1.4 1.2-2.8 3.4-3.1 4.8q-0.6 2.5 1.3 5c1.3 1.6 4.1 3.1 8.1 4.2 3.4 1 6.4 2.4 6.6 3.3 0.3 0.8 0.5 1.7 0.5 2 0 0.2-0.7 1.1-1.5 2-0.9 0.8-2.7 1.5-4 1.5-1.4 0-3.6-1.2-5-2.5-1.3-1.4-3.4-2.5-4.5-2.5-1.2 0-2 0.6-2 1.7 0 1 1 2.7 2.3 3.9 1.2 1.2 3.6 2.7 5.2 3.4 2.3 0.8 4.1 0.8 7.4-0.2 2.4-0.7 5-2.2 5.8-3.3 0.7-1.1 1.3-3.5 1.3-5.3 0-2.4-0.7-3.8-2.7-5.3-1.5-1.1-5.1-2.7-8-3.5-3.8-1-5.3-1.9-5.3-3.2 0-1 0.5-2.3 1.2-3 0.7-0.7 2.5-1.2 4-1.2 1.7 0 3.3 0.7 4.1 2 0.7 1.1 2.2 2 3.5 2 1.6 0 2.2-0.6 2.2-2 0-1.1-1.2-3-2.7-4.1-1.9-1.4-4.3-2-7.5-2-3.4 0.1-5.3 0.7-7.2 2.3zm-460.6 11.3c0 2.4 0.2 2.5 8 2.5 7.9 0 8-0.1 7.9-2.5-0.1-2.5-0.3-2.5-8-2.5-7.7 0-7.9 0-7.9 2.5zm-270 69.5v21h5v-42h-5zm75-19.8c-0.7 0.6-1.3 2-1.2 3 0.1 1 1 2.2 2 2.7 1 0.5 2.4 0.5 3.5 0 0.9-0.5 1.7-1.7 1.7-2.7 0.1-1-0.5-2.3-1.2-3-0.7-0.7-1.7-1.3-2.3-1.3-0.6 0.1-1.7 0.6-2.5 1.3zm62 0.8c-1.4 1.4-2 3.3-2 6.5 0 4.1-0.2 4.5-2.5 4.5-2 0-2.5 0.5-2.5 2.5 0 2 0.5 2.5 2.5 2.5h2.5v24h5v-24c5.6 0 6-0.4 6-2.8 0.1-2.6-0.1-2.7-3-2-2.9 0.7-3 0.7-3-3 0-2.1 0.5-4.3 1.2-5 0.7-0.7 2-1.2 3-1.2 1.2 0 1.8-0.8 1.8-2 0-1.7-0.6-2-3.5-2-2.1 0-4.2 0.7-5.5 2zm78 19v21c4.1 0 5-0.6 5-1.5 0-1.3 0.7-1.2 3.8 0.5 2 1.1 4.6 2 5.7 2 1.1 0 3.5-0.8 5.4-1.8 1.8-0.9 4.2-3.3 5.2-5.2 1.1-2.1 1.9-5.5 1.9-8.3 0-2.6-0.8-6.4-1.9-8.5-1-2.1-3-4.3-4.5-5-1.4-0.7-4.3-1.2-6.3-1.3-2.1 0-4.7 0.7-5.8 1.5-1.1 0.8-2.2 1.5-2.5 1.5-0.2 0.1-0.4-3.5-0.2-7.9l0.2-8h-6zm64.1-19.5c-0.6 0.8-1 2.2-0.8 3.2 0.2 1.2 1.2 1.8 3.2 1.8 2.1 0 3.1-0.6 3.3-1.8 0.1-1-0.3-2.4-1-3.3-0.7-0.8-1.8-1.5-2.4-1.5-0.6 0-1.6 0.7-2.3 1.6zm11.9 19.5v21h5v-42h-5zm32-13v8c-3.5-2.4-6.3-3.1-8.5-3.1-2.5 0-5 0.8-6.7 2-1.5 1.1-3.4 3.4-4.3 5.1-0.8 1.6-1.5 5-1.5 7.5 0 2.4 0.8 6.1 1.8 8.1 0.9 1.9 2.9 4.3 4.2 5.1 1.4 0.9 4.4 1.6 6.7 1.7 3.1 0 4.8-0.5 6.8-2.4l2.6-2.5c-0.1 4 0.5 4.5 2.4 4.5h2.5v-42h-6zm13-6.8c-0.7 0.6-1.3 2-1.2 3 0.1 1 1 2.2 2 2.7 1 0.5 2.4 0.5 3.5 0 0.9-0.5 1.7-1.7 1.7-2.7 0.1-1-0.5-2.3-1.2-3-0.7-0.7-1.7-1.3-2.3-1.3-0.6 0.1-1.7 0.6-2.5 1.3zm287 0c-0.7 0.6-1.3 2-1.2 3 0.1 1 1 2.2 2 2.7 1 0.5 2.4 0.5 3.5 0 0.9-0.5 1.7-1.7 1.7-2.7 0.1-1-0.5-2.3-1.2-3-0.7-0.7-1.7-1.3-2.3-1.3-0.6 0.1-1.7 0.6-2.5 1.3zm-656 31.8v20c4.1 0.3 5.4 0 5.7-0.5 0.2-0.6 0.3-3.9 0.1-7.3-0.1-3.4 0-6.3 0.2-6.3 0.3 0 1.2 0.7 2 1.6 0.9 0.8 2.9 1.8 4.5 2.1 1.7 0.3 4.6-0.1 6.8-1 2-0.9 4.5-2.9 5.4-4.4 1-1.5 2-4.3 2.3-6.2 0.4-2 0.3-5.3-0.1-7.5-0.6-2.9-1.9-5-4.6-7.4-3.4-3-4.3-3.4-8.4-3-2.8 0.2-5.5 1.1-6.8 2.4l-2.1 2c0-4-0.5-4.5-2.5-4.5h-2.5zm45-8.3c0 8.8 0.4 12.3 1.5 14 0.8 1.2 3.1 2.7 5 3.3 2 0.5 4.5 0.7 5.8 0.3 1.2-0.3 3.3-1.5 4.5-2.7l2.3-2.1c-0.1 4 0.5 4.5 2.4 4.5h2.5v-29l-5.5 0.5c-0.9 18.4-1.3 20.6-3 22.4-1.1 1.2-3.2 2.1-4.7 2.1-1.7 0-3.3-0.9-4.3-2.3-1.1-1.6-1.5-5-1.5-12.5v-10.2h-5zm34.7-9.8c-1.5 1.1-3.3 3.4-4.2 5-0.8 1.7-1.5 4.6-1.5 6.5 0 1.9 0.7 5.1 1.5 7 0.9 1.9 3 4.4 4.8 5.5 1.8 1.1 5 2 7.2 2 2.2 0 5-0.7 6.3-1.5 2.1-1.4 2.2-1.4 2.3 1.3 0 1.5-0.9 3.9-2 5.5-1.7 2.3-2.8 2.7-6.6 2.7-3.6 0-4.8-0.5-6.2-2.4-1.2-1.7-2.5-2.3-4-2-1.3 0.2-2.3 0.9-2.3 1.4 0 0.6 1.3 2.5 3 4.3 2.7 3 3.2 3.2 9.9 3.2 6.4 0 7.4-0.3 9.9-2.8l2.7-2.7c0.4-34.3 0.4-35-1.5-35-1.1 0-2.2 0.9-2.5 2-0.5 2-0.5 2-3.2 0-1.8-1.3-4.3-2-6.9-2-2.5 0-5.1 0.8-6.7 2zm28.3 12.5v14.5h5v-29h-5zm12 0v14.5c5 0 5 0 5.3-10.1 0.2-9.6 0.4-10.2 3-12.5 1.5-1.3 3.6-2.4 4.7-2.4 1.1 0 2.9 0.9 4 2 1.8 1.8 2 3.3 2 12.5v10.5h5c0-22.9 0-23-3-26-2.2-2.2-3.9-3-6.7-3-2.3 0-4.9 0.8-6.5 2-2.8 2-2.8 2-2.8 0 0-1.5-0.6-2-2.5-2h-2.5zm67.5-12.7c-1.6 1-3.8 3.6-4.8 5.8-1.4 2.9-1.8 5.2-1.4 8.9 0.3 2.8 1.4 6.1 2.5 7.5 1 1.4 3.4 3.3 5.3 4.3 2.4 1.2 4.7 1.7 7.4 1.3 2.2-0.3 5.2-1.3 6.5-2.4 1.4-1 3.3-3.4 4.3-5.3 0.9-1.8 1.7-5.1 1.7-7.1 0-2.1-0.8-5.4-1.7-7.5-1-2-3.1-4.5-4.8-5.5-1.7-1-4.9-1.8-7.5-1.8-2.5 0-5.8 0.8-7.5 1.8zm27-1.1c-0.4 0.3-0.7 6.9-0.6 14.5l0.1 13.8h6c0-18.7 0.3-20.3 2-22 1.1-1.1 3.2-2 4.5-2 2 0 2.5-0.5 2.5-2.5 0-1.9-0.5-2.5-2.2-2.5-1.3 0-3.5 0.9-5 2-2.8 2-2.8 2-2.8 0 0-1.3-0.6-2-1.8-2-1 0-2.2 0.3-2.7 0.7zm66.5 11.3c0 11.3 0.2 12.2 2.4 14.8 2 2.2 3.3 2.7 7 2.7 3.4 0 5.1-0.6 7.1-2.5l2.6-2.5c-0.1 4 0.5 4.5 2.4 4.5h2.5l-0.5-28.5c-4.8 0-4.8 0.1-4.9 9.7-0.1 8.9-0.3 9.9-2.6 12.3-1.3 1.4-3.6 2.6-5 2.6-1.3 0-3.2-0.8-4.2-1.8-1.4-1.5-1.7-3.7-1.7-12.5l-0.1-10.8h-5zm31 2.5v14.5h5v-29h-5zm57 0v14.5h5v-29h-5zm12 0v14.5c5 0 5 0 5-9.5 0-9.1 0.1-9.6 3-12.5 1.6-1.6 3.6-3 4.5-3 0.8 0 2.7 1.1 4 2.5 2.4 2.3 2.5 3.2 2.5 12.5v10h5c-0.5-23.9-0.5-24.2-3.2-26.6q-2.8-2.4-6.5-2.4c-2.3 0-4.9 0.8-6.5 2-2.8 2-2.8 2-2.8 0 0-1.5-0.6-2-2.5-2h-2.5zm36.4-13.5c-1.2 0.5-3.1 2.4-4.3 4.2-1.8 2.7-2.1 4.5-1.9 9.6 0.3 5.9 0.6 6.6 4.1 9.8 3 2.8 4.6 3.4 8 3.4 2.3 0 5.1-0.6 6.2-1.4 1.1-0.9 2.3-1.5 2.5-1.5 0.3 0 0.3 1.7 0 3.7-0.2 2.1-1.1 4.6-2 5.6q-1.5 1.7-5.7 1.7c-3.2-0.1-4.8-0.7-6.5-2.5q-2.3-2.5-4.5-2c-1.3 0.2-2.3 0.6-2.3 0.9 0 0.3 0.8 1.7 1.8 3.1 0.9 1.5 3 3.3 4.5 4 1.5 0.8 4.5 1.4 6.7 1.4 2.2 0 5.6-0.8 7.6-1.7 2.4-1.2 4-3 5-5.5 1-2.7 1.4-8 1.4-18.8 0-14.3-0.1-15-2-15-1.1 0-2.2 0.8-2.5 2-0.5 2-0.5 2-3.2 0-1.8-1.3-4.2-2-6.8-2-2.2 0.1-4.9 0.5-6.1 1zm41.5-0.7c-0.2 0.2-0.3 6.7-0.2 14.5l0.3 14.2h5c0-18.7 0.3-20.3 2-22 1.1-1.1 3.2-2 4.5-2 2 0 2.5-0.5 2.5-2.5 0-2-0.5-2.5-2.7-2.5-1.7 0-3.5 1-5 2.8l-2.3 2.7c0-4.8-0.5-5.5-1.8-5.5-1 0-2 0.1-2.3 0.3zm23.4 1.7c-1.8 1.1-4 3.7-4.9 5.8-1.1 2.5-1.4 5.4-1.1 9.2 0.4 4.8 1 5.9 4.1 8.8 2.1 1.9 5.2 3.5 7.4 3.8 2.6 0.4 4.9 0.1 7.6-1.2 2.1-1.1 4.5-3 5.3-4.4 1.3-2.1 1.3-2.6 0.2-3.2-0.8-0.4-1.7-0.8-2.1-0.8-0.4 0-1.8 1.1-3.2 2.5-1.5 1.6-3.6 2.5-5.5 2.5-2.1 0-4-1-6.1-3-1.6-1.6-3-3.7-3-4.5 0-1.2 1.9-1.5 10.8-1.5h10.7c-1.2-8.5-2.1-10.2-4.9-12.7-2.8-2.6-4.4-3.3-7.8-3.3-2.5 0-5.6 0.8-7.5 2zm27.2 0.5c-1.5 1.5-2.4 3.7-2.5 5.7 0 1.8 0.5 3.9 1.2 4.5 0.8 0.7 4.3 2.3 7.8 3.5q6.5 2.3 6.8 4.1c0.1 0.9-0.3 2.4-1 3.3-0.7 0.8-2.7 1.5-4.5 1.5-2.2-0.1-3.9-0.9-5.3-2.6q-2-2.5-4-2c-1.1 0.3-2 0.8-2 1.3 0 0.4 0.9 1.9 2 3.5 1.1 1.5 3.7 3.2 5.8 3.8 2 0.6 4.9 0.8 6.2 0.5 1.4-0.3 3.8-1.5 5.3-2.6 2.1-1.5 2.7-2.8 2.8-5.7 0-2.4-0.7-4.4-1.8-5.5-1-0.9-4.2-2.5-7.2-3.5-2.9-1-5.9-2.6-6.5-3.6-0.8-1.4-0.7-2.1 0.9-3.3 1.1-0.8 2.8-1.4 3.8-1.4 0.9 0 2.6 0.9 3.7 2 1.1 1.1 3.2 2 4.5 2 1.4 0 2.5-0.4 2.5-1 0-0.5-1.3-2.3-3-4-2.5-2.5-3.7-3-8-3-4 0-5.5 0.5-7.5 2.5zm24.5 17.5v20c5 0 5-0.2 5-7 0-3.8 0.4-7 0.8-7 0.4 0.1 1.6 0.8 2.6 1.8 1 1 3.4 1.7 5.5 1.7 2.1 0 4.9-0.8 6.4-1.7 1.5-1 3.6-3.3 4.7-5 1.2-1.9 2-5 2-7.5 0-2.4-0.6-5.8-1.3-7.5-0.7-1.8-2.6-4.3-4.2-5.6-2-1.5-4.3-2.3-7-2.3-2.4 0-5 0.8-6.7 2.1-2.8 2-2.8 2-2.8 0 0-1.5-0.6-2-2.5-2h-2.5zm38.3-18c-1.8 1.1-3.9 3.4-4.8 5-0.8 1.7-1.5 5-1.5 7.5 0 2.5 0.7 5.9 1.5 7.5 0.9 1.7 2.8 3.9 4.3 5 1.5 1.2 4.1 2.4 5.7 2.7 2 0.4 4.6-0.1 7.5-1.5q4.5-2 6.2-5.4c0.9-1.8 1.7-4.6 1.9-6.3 0.1-1.6 0.1-4.2 0-5.7 0-1.6-1.4-4.3-3.3-6.4-2.8-3.2-4-3.7-8.8-4.1-4.3-0.3-6.1 0-8.7 1.7zm26.7 12.5v14.5c5 0 5-0.1 5-9 0-5.2 0.6-10.1 1.3-11.5 0.7-1.4 2.4-3 3.7-3.6 1.8-0.8 3.2-0.8 4.8 0 1.2 0.6 2.7 2 3.2 3.1 0.6 1.1 1 6.3 1 11.5 0 9.5 0 9.5 2.5 9.5h2.5c-0.5-23.1-0.6-24-3-26.4-1.8-2-3.5-2.6-6.5-2.6-2.4-0.1-5 0.7-6.7 2-2.8 2-2.8 2-2.8 0 0-1.5-0.6-2-2.5-2h-2.5zm33-11.6c-1.5 1.6-2.8 4.1-2.9 5.5 0 1.5 0.8 3.5 1.9 4.6 1.1 1.1 4.5 2.7 7.5 3.5 3.1 0.8 6 2.3 6.5 3.3 0.7 1.2 0.5 2.2-0.7 3.4-1 1-3 1.8-4.5 1.8-1.8 0-3.7-1-5.3-2.7-2-2.3-2.9-2.6-4.5-1.8-1.7 0.9-1.8 1.3-0.7 3.5 0.7 1.4 2.8 3.3 4.7 4.3 2.4 1.3 4.8 1.7 7.5 1.3 2.6-0.4 5-1.6 6.8-3.3 1.7-1.7 2.8-3.8 2.8-5.5-0.1-1.6-1.1-3.8-2.4-5-1.3-1.3-4.6-2.8-7.3-3.5-2.7-0.7-5.5-2-6.4-2.9-1.3-1.5-1.2-1.8 1-3.5 1.4-1.1 3.2-2 4-2 0.9 0 2.4 1 3.5 2.1 1.1 1.1 3 2.1 4.3 2 1.2 0 2.2-0.4 2.2-1 0-0.5-0.3-1.7-0.7-2.6-0.4-0.9-2-2.3-3.5-3-1.5-0.8-4.6-1.4-6.8-1.4-3.2 0-4.7 0.6-7 2.9zm24 11.6v14.5h5v-29h-5zm10.2-13.2c0.3 0.6 2.8 7.2 5.4 14.5 4.8 13 5 13.2 7.9 13.2 3 0 3.1-0.2 7.8-13.7 2.6-7.6 4.8-14.1 4.8-14.5-0.1-0.5-1.2-0.7-2.7-0.5-2.4 0.2-2.9 1.1-6.2 11.6l-3.7 11.3c-7.5-23.1-7.5-23.2-10.6-23.2-2.2 0-3 0.4-2.7 1.3zm33 2.5c-2.7 2.8-4 5-4.2 7.3-0.1 1.9-0.2 4.8 0 6.4 0.1 1.7 0.8 4.1 1.5 5.5 0.7 1.4 2.3 3.2 3.7 4.1 1.3 0.9 3.7 2 5.3 2.4 1.7 0.4 4.6 0.2 6.5-0.3 2-0.6 4.8-2.6 6.4-4.4 2.9-3.3 2.9-3.3 0.7-4.3-1.7-0.8-2.6-0.5-4.8 1.7-1.9 1.9-3.8 2.8-6 2.8-2.2 0-4.1-0.8-5.8-2.5-1.3-1.4-2.5-3.4-2.5-4.5 0-1.9 0.7-2 10.5-2h10.5c0-3.9-0.6-6.5-1.3-8.2-0.8-1.8-2.4-4.2-3.6-5.3-1.5-1.3-4.1-2.1-7.7-2.4-5.1-0.3-5.5-0.2-9.2 3.7zm-497.2 79.2v21h5v-42h-5zm178 0v21c5 0 5 0 5-9.7 0-8.3 0.3-10.2 2-12.5 1.7-2.3 2.7-2.7 5.8-2.5 2.8 0.2 4 0.8 4.9 2.7 0.8 1.5 1.3 6.4 1.3 12.3 0 9.7 0 9.7 2.5 9.7h2.5c-0.5-23.1-0.6-24-3-26.4-1.3-1.4-3.8-2.8-5.5-3.1-1.8-0.3-4.4 0.2-6.7 1.3l-3.7 1.7c-0.1-15.3-0.1-15.5-2.6-15.5h-2.5zm192.9-19.4c-1 1.2-1.1 2-0.3 3.2 0.7 1 2.2 1.7 3.5 1.7 1.5 0 2.5-0.6 2.7-1.7 0.1-1-0.3-2.5-1-3.3-0.7-0.9-1.8-1.6-2.4-1.5-0.6 0-1.8 0.7-2.5 1.6zm98.1 19.4v21h5v-42h-5zm-415-12.5c0 4.1-0.2 4.5-2.5 4.5-2 0-2.5 0.5-2.5 2.5 0 2 0.5 2.5 2.5 2.5h2.5c0 18.7 0.3 20.3 2 22 1.1 1.1 3.4 2 5 2 1.7 0 3.7-0.2 4.5-0.5 1.1-0.3 1.3-1.1 0.8-2.5-0.4-1.2-1.3-1.8-2-1.5-0.7 0.3-2.2 0.1-3.3-0.5-1.7-0.9-2-2-2-10v-9c6.6 0 7-0.3 7-2.5 0-2.2-0.4-2.5-3.5-2.5-3.4 0-3.5 0-3.5-4.5 0-4.1-0.2-4.5-2.5-4.5-2.3 0-2.5 0.4-2.5 4.5zm-244.9 5.3c-2 0.9-4.6 3.3-5.8 5.2-1.5 2.3-2.3 5-2.3 7.8 0 2.3 0.7 5.8 1.5 7.7 0.9 1.9 3 4.4 4.8 5.5 2.1 1.3 5 2 8.1 2 4.2 0 5.3-0.4 8.2-3.5 1.9-1.9 3.4-3.9 3.4-4.5 0-0.5-1-1.3-2.2-1.6-1.7-0.4-2.8 0.1-4.3 1.9-1.1 1.4-3 2.8-4.2 3.1-1.3 0.3-3.5 0-5-0.8-1.5-0.7-3.4-2.8-4.2-4.7-0.8-2-1.1-4.8-0.8-6.9 0.4-1.9 1.8-4.5 3.2-5.7 1.4-1.3 3.7-2.3 5-2.3 1.5 0 3.7 1.2 5.3 2.9 1.9 2.1 3.4 2.8 5 2.5 1.2-0.2 2.2-0.7 2.3-1.1 0-0.5-1-2.1-2.3-3.7-1.2-1.6-3.7-3.5-5.5-4.3-1.8-0.7-4.1-1.3-5-1.3-1 0-3.3 0.8-5.2 1.8zm29.9-0.7c-1.3 0.6-3.5 2-4.7 3.2-1.3 1.2-2.3 2.8-2.3 3.5 0 0.6 1 1.4 2.3 1.6 1.5 0.3 2.8-0.3 4-2 1.2-1.6 2.7-2.4 4.7-2.4 1.7 0 3.9 0.9 5 2 1.1 1.1 2 2.9 2 4 0 1.8-0.6 2-5.5 2-3 0-6.5 0.4-7.7 0.9-1.3 0.4-3.1 1.6-4 2.5-1.1 1-1.8 3.1-1.8 5.6 0 3.2 0.6 4.4 2.8 6 1.7 1.3 4.3 2.1 6.7 2.1 2.5 0 5.1-0.8 6.8-2.1 2.7-2 2.7-2 2.7 0 0 1.5 0.7 2 2.5 2h2.5c0-16.3-0.4-22.1-1-23.5-0.5-1.4-2-3.2-3.2-4-1.3-0.8-3.8-1.7-5.8-2-1.9-0.2-4.6 0-6 0.6zm34.5-0.4c-1.1 0.3-3 1.5-4.2 2.7l-2.3 2.1c0-3.8-0.6-4.5-2-4.5-1.9 0-2 0.7-2 14.5v14.5c5 0 5 0 5-9.7 0-7.1 0.4-10.4 1.5-12q1.5-2.3 4.5-2.3c2.7 0 3-0.3 3-3 0-1.6-0.3-2.9-0.7-2.9-0.4 0.1-1.7 0.4-2.8 0.6zm16.5 0.2c-1.3 0.5-3.5 1.3-4.7 2-1.3 0.6-3 2.6-3.9 4.4-1.1 2.3-1.5 5.1-1.2 9.5 0.3 5.9 0.6 6.6 4.1 9.8 3.1 2.8 4.5 3.4 8.2 3.4 2.5 0 5.9-0.7 7.5-1.5 1.7-0.8 3.9-3 5-4.7 1.3-2.1 2-5 2-8 0-2.7-0.8-6.4-1.7-8.4-1.2-2.3-3.2-4.2-5.8-5.5-2.2-1-4.6-1.8-5.5-1.8-0.8 0.1-2.6 0.4-4 0.8zm58.2 0.2c-1.8 0.5-3.7 1.5-4.2 2.2-0.5 0.6-1.2 2.6-1.6 4.2-0.5 2.4-0.2 3.5 1.7 5.6 1.4 1.5 4.9 3.3 8.2 4.2 3.1 1 6.1 2.4 6.5 3.2 0.5 1 0 2.3-1.3 3.5-1.1 1.2-3 2.1-4.2 2-1.3 0-3.5-1.2-5-2.8-1.7-1.6-3.6-2.6-5-2.5-1.3 0.2-2.3 0.8-2.3 1.3 0 0.6 1.6 2.6 3.5 4.5 3.1 3.1 4.1 3.5 8.6 3.5 4.3 0 5.5-0.4 8-3 1.7-1.7 2.9-4.1 2.9-5.5 0-1.4-1-3.5-2.2-4.8-1.3-1.3-4.9-3.1-8-4-3.2-0.9-6-2.4-6.3-3.2-0.2-0.8 0.2-2.2 1.1-3 0.9-0.8 2.7-1.5 4-1.5 1.3 0 3.3 0.9 4.4 2 1.1 1.1 2.9 2 4 2 1.1 0 2-0.4 2-1 0-0.5-0.4-1.9-1-3-0.5-1.1-2.5-2.7-4.5-3.5-1.9-0.8-4-1.4-4.7-1.4-0.7 0.1-2.8 0.5-4.6 1zm26.8 0.8c-1.9 1.1-4.3 3.3-5.2 5-1 1.7-1.8 5.2-1.8 7.9-0.1 2.6 0.3 5.8 0.8 7.2 0.5 1.4 2.4 3.7 4.1 5.3 2.4 2.1 4.2 2.7 7.6 2.7 2.5 0 5.8-0.6 7.3-1.4 1.5-0.7 3.5-2.5 4.5-4 0.9-1.4 1.4-2.8 1-3.1-0.4-0.3-1.5-0.5-2.5-0.5-0.9 0-2.8 1.1-4.2 2.5-1.4 1.4-3.6 2.5-5 2.5-1.5 0-3.8-1.2-5.6-3-1.6-1.6-3-3.7-3-4.5 0-1.2 1.9-1.5 10.5-1.5h10.5c0-4.6-0.6-7.2-1.4-8.7-0.7-1.6-2.4-3.8-3.7-5-1.3-1.2-4.2-2.4-6.4-2.7-2.8-0.4-5-0.1-7.5 1.3zm41.3-0.4c-1.8 0.8-3.7 2.4-4.3 3.5-0.5 1.1-1 3.1-1 4.5 0 1.4 1 3.4 2.3 4.5 1.2 1.1 4.3 2.5 6.7 3.1 2.5 0.6 5.1 1.6 5.8 2.2 0.7 0.7 1.3 2 1.3 3 0 0.9-1 2.2-2.1 2.7-1.1 0.6-3.3 0.8-5 0.5-1.6-0.3-3.5-1.4-4.2-2.5-0.7-1.1-2.3-2-3.5-2-1.3 0-2.3 0.6-2.3 1.5 0 0.8 1 2.7 2.3 4.1 1.8 2.1 3.4 2.8 7.7 3.2 4.4 0.4 6.1 0.1 8.4-1.4 1.5-1 3.1-3.2 3.5-4.9 0.5-1.6 0.5-3.9 0.2-4.9-0.3-1.1-1.5-2.5-2.6-3.3-1.1-0.7-4.2-1.9-6.8-2.5-2.7-0.7-5.4-2-6-3-0.9-1.2-0.8-2 0.3-3.2 0.9-0.9 2.7-1.7 4-1.7 1.4 0 3.4 1 4.5 2.1 1.1 1.1 2.9 1.8 4 1.6 1.1-0.2 1.9-1 1.7-1.7-0.1-0.8-1.3-2.4-2.5-3.6-1.2-1.2-3.7-2.4-5.7-2.7-2.1-0.4-4.7 0-6.7 0.9zm63.2-0.8c-1.1 0.3-3 1.3-4.3 2.2-1.4 0.9-3 2.7-3.7 4.1-0.7 1.4-1.4 4.1-1.5 6-0.1 1.9-0.2 4.7-0.1 6.3 0.1 1.5 1.6 4.3 3.4 6.3 2.8 3.2 3.9 3.7 8.7 4.1 4.4 0.3 6.2 0 8.8-1.6 1.8-1.2 3.9-3.7 4.7-5.6 0.9-1.9 1.5-5.4 1.5-7.7 0-2.5-0.8-5.6-2-7.5-1.1-1.8-3-4-4.2-4.8-1.3-0.8-3.8-1.7-5.8-1.9-1.9-0.2-4.4-0.2-5.5 0.1zm43.6 0.6c-1.9 0.7-4.4 2.6-5.5 4.1-1.3 1.8-2.2 4.8-2.4 8.5-0.3 3.8 0.1 6.6 1.2 8.9 0.9 1.7 3.1 4.1 4.9 5.2 2 1.3 5 2 8 2 4.1 0 5.2-0.5 8.2-3.5 2-1.9 3.3-3.9 3-4.5-0.2-0.5-1.1-1-2-1-0.8 0-2.8 1.1-4.5 2.5-1.6 1.4-3.6 2.5-4.5 2.5-0.8 0-2.6-0.4-4-1-1.3-0.5-3.1-2.3-4-4-0.8-1.6-1.5-3.2-1.5-3.5 0-0.3 4.9-0.6 10.8-0.7l10.7-0.3c-0.5-5.4-1.5-8.3-2.4-10-1-1.6-3.5-3.8-5.4-4.7-2-1-4.5-1.8-5.4-1.7-1 0-3.3 0.6-5.2 1.2zm33.9-0.6c-0.8 0.3-2.5 1.5-3.7 2.7l-2.3 2.1c0-4-0.5-4.5-2.5-4.5h-2.5v29h6c0-19.3 0.2-20.2 2.5-22.5 1.3-1.4 3.6-2.5 5-2.5 1.4 0 3.2 0.7 4 1.5 1.2 1.2 1.5 4.1 1.5 12.5v11h6c0-16.1-0.5-21.3-1.3-23.2-0.8-1.8-2-3.8-2.8-4.5-0.7-0.7-2.9-1.5-4.9-1.7-1.9-0.3-4.1-0.3-5 0.1zm57.4 0.7c-1.7 0.8-3.9 2.5-4.8 3.8-0.9 1.3-1.6 2.6-1.6 3.1 0 0.4 1 0.9 2.3 1.1 1.5 0.3 2.8-0.3 4-2 1.2-1.6 2.7-2.4 4.7-2.4 1.7 0 3.9 0.9 5 2 1.1 1.1 2 2.9 2 4 0 1.8-0.7 2-6.9 2.3-5.8 0.2-7.3 0.6-9.5 2.7-1.8 1.7-2.6 3.5-2.6 5.8 0 2.1 0.9 4.1 2.5 5.7 1.9 1.9 3.6 2.5 6.8 2.5 2.7 0.1 5.2-0.6 7-2 2.7-2 2.7-2 2.7 0 0 1.5 0.7 2 2.5 2h2.5c0-22.6 0-23.1-2.7-26-1.9-2-4-3.1-6.8-3.5-2.4-0.3-5.2 0.1-7.1 0.9zm34.6-0.7c-0.8 0.3-2.5 1.5-3.7 2.7l-2.3 2.1c0-4-0.5-4.5-2.5-4.5h-2.5v29h6c0-19.7 0.3-21.2 2-23 1.1-1.1 3.4-2 5-2q3 0 4.5 2.3c1.1 1.6 1.5 5 1.5 12.5v10.2h5c0-17.8-0.4-23.9-1-25-0.5-1.1-2.5-2.7-4.5-3.5-1.9-0.8-4-1.5-4.7-1.4-0.7 0-1.9 0.3-2.8 0.6zm26.2 1.1c-1.9 0.9-4.2 3.3-5.3 5.2-1.1 2.1-1.9 5.5-1.9 8.5 0 3.6 0.6 6 2.3 8.5 1.3 1.9 3.4 4.1 4.8 4.7 1.3 0.7 4.1 1.3 6.2 1.3 2 0 5.1-0.7 6.7-1.5 1.7-0.8 3.7-2.8 4.5-4.5 1.5-2.9 1.4-3-0.7-3.5-1.6-0.3-2.9 0.4-4.4 2.3-1.7 2.1-3 2.7-5.9 2.7-2.7 0-4.2-0.7-6.1-2.7-1.6-2-2.4-4-2.4-6.8 0-2.2 0.6-5.1 1.3-6.5 0.7-1.4 2.2-2.9 3.5-3.5 1.2-0.5 3.1-1 4.2-1 1.1 0 3.3 1.2 4.8 2.7 1.6 1.6 3.6 2.6 4.7 2.4 1.1-0.1 2.3-0.5 2.5-0.7 0.3-0.2-0.7-1.9-2.2-3.9-1.8-2.2-4.1-3.9-6.5-4.5-2.1-0.5-4.4-1-5.3-1-0.8 0-3 0.8-4.8 1.8zm30.3 0c-2.8 1.3-4.5 3-5.8 5.8-1.5 3-1.8 5.3-1.4 9.9 0.4 5.5 0.8 6.3 4.3 9.4 3.8 3.3 4.2 3.4 9.9 2.9 5.2-0.4 6.4-1 8.8-3.7 1.5-1.7 2.5-3.5 2.2-4.1-0.2-0.5-1.1-1-2-1-0.8 0-2.8 1.1-4.5 2.5-1.6 1.4-4.1 2.5-5.5 2.5-1.4 0-3.7-1.3-5.5-3-1.6-1.6-3-3.7-3-4.5 0-1.2 1.9-1.5 10.5-1.5h10.5c0-4.6-0.8-7.6-1.7-9.6-1-2-2.7-4.2-3.8-4.9-1.1-0.7-3.5-1.5-5.5-1.9-2.4-0.4-4.7 0-7.5 1.2zm83.8-1.1c-1.2 0.2-3.2 1.6-4.5 2.9-1.5 1.8-2.2 3.6-2 5.7 0.1 1.8 0.8 3.8 1.5 4.5 0.7 0.8 3.9 2.2 7.2 3.2 3.3 1 6.5 2.5 7 3.3 0.8 1.2 0.5 2.1-1 3.7-1.1 1.1-3 2.1-4.2 2-1.3 0-3.5-1.2-5-2.8-1.7-1.6-3.6-2.6-5-2.5-1.9 0.3-2.1 0.7-1.5 2.5 0.4 1.2 2 3.2 3.5 4.5 2 1.7 4 2.3 7.2 2.3 2.5 0 5.8-0.6 7.3-1.3 1.5-0.8 3.1-2.1 3.5-3 0.4-0.9 0.7-2.9 0.8-4.4 0-1.6-0.9-3.6-2.2-4.8-1.2-1.1-4.5-2.7-7.3-3.6-2.8-0.9-5.5-2.3-6.1-3.2-0.7-1.1-0.5-2 0.5-3.1 0.9-0.9 2.8-1.7 4.3-1.6 1.6 0 3.2 0.8 4 2 0.7 1.1 2.2 2 3.5 2 1.2 0 2.4-0.3 2.7-0.7 0.2-0.5-0.3-1.9-1.3-3.2-0.9-1.4-3.1-3.1-4.9-3.8-1.8-0.7-3.8-1.2-4.5-1.2-0.7 0.1-2.3 0.4-3.5 0.6zm56.1 0.7c-1.7 0.8-3.9 2.5-4.8 3.8-0.9 1.3-1.6 2.6-1.6 3.1 0 0.4 1 0.9 2.3 1.1 1.5 0.3 2.8-0.3 4-2 1.3-1.7 2.7-2.4 5.2-2.4 2.6 0 4 0.6 5 2.3 0.9 1.2 1.5 3 1.5 4 0 1.4-1.1 1.8-7 2-6.4 0.2-7.4 0.5-9.5 3-1.5 1.6-2.5 4-2.5 5.7 0 1.9 1 4 2.5 5.5 1.9 1.8 3.6 2.5 6.5 2.5 2.2 0 5-0.5 6.3-1.1 1.2-0.7 2.6-1.7 3-2.3 0.4-0.6 0.7-0.1 0.7 1.2 0 1.7 0.6 2.2 2.5 2.2h2.5c0-17.8-0.4-23-1.2-24.5-0.7-1.4-2.7-3.2-4.5-4-1.8-0.8-4.3-1.5-5.5-1.4-1.3 0-3.7 0.6-5.4 1.3zm-533.2 11.7c0.3 11.7 0.4 12.2 3.1 14.5 2 1.8 3.9 2.4 7 2.4 3 0 4.9-0.7 6.5-2.3l2.3-2.2c-0.1 4 0.5 4.5 2.4 4.5h2.5v-29h-5.4c-0.1 19.8-0.2 20.3-2.8 22.6-1.5 1.3-3.6 2.4-4.5 2.4-1 0.1-2.5-0.7-3.5-1.7-1.4-1.5-1.7-3.7-1.7-12.5l-0.1-10.8h-6.2zm427.9-11.3c0 0.4 2 6.1 4.4 12.7 2.4 6.6 4.7 12.8 5 13.8 0.4 1.1 1.6 1.7 3.6 1.7 2.9 0 3.1-0.2 7.4-12.7 2.4-7 4.7-13.6 5-14.5 0.5-1.4 0-1.8-2.2-1.8-2.6 0-2.9 0.5-6.2 11-1.9 6-3.7 11-4 11-0.3 0-2.1-4.9-4-11-3.4-10.5-3.6-11-6.3-11-1.5 0-2.7 0.4-2.7 0.8zm31 13.7v14.5h5v-29h-5zm38-3.5c0 7.3 0.4 12 1.3 13.8 0.8 1.5 2.1 3.1 3 3.5 0.9 0.4 3.4 0.7 5.4 0.8 2.3 0 4.9-0.8 6.5-2 2.8-2.1 2.8-2.1 2.8-0.1 0 1.5 0.6 2 2.5 2h2.5v-29h-6c0 19.3-0.2 20.2-2.5 22.5-1.3 1.4-3.4 2.5-4.5 2.5-1.1 0-2.9-0.9-4-2-1.8-1.7-2-3.3-2-12.5v-10.5h-5zm-413 71v21h6v-42h-6zm107-12.5v8.5c-4.4-3.2-7-4-9.3-4-2.6 0-4.7 0.9-7 2.9-2.1 1.8-3.7 4.5-4.5 7.5-0.9 3.5-1 5.6-0.1 8.9 0.6 2.3 2.3 5.4 3.8 6.9 1.4 1.4 4.2 2.9 6.1 3.3 2.7 0.6 4.3 0.3 7.2-1.3 3.1-1.8 3.8-1.9 3.8-0.7 0 1 0.9 1.5 2.5 1.5h2.5v-42c-5 0-5 0.1-5 8.5zm26-7.3c-0.8 0.7-1.3 1.9-1.2 2.8 0.1 0.8 0.7 2.1 1.4 2.8 0.7 0.7 1.6 1.3 2 1.2 0.3 0 1.3-0.7 2.2-1.5 0.9-0.8 1.6-1.9 1.6-2.5 0-0.5-0.7-1.7-1.5-2.5-0.8-0.8-1.9-1.5-2.3-1.5-0.5 0-1.5 0.6-2.2 1.2zm189 0c-0.8 0.7-1.3 1.9-1.2 2.8 0.1 0.8 0.7 2.1 1.4 2.8 0.7 0.7 1.6 1.3 2 1.2 0.3 0 1.3-0.7 2.2-1.5 0.9-0.8 1.6-1.9 1.6-2.5 0-0.5-0.7-1.7-1.5-2.5-0.8-0.8-1.9-1.5-2.3-1.5-0.5 0-1.5 0.6-2.2 1.2zm40.5 0.1c-1 0.7-1.6 2.1-1.4 3.1 0.2 1.1 1.1 2.4 2 3 1.3 0.9 2.1 0.8 3.3-0.4 0.9-0.8 1.7-2.2 1.7-3.2 0-0.9-0.9-2.2-2-2.7-1.3-0.7-2.4-0.6-3.6 0.2zm-184.5 8.2c0 4.2-0.2 4.5-2.5 4.5-1.9 0-2.5 0.6-2.5 2 0 1.5 0.6 2 2.5 2h2.5c0 15.9 0.3 21.1 0.7 21.7 0.4 0.6 2 1.7 3.5 2.2 1.5 0.6 3.9 0.9 5.3 0.6q2.5-0.5 2.5-2.5c0-1.5-0.8-2-3.3-2.2l-3.2-0.3-0.5-19.5c6.3 0 7-0.4 7-2 0-1.6-0.7-2-3.5-2-3.5 0-3.5 0-3.5-4.5 0-4.1-0.2-4.5-2.5-4.5-2.3 0-2.5 0.4-2.5 4.5zm126 0c0 4.2-0.2 4.5-2.5 4.5-1.9 0-2.5 0.6-2.5 2 0 1.5 0.6 2 2.5 2 2.5 0 2.5 0.1 2.5 9.5 0 5.2 0.4 10.4 1 11.5 0.5 1.1 2.1 2.5 3.5 3 1.4 0.6 3.6 0.8 5 0.5q2.5-0.5 2.5-2.5c0-1.4-0.7-2-2.5-2-1.5 0-2.9-0.8-3.5-2-0.6-1.1-1-5.6-1-10v-8c6.4 0 7-0.3 7-2.2 0-1.9-0.6-2.3-3.3-2.3-3.1 0-3.2-0.1-3.4-4.2-0.2-3.9-0.4-4.3-2.8-4.3-2.3 0-2.5 0.4-2.5 4.5zm73 0c0 4.2-0.2 4.5-2.5 4.5-1.9 0-2.5 0.6-2.5 2 0 1.5 0.6 2 2.5 2h2.5c-0.1 18.9 0.2 20.8 1.7 22.1 1 0.9 2.6 1.9 3.5 2.3 1 0.3 2.9 0.4 4.3 0.1q2.5-0.5 2.5-2.5c0-1.4-0.7-2-2.3-2-1.2 0.1-2.8-0.5-3.5-1.2-0.8-0.8-1.3-4.3-1.2-10v-8.8c6.3 0 7-0.4 7-2 0-1.6-0.7-2-3.5-2-3.5 0-3.5 0-3.5-4.5 0-4.1-0.2-4.5-2.5-4.5-2.3 0-2.5 0.4-2.5 4.5zm-525.7 4.5c-1.2 0.4-2.8 1.6-3.6 2.6-0.8 1.1-1.7 2.7-2.1 3.7-0.5 1.3-0.1 1.7 1.9 1.7 1.4 0 3.3-0.9 4.2-2.1 1.1-1.3 3-2.2 5-2.3 1.8 0 3.8 0.6 4.6 1.4 0.8 0.8 1.7 2.5 2.1 3.8 0.5 2.1 0.2 2.2-3.7 2.2-2.3 0-5.8 0.5-7.7 1-1.9 0.5-4.4 1.9-5.5 3.1-1.2 1.2-2 3.5-2 5.4 0 1.9 0.8 4.2 2 5.5 1.1 1.1 3.3 2.4 5 2.7 1.6 0.3 4.2 0.3 5.7-0.1 1.5-0.3 3.7-1.6 4.8-2.8l2-2.3c0 4 0.5 4.5 2.5 4.5h2.5c0-16.8-0.5-22-1.3-23.6-0.7-1.4-2.5-3.2-4-4-1.5-0.8-4.4-1.3-6.5-1.3-2 0-4.7 0.4-5.9 0.9zm33.7-0.3c-0.8 0.3-2.3 1.3-3.3 2.2-1.7 1.5-1.8 1.5-1.8-0.1 0.1-1.2-0.7-1.8-2.4-1.8h-2.5v39h6c-0.1-14.2 0-14.4 1.7-12.8 1 1 3.1 2 4.8 2.4 1.8 0.4 4.4 0 6.7-1 2.1-0.9 4.7-3 5.8-4.8 1.7-2.6 2-4.6 1.8-10-0.3-5.9-0.7-7.1-3.3-9.8-2.3-2.3-4.1-3.2-7.5-3.5-2.5-0.2-5.2-0.2-6 0.2zm33 0c-0.8 0.3-2.3 1.3-3.3 2.2-1.7 1.5-1.8 1.5-1.8-0.1 0.1-1.2-0.7-1.8-2.4-1.8h-2.5v39c4.9 0 5-0.2 5-7 0-4 0.4-7 1-7 0.5 0 1 0.5 1 1 0 0.6 1.7 1.5 3.7 2.1 2.1 0.6 4.9 0.8 6.3 0.5 1.4-0.3 3.7-1.8 5.1-3.3 1.4-1.5 3.1-3.8 3.8-5 0.6-1.3 1.1-4.1 1.1-6.3 0-2.2-0.7-5.6-1.5-7.5-0.8-1.9-3-4.4-4.8-5.5-1.8-1.1-4.6-1.9-6.2-1.9-1.7 0-3.7 0.3-4.5 0.6zm29.3 0.3c-1.2 0.4-2.9 1.6-3.7 2.6-0.9 1.1-2.2 3.7-3 5.9-0.9 2.7-1.1 5.5-0.6 8.5 0.5 2.5 1.7 5.6 2.8 7 1 1.4 3.4 3.1 5.3 3.9 2.2 0.9 4.8 1.1 7.4 0.6 2.6-0.5 5.2-1.9 7.5-4.2l3.5-3.6c-4.6-1.5-5.5-1.2-7.5 0.8-1.7 1.6-3.7 2.5-5.8 2.5-2.1 0-4.1-0.8-5.7-2.5-1.4-1.4-2.5-3.4-2.5-4.5 0-1.8 0.6-2 10.5-2h10.5c0-3.9-0.9-6.8-2-9-1.1-2.2-3.4-4.6-5-5.5-1.7-0.8-4.5-1.4-6.3-1.4-1.8 0-4.2 0.4-5.4 0.9zm28.4 0.6c-1.5 0.8-3.2 2.3-3.7 3.4-0.6 1.1-1 2.5-1 3 0 0.6 1 1 2.2 1.1 1.3 0 3-1 3.9-2.3 1.2-1.7 2.6-2.3 5.3-2.3 2.6 0 4.2 0.6 5.2 2 0.8 1.1 1.4 2.8 1.4 3.8 0 1.3-0.9 1.7-3.8 1.7-2 0.1-5.5 0.5-7.7 1-2.2 0.5-4.8 2-5.8 3.2-1 1.3-1.8 3.7-1.8 5.3 0 1.9 1 3.9 2.6 5.5 2.1 2 3.7 2.5 7.5 2.5 3.4 0 5.4-0.5 6.9-2 1.9-1.8 2.1-1.8 2.1-0.2 0 1.2 0.7 1.7 2.5 1.7h2.5c0-22.9 0-23-3-26-2.5-2.5-3.8-3-7.8-2.9-2.6 0-6 0.7-7.5 1.5zm55 0c-1.5 0.8-3.2 2.3-3.7 3.4-0.6 1.1-1 2.5-1 3 0 0.6 0.8 1.2 1.7 1.3 1 0.2 2.8-0.6 4.2-1.8 1.3-1.3 3.4-2.5 4.7-2.9 1.7-0.4 3 0.1 4.9 1.9 1.4 1.4 2.5 3.1 2.5 3.8 0 0.8-2.4 1.5-6.8 1.9-4.2 0.4-7.7 1.4-9.2 2.6-1.8 1.4-2.6 3.1-2.8 5.8-0.3 3.2 0.2 4.4 2.3 6.4 2.1 2 3.7 2.5 7.6 2.5 4.2 0 5.4-0.4 7-2.5 2-2.5 2-2.5 1.9-0.2 0 1.7 0.5 2.2 2.5 2.2h2.5c0-17.8-0.5-21.9-1.5-24-0.8-1.6-2.6-3.4-4-4-1.4-0.5-4.2-1-6.3-0.9-2 0-5 0.7-6.5 1.5zm32.9 0.4c-1.4 1.1-2.8 2-3.1 2-0.3 0-0.3-0.7 0-1.5 0.3-1-0.2-1.5-2-1.5h-2.5v28c5 0 5 0 5-9.5 0-9.1 0.1-9.6 2.9-12.5 1.6-1.6 3.6-3 4.5-3 0.9 0 2.7 1.1 4.2 2.5 2.4 2.3 2.6 2.9 2.5 12.5l-0.1 10h5c-0.5-23.9-0.6-24.2-3.3-26.6-1.9-1.6-3.9-2.4-6.6-2.4-2.3 0-4.9 0.8-6.5 2zm68.7-1.1c-0.4 0.2-0.6 6.7-0.5 14.3l0.2 13.8h6c-0.5-28.1-0.6-28.3-2.8-28.5-1.3-0.1-2.6 0.1-2.9 0.4zm21.7-0.2c-0.8 0.3-2.3 1.3-3.3 2.2-1.7 1.5-1.8 1.5-1.8-0.1 0.1-1.2-0.7-1.8-2.4-1.8h-2.6l0.6 28h5.5c0.4-18.7 0.8-21.3 2.2-22.6 0.9-0.9 3-1.7 4.6-1.8 1.6 0 3.6 0.6 4.6 1.4 1.4 1.3 1.7 3.4 1.6 12.3v10.7h6c0-16.6-0.5-21.1-1.5-23.5-0.9-1.9-2.6-3.9-4-4.5-1.4-0.5-3.8-0.9-5.3-0.9-1.5 0-3.4 0.3-4.2 0.6zm46.2 0.2c-1.2 0.5-3.3 2.3-4.7 4-1.4 1.7-2.8 4.6-3.1 6.4-0.4 1.8-0.4 4.9 0 7 0.3 2 1.7 5.1 3.1 6.7 1.5 1.9 4.1 3.5 6.7 4.1 3.1 0.8 5.3 0.8 8 0 2.1-0.6 4.7-2.3 5.8-3.8 1.1-1.5 2-3.1 2-3.5 0-0.4-1-1-2.3-1.2-1.5-0.3-2.8 0.3-4 2-1.3 1.8-2.7 2.4-5.5 2.5-2.6 0-4.4-0.7-5.9-2.3-1.2-1.3-2.3-3.2-2.5-4.3-0.3-1.9 0.3-2 10.4-2.2 7.8-0.2 10.8-0.6 10.8-1.5 0-0.7-0.5-2.9-1-4.8-0.5-1.9-2.2-4.7-3.7-6.3-2-2-4.1-2.9-7.3-3.2-2.5-0.3-5.5-0.1-6.8 0.4zm31.2 1.2c-1.1 1.1-2.3 2-2.7 2-0.4-0.1-0.4-0.8-0.1-1.6 0.5-1.1 0-1.5-2-1.5h-2.6v28c5 0 5 0 5.2-10.1 0.3-9.4 0.4-10.2 2.8-12 1.4-1.1 3.5-1.9 4.7-1.9 1.8 0 2.3-0.5 2.3-2.5 0-2.1-0.5-2.5-2.9-2.5-1.6 0-3.7 0.9-4.7 2.1zm16.9-1.1c-1.2 0.5-3.2 2.1-4.3 3.7-1.2 1.5-2.1 3.2-2.1 3.6 0.1 0.4 1.1 0.8 2.3 1 1.4 0.1 3.3-0.8 5-2.5 1.5-1.5 3.7-2.8 4.8-2.8 1.1 0 2.9 0.9 4 2 1.1 1.1 2 2.9 2 4 0 1.7-0.7 2-3.8 2-2 0-5.4 0.5-7.5 1-2 0.6-4.6 1.9-5.7 3-1.1 1.1-2 3.4-2 5 0 1.8 1 4.2 2.4 5.8 2 2.3 3.2 2.7 7.4 2.7q5 0 6.8-1.7c1-0.9 2.2-1.7 2.6-1.7 0.4-0.1 0.6 0.6 0.3 1.4-0.4 1.2 0.3 1.5 2.7 1.5h3.3c-1.2-23.3-1.3-23.5-4.4-26.2-2.4-2.1-4.1-2.8-7.4-2.7-2.3 0-5.2 0.4-6.4 0.9zm30-0.1c-1.2 0.4-3.2 2.1-4.5 3.6-1.8 2.1-2.4 4.1-2.7 9.4-0.2 5.7 0 7.1 2.1 10.1 1.5 2.3 3.8 4.1 6.6 5 3.7 1.4 4.6 1.4 8.4 0 2.7-0.9 5-2.7 6.6-5l2.3-3.5c-4-0.9-5.4-0.3-7.4 1.7-1.8 1.9-3.8 2.8-5.7 2.8-1.9 0-4-0.9-5.5-2.5-2-1.9-2.5-3.5-2.6-7.2 0-3.3 0.6-5.6 2-7.5 1.7-2.2 2.9-2.8 6.1-2.8 3 0 4.4 0.6 6 2.5 1.1 1.4 2.9 2.5 4 2.5 1.1 0 2-0.6 2-1.5 0-0.8-1.3-2.9-2.8-4.6-2.2-2.5-3.7-3.2-7.7-3.5-2.8-0.2-6 0-7.2 0.5zm42.7 14.1v14h6v-28h-6zm10.5-11.7c0.4 1.2 2.7 7.4 5 13.7 3.9 10.8 4.4 11.5 7.1 11.9 2 0.2 3.1-0.2 3.7-1.5 0.5-1.1 2.9-7.4 5.3-14.1l4.4-12.3c-6 0-6.1 0.2-9.1 10.3-1.7 5.6-3.5 10.7-4 11.2-0.6 0.7-1 0.3-0.9-1 0-1.1-1.4-6.1-3-11.2-3-9.1-3.1-9.3-6.1-9.3-2.8 0-3 0.3-2.4 2.3zm30.5 11.7v14h5v-28h-5zm30.8-12.2c0.5 0.9 3.1 7.5 5.6 14.5 4.1 11.3 4.4 13 3.3 15.4-0.7 1.4-1.9 3-2.7 3.4-0.8 0.4-2.3 1-3.3 1.4-0.9 0.3-1.7 1.4-1.7 2.5 0 1.5 0.7 2 2.7 2.1 1.5 0 4-0.9 5.5-2 2-1.5 3.9-5.1 6.7-12.3 2.2-5.7 5.3-14 7-18.5l3.1-8.3c-6 0-6.1 0.3-9.2 10.3-1.8 5.6-3.5 10.5-3.8 10.9-0.3 0.4-2.1-4.2-4-10.2l-3.5-11c-6.2 0-6.5 0.3-5.7 1.8zm28.3 20.7c-0.6 0.8-0.9 2.4-0.6 3.5 0.3 1.1 1.2 2.2 2 2.5 0.8 0.3 2.4 0.1 3.5-0.5 1.1-0.5 2-1.8 2-2.7 0-1-0.6-2.3-1.3-3-0.7-0.7-2-1.3-2.9-1.3-0.9 0-2.1 0.7-2.7 1.5zm-554.6-1267c-3.9 0.7-9.9 2.3-13.5 3.5-3.6 1.2-8.8 3.4-11.5 4.8-2.8 1.4-7 3.8-9.5 5.5-2.5 1.6-7.6 6-11.4 9.6-3.7 3.6-8.1 8.5-9.7 10.9l-2.9 4.2c30.2 0 32.1 0.2 32.9 1.8 0.5 1 0.5 2.4 0 3.5-0.7 1.3-2.2 1.7-6.9 1.7-3.4 0-6 0.5-6 1 0 0.6 4.2 12.8 9.3 27.3 5.2 14.4 12.3 34.9 15.8 45.4 3.5 10.6 6.6 19.3 6.9 19.3 0.3 0 4.8-12.7 10-28.2l9.5-28.3c-6.7-18.6-9.6-26.7-10.9-30l-2.2-6c-7.6-0.8-10.2-1.6-10.7-2.5-0.6-0.8-0.7-2.3-0.4-3.2 0.6-1.6 2.8-1.8 24.9-1.8 21.2-0.1 24.5 0.1 25.8 1.6 1.1 1.2 1.2 2 0.4 3.3-0.8 1.1-2.8 1.7-6.8 1.9-3.1 0.1-5.6 0.4-5.6 0.7 0 0.3 3.7 11.4 8.3 24.8 4.7 13.3 11.7 33.6 15.8 45 4.1 11.4 7.6 20.7 7.9 20.7 0.3 0 3.1-8.4 6.4-18.7 3.3-10.3 6.8-21.9 7.8-25.8 0.9-3.8 1.7-9.5 1.7-12.5 0-3-0.6-7.1-1.2-9-0.7-1.9-3.8-8-7-13.5-3.1-5.5-6.2-11.6-6.8-13.5-0.7-1.9-0.9-5.3-0.6-7.7 0.5-3 1.8-5.5 4.4-8.4 2.1-2.3 5-4.9 6.5-5.8l2.8-1.6c-3.5-3.4-8.3-6.6-13-9.4-4.7-2.8-11.2-6-14.5-7.1-3.3-1.1-9.5-2.6-13.8-3.5-4.2-0.8-11.7-1.4-16.5-1.4-4.8 0.1-11.9 0.7-15.7 1.4zm93.1 54.5c-0.4 9-1.3 11.9-16.5 57.5-8.9 26.4-16.1 48.4-16.1 48.8 0 0.4 2.7-1.2 6.1-3.5 3.4-2.4 8.9-7 12.3-10.3 3.3-3.3 8.3-9.4 11.1-13.5 2.7-4.1 6.4-11.4 8.2-16.2 1.8-4.8 4-12.9 4.9-18 1.1-6.5 1.4-11.8 0.9-17.8-0.3-4.7-1.3-11.4-2.1-15-0.9-3.6-2.7-9.4-4.1-13-1.4-3.6-2.9-6.9-3.4-7.5-0.4-0.5-1 3.3-1.3 8.5zm-158.4-3c-0.6 1.4-2 5.7-3.1 9.5-1.2 3.9-2.5 11.1-2.9 16-0.5 5-0.4 13.1 0 18 0.5 5.4 2.1 12.6 3.9 18 1.7 5 5.1 12.6 7.7 17 3 5.2 7.8 11.2 13.7 17 5.2 5.3 11.9 10.7 16 13.1 3.8 2.3 7.1 4.1 7.2 4 0.1 0-4-12-9.2-26.6-5.1-14.6-14.1-39.3-19.8-55-5.8-15.7-11-29.6-11.5-31l-1-2.5zm69.5 81.5l-12.7 37.5c8.9 1.9 17.3 2.5 24.5 2.5 9.5 0 15-0.5 20.5-1.9 4.1-1 7.6-1.9 7.7-2 0.1 0-4.6-13.6-10.6-30.1-6-16.5-11.8-33-12.9-36.7-1.1-3.7-2.5-6.8-3-6.8-0.4 0-6.6 16.9-13.5 37.5zm536.8-33.3c-0.2 0.7-0.9 4.5-1.5 8.3-0.7 3.9-1.6 7.7-2 8.5-0.4 0.8-5.7 3.7-11.7 6.4-6.4 2.9-11.6 4.6-12.8 4.3-1.1-0.3-4.8-2.6-8.3-5.1-3.4-2.5-6.6-4.6-7-4.6-0.4 0-5.1 4.4-10.5 9.8l-9.6 9.7c7 9.3 9.5 13 10 14.3 0.6 1.7 0 4.4-2.7 11.5-2 5.1-4.5 10.1-5.6 11.2-1.2 1.3-4.7 2.6-10.1 3.6l-8.2 1.5v27.8c13.1 2.1 17.5 3.2 18.2 3.9 0.7 0.7 3 5.4 5.2 10.5 2.3 5.1 4.1 10.5 4.1 12 0 1.7-1.8 5.1-5 9.5-2.8 3.7-5 7.1-5 7.5 0 0.4 4.1 4.9 9.2 10.1l9.3 9.3c11.8-8.8 16-11.1 17.5-11.1 1.3-0.1 6.3 1.6 11 3.5 4.6 2 9.3 4.4 10.3 5.3 0.9 0.9 2.4 4.8 3.2 8.6 0.8 3.9 1.7 8 2 9.3 0.5 2.2 0.7 2.2 13.2 2l12.8-0.3c3.5-13.9 5.1-18.6 5.8-19.3 0.6-0.7 5.4-3.1 10.7-5.3 6.2-2.7 10.3-3.9 12-3.6 1.3 0.3 4.9 2.5 7.8 4.9 3 2.4 6 4.8 6.8 5.3 1 0.8 3.2-0.8 8.9-6.5 4.2-4.1 8.5-8.6 9.5-10l1.9-2.5c-8.5-11.6-11-15.8-11-16.7 0.1-1 1.9-6.2 4.1-11.5 2.2-5.4 4.6-10.3 5.3-11 0.6-0.7 3.9-1.7 7.2-2.3 3.3-0.5 7.4-1.2 9.2-1.5l3.3-0.5c0-25.5-0.2-27-1.8-27.4-0.9-0.3-4-0.8-6.7-1.1-2.8-0.4-6.5-1.3-8.3-2.1-1.8-0.8-3.8-2.4-4.4-3.6-0.6-1.3-2.4-5.4-4-9.3-1.5-3.8-2.8-8.1-2.8-9.5 0-1.4 2-5.2 4.3-8.5 2.4-3.3 4.6-6.5 5-7.2 0.4-0.8-2.9-4.9-8.6-10.8-5.1-5.3-9.6-9.5-10-9.5-0.4 0-3.5 2.1-7 4.6-3.4 2.5-7.1 4.8-8.2 5.1-1.1 0.3-5-0.7-8.5-2.2-3.6-1.5-8.5-3.7-10.8-4.8-2.4-1.2-4.6-2.9-4.9-3.7-0.3-0.8-1.3-5.1-2.3-9.5l-1.6-8c-23.3-0.5-26.5-0.2-26.9 0.7zm-524.1 156.7c-1 1-1.7 2.8-1.6 4 0.1 1.1 0.8 2.8 1.7 3.6 0.8 0.8 2.6 1.5 3.9 1.5 1.3 0 3.1-0.7 4-1.5 0.9-0.8 1.6-2.5 1.6-3.7 0-1.3-0.8-3.1-1.8-4-0.9-0.9-2.7-1.7-3.8-1.7-1.2-0.1-3 0.7-4 1.8zm43 0.3c-0.9 1.3-1.6 3-1.6 3.8 0.1 0.8 0.9 2.3 1.9 3.2 1 1 2.6 1.8 3.5 1.8 1 0 2.7-0.4 3.8-1 1.2-0.6 2-2 2-3.7 0-1.5-0.8-3.6-1.8-4.5-0.9-0.9-2.7-1.7-3.9-1.7-1.2-0.1-3 0.9-3.9 2.1zm43 0c-0.9 1.3-1.6 3-1.6 3.8 0.1 0.8 0.9 2.3 1.9 3.2 1 1 2.9 1.8 4.3 1.8 1.4 0 3.1-0.5 3.8-1.2 0.7-0.7 1.2-2.7 1.2-4.5 0-2.3-0.7-3.6-2-4.3-1.1-0.5-2.9-1-4-1-1.1 0-2.7 1-3.6 2.2zm27.7 96.6c-1.2 0.7-1.4 16.6-1.5 103-0.1 56.2 0 102.2 0.1 102.2 0.2 0 1.3-1.2 2.5-2.7 1.3-1.5 10.4-12.7 20.3-24.8 9.9-12.1 20.5-25.1 23.5-29 2.9-3.8 12.2-15.5 20.6-26 8.4-10.4 22.6-28 31.6-39 15.9-19.3 16.5-20 20.3-20.2 3.5-0.3 4.3 0.1 7.2 3.5 1.7 2 8.7 10.3 15.5 18.3 6.7 8.1 21.7 25.9 33.3 39.7 11.5 13.8 21.2 25 21.6 24.9 0.3-0.1 9.4-9.4 20.2-20.7 10.8-11.3 20.7-20.8 21.9-21.2 1.3-0.5 2.9-0.6 3.8-0.3 0.8 0.2 8.3 7.8 16.5 16.7 8.3 9 30.4 33 49 53.3 18.7 20.4 36.3 39.5 39.2 42.5l5.2 5.5c0.1-209.7-0.1-223.7-1.4-225-1.4-1.3-22.1-1.5-174.8-1.5-95.3 0-173.9 0.4-174.6 0.8zm-100.1 124.7v97.5h65v-195h-65zm483.4-96.2c-0.2 0.7-0.3 44.4-0.2 97.2l0.3 96 64.5 0.5v-195c-56.8 0-64.2 0.3-64.6 1.3zm-283.6 63.9c-9.6 11.7-22.8 28.1-29.4 36.3-6.6 8.3-13.3 16.8-14.9 19-1.7 2.2-11.3 14.1-21.4 26.5-10.2 12.4-22.5 27.4-27.3 33.3l-8.8 10.7c0 20.2 0.4 26.9 1 28 0.9 1.9 1.9 2 14.2 2l13.3-0.1c22.4-45.8 30.3-61.2 32-63.7 1.6-2.6 4.8-5.6 7-6.9 2.2-1.2 5.8-2.5 8-2.8 2.2-0.4 6-0.1 8.5 0.5 2.4 0.6 6.5 2.6 9 4.4 2.9 2.1 5.4 5.1 7.2 8.7 2.1 4 2.8 6.9 2.8 10.9 0 4.5-1.4 8.7-7.4 23.5-4.1 9.9-8.1 19.7-9 21.8l-1.6 3.7c265 0 266 0 267-2 0.5-1.1 1-3.7 1-5.7 0-3.3-0.8-4.6-6.3-10.3-3.4-3.6-15.7-16.8-27.3-29.5-11.6-12.6-31.8-34.7-44.9-49-13.1-14.3-26-28.3-28.7-31.2l-4.8-5.3c-16 16.7-24.7 25.9-29.8 31.3l-9.2 9.7c37.5 44.2 42.5 50.7 42.5 52.8 0 2.1-0.6 2.8-2.3 3-1.7 0.2-3.9-1.6-9-7.6-3.7-4.2-12.8-14.9-20.3-23.7-7.5-8.8-26.3-31.1-41.9-49.5-15.5-18.4-33.2-39.3-39.3-46.5-6.1-7.1-11.3-13.1-11.7-13.3-0.4-0.1-8.6 9.3-18.2 21zm-28.3 90.4c-2.2 0.7-4.9 2.4-5.9 3.6-1.1 1.3-14.8 28.4-30.6 60.3-15.8 31.9-32.7 66.6-37.5 77-4.9 10.5-9.4 19.6-10 20.3-0.6 0.7-1.8 1.3-2.8 1.3-0.9-0.1-2.2-0.9-2.7-1.8-0.6-1.2-0.3-3 0.9-5.8 1-2.2 6.2-13.3 11.5-24.7l9.6-20.8c-7.4-4.1-11.3-5.6-13.5-5.8-2.2-0.2-5.7 0.1-7.8 0.7-2.5 0.7-5.3 3-8.5 6.5-2.6 3-7.2 9.6-10.2 14.7-3.1 5.1-8 13.9-11.1 19.4-4.6 8.2-6 10-7.9 10-1.3 0-2.8-0.7-3.3-1.5-0.8-1.1 1.7-6.2 10.2-21 6.2-10.7 11.3-19.9 11.4-20.5 0.1-0.5-1.9-2-4.3-3.2-2.5-1.2-6-2.2-7.8-2.2-1.8-0.1-4.9 0.8-7 1.8-2 1.1-5.8 4.1-8.3 6.8-2.6 2.7-6.4 7.3-8.6 10.3-2.2 3-7.2 10.8-11.1 17.3-6.1 9.8-7.6 11.7-9.5 11.5q-2.2-0.3-2.5-2.5c-0.1-1.3 2-6.1 5-11 2.8-4.8 7.3-12 10-16 2.6-4 4.6-7.6 4.4-8-0.2-0.4-2-1.6-4-2.5-2-1-5.4-1.8-7.6-1.8-2.2 0-5.3 0.7-6.8 1.4-1.5 0.8-4.4 3.2-6.3 5.3-2 2.1-5 5.8-6.7 8.3-1.7 2.5-5.5 9.5-8.5 15.5-3.1 6.1-7.4 15.5-9.5 21-2.2 5.5-6.5 17.9-9.5 27.5-3.1 9.6-7.4 23.4-9.6 30.5-2.2 7.2-6.6 18.2-9.7 24.5-3.1 6.3-8.1 15.8-11.2 21-3 5.2-5.1 9.7-4.6 9.8 0.5 0.2 28.8 16.2 62.9 35.7l62 35.5c4.6-5.8 8.7-10.3 12-13.8 3.3-3.5 8.9-8.3 12.5-10.7 3.5-2.4 13.4-8 22-12.5 8.5-4.5 19.1-10.6 23.5-13.5 4.4-2.9 11.5-8.6 15.9-12.6 4.5-4.2 12.6-13.8 19-22.4 6.2-8.2 19-25.6 28.5-38.5 9.6-12.9 19.7-26.6 22.6-30.5 2.9-3.8 6-8.4 6.9-10.2 0.8-1.8 1.6-5.5 1.6-8.3 0-4-0.6-5.6-2.8-8-1.5-1.7-4.5-3.8-6.7-4.7-2.8-1-5.5-1.3-8.5-0.8-2.5 0.4-7 1.9-10 3.3-3.4 1.6-8.4 5.6-13 10.2-4.2 4.1-14.5 15.8-23 26-8.6 10.1-17.3 19.7-19.5 21.3-2.2 1.5-5.8 3.1-8 3.4-3.4 0.5-4.4 0.2-6.4-1.8-2-2-2.2-3.1-1.9-7.4 0.3-2.7 3.6-13.8 7.5-24.5 3.9-10.7 12.7-34.1 19.6-52 6.9-17.9 15.4-39.9 19-49 3.5-9.1 11.4-28.9 17.5-44 6.9-17 11.1-28.8 11.1-31 0-1.9-0.9-5.4-2-7.7-1.3-3-3.2-5-6.2-6.7-2.3-1.3-5.6-2.6-7.2-2.9-1.7-0.3-4.8 0.1-7 0.9zm393.6 485.3l-0.1 8.1c11-0.4 13.4-1 14.7-2.3 1.1-1.1 1.8-3.2 1.8-5.7 0-2.4-0.7-4.6-1.8-5.7-1.3-1.2-3.8-1.9-8.2-2.1l-6.3-0.4zm-622.1 5c-1.6 1.6-2.9 3.4-2.9 4-0.1 0.7 2.8 1.1 7.9 1.1 7.3 0 8-0.2 8-2 0-1.1-1.2-2.9-2.8-4-1.5-1.1-3.8-2-5-2-1.3 0-3.6 1.3-5.2 2.9zm80 0c-1.6 1.6-2.9 3.4-2.9 4-0.1 0.7 2.8 1.1 7.9 1.1 6.4 0 8-0.3 8-1.5 0-0.8-1.1-2.6-2.5-4-1.4-1.4-3.7-2.5-5.1-2.5-1.5 0-3.7 1.2-5.4 2.9zm144.5-0.8c-1.5 1.1-2.7 2.9-2.6 4 0.1 1.7 0.9 1.9 8.1 1.9 7.2 0 7.9-0.2 7.3-1.7-0.3-1-1.6-2.8-2.7-4.1-1.2-1.2-3.3-2.2-4.7-2.2-1.4 0-3.8 0.9-5.4 2.1zm119 0.4c-1.3 1.3-2.4 3.1-2.5 4 0 1.2 1.4 1.5 8 1.5 6.4 0 8-0.3 8-1.5 0-0.8-1.1-2.6-2.5-4-1.6-1.6-3.6-2.5-5.6-2.5-1.9 0-3.9 0.9-5.4 2.5zm63.2-1c-1.5 0.9-3 2.5-3.3 3.8-0.4 1.2-0.6 4-0.6 6.2 0.1 2.2 0.8 5 1.7 6.3 0.8 1.2 2.9 2.5 4.7 2.8 2.1 0.3 4.1 0 5.5-1 1.3-0.9 2.7-2.7 3.3-4.1 0.5-1.4 1-4.1 1-6 0-2.5-0.8-4.3-3-6.5-1.7-1.6-3.8-3-4.8-3-0.9 0.1-2.9 0.7-4.5 1.5zm136.7-0.5c-1.1 0.5-2.8 2.3-3.7 4-0.9 1.6-1.7 4.1-1.7 5.5 0 1.4 0.7 3.9 1.5 5.5 0.8 1.7 2.6 3.5 4 4 1.4 0.6 3.7 0.7 5.2 0.3 1.4-0.5 3.5-1.9 4.5-3.3 1.2-1.5 1.8-4.1 1.8-6.7 0-3-0.7-5-2.3-6.8-1.2-1.3-3.3-2.6-4.7-2.9-1.4-0.3-3.4-0.1-4.6 0.4zm50 0c-1.1 0.6-2.9 2.7-3.8 4.7-1.1 2.4-1.6 4.9-1.2 6.8 0.3 1.7 1.3 4 2.1 5.3 0.8 1.2 2.9 2.5 4.7 2.8 2.1 0.3 4.1 0 5.5-1 1.3-0.9 2.7-3.3 3.3-5.3 0.6-2.4 0.6-5.1 0-7.3-0.5-1.9-1.5-4-2.2-4.7-0.7-0.6-2.4-1.4-3.8-1.7-1.4-0.3-3.4-0.1-4.6 0.4zm81.8-0.3c-0.6 0.3-1.9 1.8-2.7 3.4-0.8 1.6-1.5 3.1-1.5 3.4 0 0.3 3.6 0.5 8 0.5 6.4 0 8-0.3 8-1.5 0-0.8-1.1-2.6-2.5-4-1.5-1.5-3.6-2.5-5.3-2.4-1.5 0-3.3 0.3-4 0.6zm-644 12.6c-1.2 0.7-2.5 2.1-2.8 3.2-0.4 1.3 0.1 2.5 1.2 3.3 1.1 0.7 3.1 1.2 4.7 1.2 1.6 0 3.8-1 5.2-2.5 1.4-1.4 2.5-3.4 2.5-4.5 0-1.7-0.7-2-4.3-2-2.3 0-5.2 0.6-6.5 1.3zm92 0.2c-1.4 0.9-2.1 2.3-2 3.7 0.2 1.4 1.3 2.6 2.8 3.2 1.4 0.5 3.7 0.6 5.2 0.2 1.7-0.3 3.4-1.8 4.3-3.6 0.8-1.6 1.5-3.4 1.5-4 0-0.5-2.1-1-4.8-1-2.6 0-5.7 0.7-7 1.5zm-150.2 62.6c-1.4 0.5-3.1 1.9-3.8 3.1-0.6 1.3-1.3 3.2-1.4 4.3-0.1 1.1-0.1 3.2 0 4.8 0.1 1.5 1.3 3.8 2.7 5.2 1.4 1.4 3.7 2.5 5.1 2.5 1.5 0 3.7-1.2 5.5-3 2.3-2.4 2.9-3.9 2.9-7.5 0-3.3-0.6-5.1-2.3-6.9-1.2-1.3-3.1-2.7-4.2-2.9-1.1-0.3-3.1-0.1-4.5 0.4zm334.3 0.2c-1.2 0.7-2.9 2.4-3.8 3.7-1.1 1.7-1.4 3.9-1.1 7 0.3 3.2 1.2 5.1 3 6.8 1.4 1.2 3.6 2.2 4.8 2.2 1.3 0.1 3.5-1.1 5-2.5 2.4-2.1 2.8-3.3 2.8-7.7-0.1-2.9-0.6-6-1.3-6.9-0.7-0.9-2.2-2.1-3.5-2.7-1.2-0.7-2.5-1.2-3-1.2-0.4 0-1.7 0.6-2.9 1.3zm138.7 1.6c-1.6 1.6-2.9 3.4-2.9 4-0.1 0.7 2.8 1.1 7.9 1.1 6.4 0 8-0.3 8-1.5 0-0.8-1.1-2.6-2.5-4-1.4-1.4-3.7-2.5-5.1-2.5-1.5 0-3.7 1.2-5.4 2.9zm220.4-1.9c-1.1 0.5-2.5 1.8-3.2 3-0.7 1.1-1.2 2.5-1.2 3 0 0.6 3.3 1 8 1 4.7 0 8-0.4 8-1 0-0.5-1.4-2.3-3-4-1.7-1.6-3.8-3-4.8-2.9-0.9 0-2.6 0.4-3.8 0.9zm-622.5 1.9c-1.9 1.5-2.4 2.9-2.4 6.4 0 3.5 0.6 5.2 2.5 7.2 2 2.1 3.2 2.6 6.4 2.3 3.4-0.2 4.3-0.8 5.9-3.8 1.4-2.5 1.8-4.4 1.3-6.7-0.3-1.8-1.5-4.2-2.6-5.3-1.2-1.2-3.3-2-5.4-2-1.8 0-4.4 0.9-5.7 1.9zm107.3 0.4c-1.2 1.2-2.4 3.6-2.8 5.2-0.4 1.9 0 4.5 1 6.8 0.9 2.1 2.7 4.1 4.1 4.7 1.4 0.6 3.2 1 4 1 0.8 0 2.8-1.1 4.5-2.5 2.6-2.2 3-3.1 3-7.7 0-4.2-0.4-5.8-2.2-7.5-1.5-1.5-3.6-2.3-5.9-2.3-2.4 0-4.3 0.7-5.7 2.3zm66.8-0.3c-1.1 1.1-2.3 3.2-2.6 4.8-0.4 1.5-0.4 4.2 0 6 0.3 1.9 1.7 4.1 3.3 5.2 1.6 1.2 3.8 2.1 5 2 1.3 0 3.5-1.1 5-2.4 2.4-2.1 2.8-3.2 2.8-7.9 0-4.1-0.5-6-2-7.6-1.4-1.5-3.2-2.1-5.8-2.1-2.3 0-4.4 0.7-5.7 2zm162 0.6c-1.5 1.8-2.2 3.9-2.1 6.5 0.1 2.7 0.8 4.7 2.6 6.4 1.7 1.7 3.6 2.5 6 2.5 2.4 0 4.1-0.7 5.5-2.2 1.3-1.5 2-3.7 2-6.3 0.1-2.5-0.7-5-2-6.7-1.6-2.2-2.8-2.8-5.9-2.8-3.1 0-4.5 0.6-6.1 2.6zm123.4-0.5c-1.4 1.5-1.9 3.6-1.9 7.6 0 4.7 0.4 5.8 2.7 7.9 1.6 1.3 3.9 2.4 5.3 2.4 1.4 0 3.7-1.1 5-2.5 1.4-1.4 2.8-4 3.1-5.7 0.4-2.2 0-4.6-1.2-7.3-1.8-3.7-2.2-4-6.5-4.3-3.6-0.2-4.9 0.2-6.5 1.9zm32.8-0.3c-1.3 1.1-2.3 3.7-2.8 6.8-0.6 4.4-0.4 5.2 1.9 7.9 1.9 2.3 3.3 3 6.2 3 2.7 0 4.3-0.7 6.1-2.7 1.8-2.1 2.4-4 2.4-7.3 0-3.5-0.6-5.1-2.5-7-1.7-1.7-3.6-2.5-5.9-2.5-1.8 0-4.3 0.8-5.4 1.8zm-484.2 75.1c-2.2 2.3-2.9 4-3 7.3 0 2.8 0.6 5.2 1.8 6.8 1 1.4 3 2.8 4.3 3.1 1.3 0.4 3.7 0.1 5.4-0.6 1.9-0.7 3.5-2.4 4.4-4.6 0.8-2 1.2-4.8 0.8-6.9-0.4-1.9-1.8-4.5-3.2-5.7-1.4-1.3-3.7-2.3-5.1-2.3-1.5 0-3.7 1.2-5.4 2.9zm87.5-0.4c-1.3 1.3-2.4 2.9-2.5 3.5 0 0.6 3.1 1 8 1h8c-2.1-4.3-3.5-5.8-4.4-6.2-0.9-0.5-2.8-0.8-4.2-0.8-1.4 0-3.6 1.1-4.9 2.5zm104-1.5c-1.1 0.6-2.6 2.1-3.3 3.5-0.6 1.4-1.2 4.2-1.2 6.3-0.1 2.1 0.7 4.8 1.8 6.2 1 1.4 3 2.8 4.3 3.1 1.3 0.4 3.9 0 5.6-0.7 2.4-1 3.6-2.4 4.4-5.1 0.6-2.1 0.9-4.9 0.6-6.3-0.3-1.4-1.4-3.5-2.4-4.7-1-1.3-3.2-2.5-4.8-2.8-1.7-0.2-3.9 0-5 0.5zm43 1.5c-1.3 1.3-2.4 2.9-2.5 3.5 0 0.6 3.1 1 8 1 4.7 0 8-0.4 8-1 0-0.5-1.1-2.1-2.5-3.5-1.6-1.6-3.6-2.5-5.6-2.5-1.9 0-3.9 0.9-5.4 2.5zm183 0c-1.3 1.3-2.4 3-2.5 3.7 0 1 2.1 1.3 8 1.3 7.5 0 7.9-0.1 7.4-2-0.3-1.1-1.6-2.8-2.7-3.8-1.2-1-3.5-1.8-5-1.7-1.6 0-3.8 1.1-5.2 2.5zm-467.4 11.1c-1.3 0.8-2.3 2.3-2.3 3.2 0.1 0.9 0.7 2.3 1.4 3 0.7 0.7 2.6 1.2 4.1 1.2 1.8 0 3.9-1.1 5.8-3 1.6-1.6 2.9-3.7 2.9-4.5 0-1.1-1.2-1.5-4.8-1.5-2.6 0-5.8 0.7-7.1 1.6zm375.9-0.4c-1.6 0.7-2.4 1.8-2.2 3.2 0.1 1.2 0.7 2.7 1.4 3.4 0.7 0.7 2.5 1.2 4 1.2 1.6 0 3.5-0.3 4.4-0.7 0.9-0.5 2.3-2 3-3.5 0.8-1.6 1.4-3.2 1.4-3.8 0-0.5-2.1-1-4.8-0.9-2.6 0-5.8 0.5-7.2 1.1zm231.1 0.4c-1.3 0.8-2.3 2.2-2.2 3 0 0.8 0.8 2.1 1.6 2.9 0.8 0.8 2.9 1.5 4.5 1.5 2 0 4-0.9 5.5-2.5 1.4-1.4 2.5-3.4 2.5-4.5 0-1.7-0.7-2-4.8-2-2.6 0-5.8 0.7-7.1 1.6zm-499.6 61.6c-1.1 0.6-2.6 1.8-3.3 2.7-0.7 0.9-1.2 2.2-1.2 2.9 0 0.9 2.3 1.2 8 1.2 4.7 0 8-0.4 8-1 0-0.5-1.4-2.3-3-4-1.7-1.6-3.8-3-4.8-3-0.9 0.1-2.6 0.6-3.7 1.2zm252.9-0.2c-1.1 0.5-2.8 2.3-3.7 4l-1.7 3h17c-2.3-4.6-4.1-6.4-5.5-7-1.4-0.5-2.8-1-3.3-0.9-0.4 0-1.6 0.4-2.8 0.9zm-319.4 2.6c-1.5 1.8-2.2 3.9-2.1 6.5 0 2.2 0.6 4.9 1.3 6.2 0.6 1.2 1.8 2.8 2.7 3.4 0.9 0.7 2.6 1.3 3.8 1.3 1.3 0 3-0.3 3.9-0.7 0.9-0.5 2.3-2 3-3.5 0.8-1.6 1.4-4.5 1.4-6.5 0-2.3-0.8-4.9-2-6.5-1.6-2.2-2.8-2.8-5.9-2.8-3.1 0-4.5 0.6-6.1 2.6zm34-1.6c-0.9 0.6-2.2 2.7-2.9 4.8-0.7 2.2-1 5-0.6 6.7 0.4 1.7 1.7 4 2.8 5.3 1.2 1.2 3.3 2.3 4.7 2.3 1.4 0 3.7-0.9 5.2-2.1 1.6-1.1 3-3.3 3.4-5.2 0.3-1.8 0.1-5-0.5-7-0.6-2.1-2-4.2-3.1-4.8-1.1-0.5-3.2-1-4.8-1-1.5 0.1-3.4 0.5-4.2 1zm176 1.6c-1.6 1.9-2.2 3.9-2.1 6.8 0.1 2.3 0.7 5.2 1.4 6.6 0.7 1.4 2.4 2.9 3.7 3.4 1.4 0.5 3.7 0.6 5.2 0.2 1.8-0.4 3.4-1.8 4.4-3.8 1.2-2.3 1.5-4.6 1.1-7.8-0.4-2.5-1.4-5.3-2.4-6.3-1.1-1.1-3.3-1.7-5.5-1.7-2.7 0-4.2 0.7-5.8 2.6zm-57.9 9.3c-1.9 0.3-3.9 1.4-4.5 2.4-0.8 1.2-0.8 2.2 0 3.5 0.7 1.1 2.6 1.8 5.2 2 3.6 0.2 4.5-0.2 6.2-2.5 1.2-1.6 2-3.4 1.8-4.2-0.2-0.8-1.4-1.5-2.8-1.6-1.4-0.1-4 0.1-5.9 0.4zm218.3-0.1c-1 0.2-2.9 0.5-4.2 0.7-1.2 0.3-2.4 1.2-2.7 2-0.3 0.8-0.1 2.4 0.5 3.5 0.7 1.5 2 2 5 2 3.2 0 4.4-0.5 6-2.7 1.1-1.6 1.9-3.5 1.8-4.4-0.2-1-1.2-1.6-2.4-1.5-1.1 0-2.9 0.2-4 0.4zm-402.4 1.4c-0.8 0.7-1.3 1.9-1.2 2.8 0.1 0.8 0.7 2.1 1.4 2.8 0.7 0.7 2.5 1.2 4 1.2 1.6 0 3.5-0.3 4.4-0.7 0.9-0.5 2.3-2 3-3.5 0.8-1.6 1.4-3 1.4-3.3 0-0.3-2.6-0.5-5.8-0.5-3.2 0-6.4 0.5-7.2 1.2zm125.6-0.1c-1.1 0.5-1.9 1.8-1.8 2.7 0.1 0.9 0.7 2.3 1.4 3 0.7 0.7 3 1.2 5 1.2 3 0 4.2-0.6 5.8-2.7 1.1-1.6 2-3.4 2-4 0-0.9-1.7-1.3-5.3-1.3-2.8 0.1-6.1 0.5-7.1 1.1z"/><path fill-rule="evenodd" class="a" d="m761.8 198.1c2.3-0.1 6.6 0.4 9.5 1 2.8 0.6 8.4 2.6 12.2 4.4 4.2 2 9.2 5.4 12.5 8.7 3 2.9 6.7 7.3 8.2 9.8 1.4 2.5 3.6 7.4 4.8 11 1.6 4.7 2.2 8.8 2.2 14.5 0 5.2-0.8 10.3-2.1 14.5-1.1 3.6-3.4 8.6-5.1 11.3-1.6 2.6-5.1 6.7-7.7 9.2-2.7 2.5-7.3 5.9-10.3 7.5-3 1.6-8.2 3.6-11.5 4.4-3.3 0.9-8.9 1.6-12.5 1.6-3.6 0-9.4-0.8-13-1.8-3.6-0.9-9.1-3.3-12.4-5.2-3.2-1.9-7.9-5.8-10.5-8.6-2.5-2.8-5.8-7.3-7.3-10-1.5-2.7-3.4-7.6-4.2-10.9-0.9-3.3-1.6-8.9-1.6-12.5 0-3.6 0.5-8.5 1.1-11 0.6-2.5 2.5-7.4 4.2-11 1.9-3.7 5.5-8.8 8.7-12 3-3 8.4-7 12-8.9 3.6-1.9 9.2-4 12.5-4.7 3.3-0.7 7.9-1.3 10.3-1.3zm-139.3 234.5c2.8 0.2 7.3 1.5 10 2.8 2.8 1.4 6.5 4.1 8.4 6.3 1.9 2.1 4.3 5.8 5.4 8.3 1.3 2.9 2 6.8 2 11 0 4.3-0.7 8-2 11-1.1 2.5-3.5 6.2-5.4 8.4-1.9 2.1-5.4 4.9-7.9 6.1-2.5 1.3-6.7 2.6-9.5 3-3.4 0.5-6.8 0.2-10.5-0.8-3-0.8-7.5-3.1-10-4.9-2.5-1.9-5.7-5.4-7.2-7.9-1.5-2.4-3.2-6.8-3.8-9.6-0.7-3.8-0.7-6.9 0.2-11 0.7-3.2 2.6-7.8 4.3-10.3 1.6-2.4 4.8-5.7 7-7.3 2.2-1.5 6.3-3.5 9-4.2 2.9-0.9 7.1-1.2 10-0.9zm-354.3 77.4c1 0 2.3 0.9 2.8 2 0.9 1.7-0.2 3.3-16.9 20.5l8.9 9.5c4.9 5.2 9 10 9 10.5 0 0.5-0.5 1.6-1.2 2.3-0.7 0.6-1.9 1.2-2.7 1.2-0.9 0-6.4-4.8-12.3-10.7-5.9-6-10.9-11.5-11-12.3-0.1-0.8 4.7-6.3 10.7-12.2 6-6 11.8-10.8 12.7-10.8zm487.7 0c0.9 0 6.4 4.8 12.4 10.8 6.3 6.3 10.7 11.5 10.7 12.7 0.1 1.2-3.9 5.9-10.5 12.3-7.8 7.6-11.1 10.1-12.7 10q-2.3-0.3-2.5-2.5c-0.2-1.7 2-4.7 17.2-20.3l-8.7-8.8c-4.9-4.8-8.9-9.6-9-10.8-0.1-1.1 0.2-2.4 0.7-2.7 0.5-0.4 1.5-0.7 2.4-0.7zm-4.9-302.7c-2.5 0.7-6.3 2.2-8.5 3.3-2.2 1-6.2 4-9 6.5-2.9 2.7-6.3 7.2-8.2 11-2 3.8-3.6 9-4.2 12.9-0.5 3.9-0.5 8.9 0 12.5 0.5 3.3 2.2 8.7 3.8 12 1.8 3.7 5.1 8 8.5 11.2 3.1 2.9 8 6.4 10.9 7.8 2.8 1.4 8.1 3 11.7 3.6 4.7 0.7 8.3 0.7 13-0.1 3.6-0.6 8.8-2.2 11.5-3.5 2.8-1.3 7.4-4.5 10.4-7.2 3.3-3 6.4-7 8.2-10.8 1.6-3.3 3.4-8.7 4.1-12 0.8-4.5 0.8-7.7 0-13-0.7-3.9-2.4-9.5-3.9-12.5-1.5-3-5-7.8-7.8-10.6-3.2-3.3-7.5-6.4-12-8.5-5.8-2.7-8.4-3.3-15.5-3.6-5-0.2-10.3 0.2-13 1zm-138.5 234.1c-1.7 0.7-4.5 2.6-6.4 4.2-1.9 1.6-4.3 4.7-5.2 6.9-1 2.2-1.9 5.6-1.9 7.5 0 1.9 0.5 5.3 1.1 7.5 0.7 2.5 2.8 5.6 5.5 8.2 2.5 2.4 6 4.7 8.2 5.3 2 0.5 4.8 1 6.2 1 1.4 0 4.2-0.5 6.3-1 2-0.6 5.3-2.5 7.4-4.3 2-1.7 4.4-5 5.4-7.2 1-2.2 1.9-6 1.9-8.5 0-2.5-0.9-6.3-1.9-8.5-1-2.2-3.1-5.2-4.7-6.7-1.6-1.5-4.6-3.4-6.6-4.2-2.1-0.9-5.7-1.6-8-1.6-2.4 0.1-5.6 0.7-7.3 1.4z"/></svg>